{
.appVersion = "116";
DisplayStrings = (
A
);
copyright = "Copyright © 2024 gbgk + The Inter Project Authors";
customParameters = (
{
name = license;
value = "OFL 1.1";
}
);
date = "2023-11-20 00:06:37 +0000";
designer = gbgk;
designerURL = "https://gbgk.me";
familyName = "Dag Round Text";
featurePrefixes = (
{
automatic = 1;
code = "languagesystem DFLT dflt;\012languagesystem latn dflt;\012languagesystem hebr dflt;\012languagesystem latn ROM;\012languagesystem latn MOL;\012languagesystem latn CAT;\012";
name = Languagesystems;
}
);
features = (
{
automatic = 1;
code = "feature locl;\012feature frac;\012feature ordn;\012feature smcp;\012";
name = aalt;
},
{
automatic = 1;
code = "script latn;\012language ROM;\012sub Scedilla by Scommaaccent;\012sub scedilla by scommaaccent;\012sub tcedilla by tcommaaccent;\012language MOL;\012sub Scedilla by Scommaaccent;\012sub scedilla by scommaaccent;\012sub tcedilla by tcommaaccent;\012language CAT;\012sub  l' periodcentered' l by ldot;\012sub  L' periodcentered' L by Ldot;\012";
name = locl;
},
{
automatic = 1;
code = "lookup FRAC {\012	sub slash by fraction;\012} FRAC;\012lookup UP {\012	sub [zero one two three four five six seven eight nine] by [zero.numr one.numr two.numr three.numr four.numr five.numr six.numr seven.numr eight.numr nine.numr];\012} UP;\012lookup DOWN {\012	sub fraction [zero.numr one.numr two.numr three.numr four.numr five.numr six.numr seven.numr eight.numr nine.numr]' by [zero.dnom one.dnom two.dnom three.dnom four.dnom five.dnom six.dnom seven.dnom eight.dnom nine.dnom];\012	sub [zero.dnom one.dnom two.dnom three.dnom four.dnom five.dnom six.dnom seven.dnom eight.dnom nine.dnom] [zero.numr one.numr two.numr three.numr four.numr five.numr six.numr seven.numr eight.numr nine.numr]' by [zero.dnom one.dnom two.dnom three.dnom four.dnom five.dnom six.dnom seven.dnom eight.dnom nine.dnom];\012} DOWN;\012";
name = frac;
},
{
automatic = 1;

glyphs = (
{
glyphname = A;
lastChange = "2024-07-06 19:36:07 +0000";
layers = (
{
layerId = "22A22D76-E3A3-44AE-B323-C96AF5899C07";
paths = (
{
closed = 1;
nodes = (
"240 0 LINE SMOOTH",
"339 0 OFFCURVE",
"401 45 OFFCURVE",
"431 139 CURVE SMOOTH",
"497 346 LINE",
"1026 346 LINE",
"1095 138 LINE SMOOTH",
"1126 44 OFFCURVE",
"1188 0 OFFCURVE",
"1287 0 CURVE SMOOTH",
"1311 0 LINE SMOOTH",
"1414 0 OFFCURVE",
"1453 76 OFFCURVE",
"1412 193 CURVE SMOOTH",
"1006 1353 LINE SMOOTH",
"974 1446 OFFCURVE",
"911 1490 OFFCURVE",
"813 1490 CURVE SMOOTH",
"703 1490 LINE SMOOTH",
"605 1490 OFFCURVE",
"543 1447 OFFCURVE",
"511 1353 CURVE SMOOTH",
"115 193 LINE SMOOTH",
"75 76 OFFCURVE",
"116 0 OFFCURVE",
"218 0 CURVE SMOOTH"
);
},
{
closed = 1;
nodes = (
"573 585 LINE",
"616 719 LINE SMOOTH",
"638.667 793.667 OFFCURVE",
"661.333 875.333 OFFCURVE",
"684 964 CURVE SMOOTH",
"706.667 1052.667 OFFCURVE",
"730.333 1148.333 OFFCURVE",
"755 1251 CURVE",
"781 1149.667 OFFCURVE",
"806 1054.667 OFFCURVE",
"830 966 CURVE SMOOTH",
"854 877.333 OFFCURVE",
"878 795 OFFCURVE",
"902 719 CURVE SMOOTH",
"947 585 LINE"
);
}
);
userData = {
assembly = "NPUSHB[ ]	/* 41 values pushed */\01213 1 4 0 1 76 0 4 0 2 1 4 2 104 0 0 0 103 77 5 3 2 1 1 104 1 78 0 0 9 8 0 7 0 7 17 17 17 6 12 25 \012CALL[ ]	/* CallFunction */";
};
width = 1529;
}
);
leftKerningGroup = A;
note = A;
rightKerningGroup = A;
unicode = 0041;
},
{
glyphname = Astroke;
lastChange = "2024-07-06 19:36:07 +0000";
layers = (
{
layerId = "22A22D76-E3A3-44AE-B323-C96AF5899C07";
paths = (
{
closed = 1;
nodes = (
"1053 1678 OFFCURVE",
"1019 1633 OFFCURVE",
"989 1539 CURVE SMOOTH",
"966 1468 LINE",
"962 1479 LINE SMOOTH",
"959 1487 OFFCURVE",
"912 1490 OFFCURVE",
"814 1490 CURVE SMOOTH",
"703 1490 LINE SMOOTH",
"605 1490 OFFCURVE",
"543 1447 OFFCURVE",
"511 1353 CURVE SMOOTH",
"115 193 LINE SMOOTH",
"75 76 OFFCURVE",
"124 0 OFFCURVE",
"240 0 CURVE SMOOTH",
"339 0 OFFCURVE",
"401 45 OFFCURVE",
"431 139 CURVE SMOOTH",
"497 346 LINE",
"599 346 LINE",
"487 2 LINE SMOOTH",
"449 -116 OFFCURVE",
"448 -190 OFFCURVE",
"484 -190 CURVE SMOOTH",
"524 -190 OFFCURVE",
"557 -146 OFFCURVE",
"588 -51 CURVE SMOOTH",
"718 346 LINE",
"1026 346 LINE",
"1095 138 LINE SMOOTH",
"1126 44 OFFCURVE",
"1188 0 OFFCURVE",
"1287 0 CURVE SMOOTH",
"1311 0 LINE SMOOTH",
"1414 0 OFFCURVE",
"1453 76 OFFCURVE",
"1412 193 CURVE SMOOTH",
"1027 1293 LINE",
"1090 1486 LINE SMOOTH",
"1128 1603 OFFCURVE",
"1130 1678 OFFCURVE",
"1094 1678 CURVE SMOOTH"
);
},
{
closed = 1;
nodes = (
"573 585 LINE",
"616 719 LINE SMOOTH",
"638.667 793.667 OFFCURVE",
"661.333 875.333 OFFCURVE",
"684 964 CURVE SMOOTH",
"706.667 1052.667 OFFCURVE",
"730.333 1148.333 OFFCURVE",
"755 1251 CURVE",
"765.667 1209 OFFCURVE",
"776.167 1168.333 OFFCURVE",
"786.5 1129 CURVE SMOOTH",
"817 1013 LINE",
"677 585 LINE"
);
},
{
closed = 1;
nodes = (
"882 783.333 OFFCURVE",
"892 750.333 OFFCURVE",
"902 719 CURVE SMOOTH",
"947 585 LINE",
"796 585 LINE",
"872 818 LINE"
);
}
);
userData = {
assembly = "NPUSHB[ ]	/* 66 values pushed */\01220 17 14 1 4 7 5 1 76 0 2 0 2 134 8 10 2 7 3 1 1 0 7 1 104 0 5 5 103 77 9 1 6 6 0 95 4 1 0 0 104 0 78 16 16 0 0 27 26 16 24 16 24 0 15 0 15 17 17 17 17 17 18 11 12 28 \012CALL[ ]	/* CallFunction */";
};
width = 1529;
}
);
leftKerningGroup = A;
note = uni023A;
rightKerningGroup = A;
unicode = 023A;
},
{
glyphname = AE;
lastChange = "2024-07-06 19:36:07 +0000";
layers = (
{
layerId = "22A22D76-E3A3-44AE-B323-C96AF5899C07";
paths = (
{
closed = 1;
nodes = (
"245 0 LINE SMOOTH",
"341 0 OFFCURVE",
"403 42 OFFCURVE",
"440 131 CURVE SMOOTH",
"532 354 LINE",
"997 354 LINE",
"997 169 LINE SMOOTH",
"997 60 OFFCURVE",
"1057 0 OFFCURVE",
"1166 0 CURVE SMOOTH",
"1816 0 LINE SMOOTH",
"1925 0 OFFCURVE",
"1985 45 OFFCURVE",
"1985 127 CURVE SMOOTH",
"1985 209 OFFCURVE",
"1925 253 OFFCURVE",
"1816 253 CURVE SMOOTH",
"1291 253 LINE",
"1291 625 LINE",
"1761 625 LINE SMOOTH",
"1870 625 OFFCURVE",
"1930 669 OFFCURVE",
"1930 750 CURVE SMOOTH",
"1930 831 OFFCURVE",
"1870 874 OFFCURVE",
"1761 874 CURVE SMOOTH",
"1291 874 LINE",
"1291 1237 LINE",
"1813 1237 LINE SMOOTH",
"1922 1237 OFFCURVE",
"1982 1282 OFFCURVE",
"1982 1364 CURVE SMOOTH",
"1982 1446 OFFCURVE",
"1922 1490 OFFCURVE",
"1813 1490 CURVE SMOOTH",
"833 1490 LINE SMOOTH",
"737 1490 OFFCURVE",
"674 1449 OFFCURVE",
"636 1361 CURVE SMOOTH",
"134 197 LINE SMOOTH",
"83 80 OFFCURVE",
"118 0 OFFCURVE",
"218 0 CURVE SMOOTH"
);
},
{
closed = 1;
nodes = (
"623 573 LINE",
"922 1296 LINE",
"997 1296 LINE",
"997 573 LINE"
);
}
);
userData = {
assembly = "MPPEM[ ]	/* MeasurePixelPerEm */\012PUSHB[ ]	/* 1 value pushed */\01243 \012LT[ ]	/* LessThan */\012IF[ ]	/* If */\012NPUSHB[ ]	/* 46 values pushed */\0120 9 0 1 1 9 114 0 2 0 3 8 2 3 103 0 8 0 6 4 8 6 103 0 1 1 0 96 0 0 0 103 77 0 4 4 5 95 10 7 2 5 5 104 5 78 \012ELSE[ ]	/* Else */\012NPUSHB[ ]	/* 47 values pushed */\0120 9 0 1 0 9 1 128 0 2 0 3 8 2 3 103 0 8 0 6 4 8 6 103 0 1 1 0 96 0 0 0 103 77 0 4 4 5 95 10 7 2 5 5 104 5 78 \012EIF[ ]	/* EndIf */\012NPUSHB[ ]	/* 20 values pushed */\0120 0 19 18 17 16 0 15 0 15 17 17 17 17 17 17 17 11 12 29 \012CALL[ ]	/* CallFunction */";
};
width = 2094;
}
);
leftKerningGroup = A;
note = AE;
rightKerningGroup = AE;
unicode = 00C6;
},
{
glyphname = B;
lastChange = "2024-07-06 19:36:07 +0000";
layers = (
{
layerId = "22A22D76-E3A3-44AE-B323-C96AF5899C07";
paths = (
{
closed = 1;
nodes = (
"135 169 LINE SMOOTH",
"135 60 OFFCURVE",
"195 0 OFFCURVE",
"304 0 CURVE SMOOTH",
"764 0 LINE SMOOTH",
"876 0 OFFCURVE",
"970 17.833 OFFCURVE",
"1046 53.5 CURVE SMOOTH",
"1122 89.167 OFFCURVE",
"1179.333 138 OFFCURVE",
"1218 200 CURVE SMOOTH",
"1256.667 262 OFFCURVE",
"1276 332.333 OFFCURVE",
"1276 411 CURVE SMOOTH",
"1276 484.333 OFFCURVE",
"1260.5 547.5 OFFCURVE",
"1229.5 600.5 CURVE SMOOTH",
"1198.5 653.5 OFFCURVE",
"1158.167 694.667 OFFCURVE",
"1108.5 724 CURVE SMOOTH",
"1058.833 753.333 OFFCURVE",
"1006 769.333 OFFCURVE",
"950 772 CURVE",
"950 787 LINE",
"1026.667 804.333 OFFCURVE",
"1090.5 840 OFFCURVE",
"1141.5 894 CURVE SMOOTH",
"1192.5 948 OFFCURVE",
"1218 1019 OFFCURVE",
"1218 1107 CURVE SMOOTH",
"1218 1218.333 OFFCURVE",
"1176.833 1310 OFFCURVE",
"1094.5 1382 CURVE SMOOTH",
"1012.167 1454 OFFCURVE",
"889.333 1490 OFFCURVE",
"726 1490 CURVE SMOOTH",
"304 1490 LINE SMOOTH",
"195 1490 OFFCURVE",
"135 1430 OFFCURVE",
"135 1321 CURVE SMOOTH"
);
},
{
closed = 1;
nodes = (
"440 251 LINE",
"440 655 LINE",
"712 655 LINE SMOOTH",
"788.667 655 OFFCURVE",
"849.5 634.667 OFFCURVE",
"894.5 594 CURVE SMOOTH",
"939.5 553.333 OFFCURVE",
"962 502 OFFCURVE",
"962 440 CURVE SMOOTH",
"962 383.333 OFFCURVE",
"941.5 337.667 OFFCURVE",
"900.5 303 CURVE SMOOTH",
"859.5 268.333 OFFCURVE",
"794 251 OFFCURVE",
"704 251 CURVE SMOOTH"
);
},
{
closed = 1;
nodes = (
"440 864 LINE",
"440 1241 LINE",
"687 1241 LINE SMOOTH",
"758.333 1241 OFFCURVE",
"813.167 1224 OFFCURVE",
"851.5 1190 CURVE SMOOTH",
"889.833 1156 OFFCURVE",
"909 1112 OFFCURVE",
"909 1058 CURVE SMOOTH",
"909 998 OFFCURVE",
"887.333 950.667 OFFCURVE",
"844 916 CURVE SMOOTH",
"800.667 881.333 OFFCURVE",
"746.333 864 OFFCURVE",
"681 864 CURVE SMOOTH"
);
}
);
userData = {
assembly = "NPUSHB[ ]	/* 54 values pushed */\0128 1 3 4 1 76 0 4 0 3 2 4 3 103 0 5 5 0 95 0 0 0 103 77 0 2 2 1 95 6 1 1 1 104 1 78 0 0 35 33 29 27 26 24 20 18 0 17 0 16 33 7 12 23 \012CALL[ ]	/* CallFunction */";
};
width = 1355;
}
);
leftKerningGroup = B;
note = B;
rightKerningGroup = B;
unicode = 0042;
},
{
glyphname = Bhook;
lastChange = "2024-07-06 19:36:07 +0000";
layers = (
{
layerId = "22A22D76-E3A3-44AE-B323-C96AF5899C07";
paths = (
{
closed = 1;
nodes = (
"50 1091 OFFCURVE",
"98 1065 OFFCURVE",
"187 1065 CURVE SMOOTH",
"275 1065 OFFCURVE",
"323 1083 OFFCURVE",
"323 1114 CURVE SMOOTH",
"323 1196 OFFCURVE",
"368.667 1237 OFFCURVE",
"460 1237 CURVE SMOOTH",
"523 1237 LINE",
"523 169 LINE SMOOTH",
"523 60 OFFCURVE",
"583 0 OFFCURVE",
"692 0 CURVE SMOOTH",
"1152 0 LINE SMOOTH",
"1264 0 OFFCURVE",
"1358 17.833 OFFCURVE",
"1434 53.5 CURVE SMOOTH",
"1510 89.167 OFFCURVE",
"1567.333 138 OFFCURVE",
"1606 200 CURVE SMOOTH",
"1644.667 262 OFFCURVE",
"1664 332.333 OFFCURVE",
"1664 411 CURVE SMOOTH",
"1664 484.333 OFFCURVE",
"1648.5 547.5 OFFCURVE",
"1617.5 600.5 CURVE SMOOTH",
"1586.5 653.5 OFFCURVE",
"1546.167 694.667 OFFCURVE",
"1496.5 724 CURVE SMOOTH",
"1446.833 753.333 OFFCURVE",
"1394 769.333 OFFCURVE",
"1338 772 CURVE",
"1338 787 LINE",
"1414.667 804.333 OFFCURVE",
"1478.5 840 OFFCURVE",
"1529.5 894 CURVE SMOOTH",
"1580.5 948 OFFCURVE",
"1606 1019 OFFCURVE",
"1606 1107 CURVE SMOOTH",
"1606 1218.333 OFFCURVE",
"1564.833 1310 OFFCURVE",
"1482.5 1382 CURVE SMOOTH",
"1400.167 1454 OFFCURVE",
"1277.333 1490 OFFCURVE",
"1114 1490 CURVE SMOOTH",
"468 1490 LINE SMOOTH",
"324.667 1490 OFFCURVE",
"219.167 1461.5 OFFCURVE",
"151.5 1404.5 CURVE SMOOTH",
"83.833 1347.5 OFFCURVE",
"50 1258.667 OFFCURVE",
"50 1138 CURVE SMOOTH"
);
},
{
closed = 1;
nodes = (
"828 251 LINE",
"828 655 LINE",
"1100 655 LINE SMOOTH",
"1176.667 655 OFFCURVE",
"1237.5 634.667 OFFCURVE",
"1282.5 594 CURVE SMOOTH",
"1327.5 553.333 OFFCURVE",
"1350 502 OFFCURVE",
"1350 440 CURVE SMOOTH",
"1350 383.333 OFFCURVE",
"1329.5 337.667 OFFCURVE",
"1288.5 303 CURVE SMOOTH",
"1247.5 268.333 OFFCURVE",
"1182 251 OFFCURVE",
"1092 251 CURVE SMOOTH"
);
},
{
closed = 1;
nodes = (
"828 864 LINE",
"828 1241 LINE",
"1075 1241 LINE SMOOTH",
"1146.333 1241 OFFCURVE",
"1201.167 1224 OFFCURVE",
"1239.5 1190 CURVE SMOOTH",
"1277.833 1156 OFFCURVE",
"1297 1112 OFFCURVE",
"1297 1058 CURVE SMOOTH",
"1297 998 OFFCURVE",
"1275.333 950.667 OFFCURVE",
"1232 916 CURVE SMOOTH",
"1188.667 881.333 OFFCURVE",
"1134.333 864 OFFCURVE",
"1069 864 CURVE SMOOTH"
);
}
);
userData = {
assembly = "PUSHB[ ]	/* 6 values pushed */\01211 1 5 6 1 76 \012MPPEM[ ]	/* MeasurePixelPerEm */\012PUSHB[ ]	/* 1 value pushed */\01216 \012LT[ ]	/* LessThan */\012IF[ ]	/* If */\012NPUSHB[ ]	/* 38 values pushed */\0128 1 3 2 6 2 3 114 0 6 0 5 4 6 5 103 7 1 2 2 0 95 0 0 0 103 77 0 4 4 1 95 0 1 1 104 1 78 \012ELSE[ ]	/* Else */\012NPUSHB[ ]	/* 39 values pushed */\0128 1 3 2 6 2 3 6 128 0 6 0 5 4 6 5 103 7 1 2 2 0 95 0 0 0 103 77 0 4 4 1 95 0 1 1 104 1 78 \012EIF[ ]	/* EndIf */\012NPUSHB[ ]	/* 20 values pushed */\0120 0 44 42 38 36 35 33 29 27 0 26 0 26 33 45 51 9 12 25 \012CALL[ ]	/* CallFunction */";
};
width = 1743;
}
);
leftKerningGroup = B;
note = uni0181;
rightKerningGroup = B;
unicode = 0181;
},
{
glyphname = Btopbar;
lastChange = "2024-07-06 19:36:07 +0000";
layers = (
{
layerId = "22A22D76-E3A3-44AE-B323-C96AF5899C07";
paths = (
{
closed = 1;
nodes = (
"135 169 LINE SMOOTH",
"135 60 OFFCURVE",
"195 0 OFFCURVE",
"304 0 CURVE SMOOTH",
"692 0 LINE SMOOTH",
"808.667 0 OFFCURVE",
"909.5 20 OFFCURVE",
"994.5 60 CURVE SMOOTH",
"1079.5 100 OFFCURVE",
"1145.167 155.667 OFFCURVE",
"1191.5 227 CURVE SMOOTH",
"1237.833 298.333 OFFCURVE",
"1261 380.667 OFFCURVE",
"1261 474 CURVE SMOOTH",
"1261 567.333 OFFCURVE",
"1237.833 648.5 OFFCURVE",
"1191.5 717.5 CURVE SMOOTH",
"1145.167 786.5 OFFCURVE",
"1079.5 840 OFFCURVE",
"994.5 878 CURVE SMOOTH",
"909.5 916 OFFCURVE",
"808.667 935 OFFCURVE",
"692 935 CURVE SMOOTH",
"440 935 LINE",
"440 1237 LINE",
"949 1237 LINE SMOOTH",
"1058 1237 OFFCURVE",
"1118 1282 OFFCURVE",
"1118 1364 CURVE SMOOTH",
"1118 1446 OFFCURVE",
"1058 1490 OFFCURVE",
"949 1490 CURVE SMOOTH",
"304 1490 LINE SMOOTH",
"195 1490 OFFCURVE",
"135 1430 OFFCURVE",
"135 1321 CURVE SMOOTH"
);
},
{
closed = 1;
nodes = (
"440 248 LINE",
"440 691 LINE",
"692 691 LINE SMOOTH",
"777.333 691 OFFCURVE",
"842.833 670.167 OFFCURVE",
"888.5 628.5 CURVE SMOOTH",
"934.167 586.833 OFFCURVE",
"957 536.333 OFFCURVE",
"957 477 CURVE SMOOTH",
"957 415 OFFCURVE",
"934.167 361.167 OFFCURVE",
"888.5 315.5 CURVE SMOOTH",
"842.833 269.833 OFFCURVE",
"777.333 247.333 OFFCURVE",
"692 248 CURVE SMOOTH"
);
}
);
userData = {
assembly = "NPUSHB[ ]	/* 46 values pushed */\0120 2 0 5 4 2 5 103 0 1 1 0 95 0 0 0 103 77 0 4 4 3 95 6 1 3 3 104 3 78 0 0 23 21 17 15 0 14 0 13 33 17 17 7 12 25 \012CALL[ ]	/* CallFunction */";
};
width = 1342;
}
);
note = uni0182;
unicode = 0182;
},
{
glyphname = C;
lastChange = "2024-07-06 19:36:07 +0000";
layers = (
{
layerId = "22A22D76-E3A3-44AE-B323-C96AF5899C07";
paths = (
{
closed = 1;
nodes = (
"911.333 -20 OFFCURVE",
"1019.833 5 OFFCURVE",
"1111.5 55 CURVE SMOOTH",
"1203.167 105 OFFCURVE",
"1276 170.167 OFFCURVE",
"1330 250.5 CURVE SMOOTH",
"1357 290 OFFCURVE",
"1378 332 OFFCURVE",
"1395 374 CURVE SMOOTH",
"1425 456 OFFCURVE",
"1363 510 OFFCURVE",
"1261 510 CURVE SMOOTH",
"1164 510 OFFCURVE",
"1123 462 OFFCURVE",
"1066 380 CURVE SMOOTH",
"1050 357 OFFCURVE",
"1030 337 OFFCURVE",
"1007.5 319.5 CURVE SMOOTH",
"947.833 273.833 OFFCURVE",
"875.667 251 OFFCURVE",
"791 251 CURVE SMOOTH",
"676.333 251 OFFCURVE",
"583.167 292.833 OFFCURVE",
"511.5 376.5 CURVE SMOOTH",
"439.833 460.167 OFFCURVE",
"404 582.667 OFFCURVE",
"404 744 CURVE SMOOTH",
"404 902 OFFCURVE",
"439.667 1024 OFFCURVE",
"511 1110 CURVE SMOOTH",
"582.333 1196 OFFCURVE",
"676 1239 OFFCURVE",
"792 1239 CURVE SMOOTH",
"877.333 1239 OFFCURVE",
"949.5 1216.167 OFFCURVE",
"1008.5 1170.5 CURVE SMOOTH",
"1039 1147 OFFCURVE",
"1063 1119 OFFCURVE",
"1081 1087 CURVE SMOOTH",
"1119 1018 OFFCURVE",
"1163 981 OFFCURVE",
"1260 981 CURVE SMOOTH",
"1273 981 LINE SMOOTH",
"1368 981 OFFCURVE",
"1425 1058 OFFCURVE",
"1374 1170 CURVE SMOOTH",
"1358 1204 OFFCURVE",
"1339 1237 OFFCURVE",
"1317 1266.5 CURVE SMOOTH",
"1258.333 1345.5 OFFCURVE",
"1183.333 1405.833 OFFCURVE",
"1092 1447.5 CURVE SMOOTH",
"1000.667 1489.167 OFFCURVE",
"898.667 1510 OFFCURVE",
"786 1510 CURVE SMOOTH",
"655.333 1510 OFFCURVE",
"537.667 1480 OFFCURVE",
"433 1420 CURVE SMOOTH",
"328.333 1360 OFFCURVE",
"245.667 1272.833 OFFCURVE",
"185 1158.5 CURVE SMOOTH",
"124.333 1044.167 OFFCURVE",
"94 906 OFFCURVE",
"94 744 CURVE SMOOTH",
"94 582.667 OFFCURVE",
"124.167 445 OFFCURVE",
"184.5 331 CURVE SMOOTH",
"244.833 217 OFFCURVE",
"327 130 OFFCURVE",
"431 70 CURVE SMOOTH",
"535 10 OFFCURVE",
"653.333 -20 OFFCURVE",
"786 -20 CURVE SMOOTH"
);
}
);
userData = {
assembly = "NPUSHB[ ]	/* 56 values pushed */\0120 2 3 5 3 2 5 128 0 5 4 3 5 4 126 0 3 3 1 97 0 1 1 109 77 0 4 4 0 97 6 1 0 0 110 0 78 1 0 26 25 23 21 17 15 13 12 9 7 0 29 1 29 7 12 22 \012CALL[ ]	/* CallFunction */";
};
width = 1515;
}
);
leftKerningGroup = C;
note = C;
rightKerningGroup = C;
unicode = 0043;
},
{
glyphname = Chook;
lastChange = "2024-07-06 19:36:07 +0000";
layers = (
{
layerId = "22A22D76-E3A3-44AE-B323-C96AF5899C07";
paths = (
{
closed = 1;
nodes = (
"911.333 -20 OFFCURVE",
"1019.833 5 OFFCURVE",
"1111.5 55 CURVE SMOOTH",
"1203.167 105 OFFCURVE",
"1276 170.167 OFFCURVE",
"1330 250.5 CURVE SMOOTH",
"1357 290 OFFCURVE",
"1378 332 OFFCURVE",
"1395 374 CURVE SMOOTH",
"1425 456 OFFCURVE",
"1363 510 OFFCURVE",
"1261 510 CURVE SMOOTH",
"1164 510 OFFCURVE",
"1123 462 OFFCURVE",
"1066 380 CURVE SMOOTH",
"1050 357 OFFCURVE",
"1030 337 OFFCURVE",
"1007.5 319.5 CURVE SMOOTH",
"947.833 273.833 OFFCURVE",
"875.667 251 OFFCURVE",
"791 251 CURVE SMOOTH",
"676.333 251 OFFCURVE",
"583.167 292.833 OFFCURVE",
"511.5 376.5 CURVE SMOOTH",
"439.833 460.167 OFFCURVE",
"404 582.667 OFFCURVE",
"404 744 CURVE SMOOTH",
"404 902 OFFCURVE",
"439.667 1024 OFFCURVE",
"511 1110 CURVE SMOOTH",
"582.333 1196 OFFCURVE",
"676 1239 OFFCURVE",
"792 1239 CURVE SMOOTH",
"877.333 1239 OFFCURVE",
"949.5 1216.167 OFFCURVE",
"1008.5 1170.5 CURVE SMOOTH",
"1039 1147 OFFCURVE",
"1063 1119 OFFCURVE",
"1081 1087 CURVE SMOOTH",
"1119 1018 OFFCURVE",
"1163 981 OFFCURVE",
"1260 981 CURVE SMOOTH",
"1273 981 LINE SMOOTH",
"1373 981 OFFCURVE",
"1427 1041 OFFCURVE",
"1427 1150 CURVE SMOOTH",
"1427 1377 LINE SMOOTH",
"1427 1409 OFFCURVE",
"1437.333 1432 OFFCURVE",
"1458 1446 CURVE SMOOTH",
"1478.667 1460 OFFCURVE",
"1512.667 1467 OFFCURVE",
"1560 1467 CURVE SMOOTH",
"1574 1467 OFFCURVE",
"1588.333 1466.333 OFFCURVE",
"1603 1465 CURVE SMOOTH",
"1632 1462 OFFCURVE",
"1649 1499 OFFCURVE",
"1649 1568 CURVE SMOOTH",
"1649 1639 OFFCURVE",
"1494 1693 OFFCURVE",
"1494 1693 CURVE SMOOTH",
"1273.333 1693 OFFCURVE",
"1153.667 1604 OFFCURVE",
"1135 1426 CURVE",
"1033.667 1482 OFFCURVE",
"917.333 1510 OFFCURVE",
"786 1510 CURVE SMOOTH",
"655.333 1510 OFFCURVE",
"537.667 1480 OFFCURVE",
"433 1420 CURVE SMOOTH",
"328.333 1360 OFFCURVE",
"245.667 1272.833 OFFCURVE",
"185 1158.5 CURVE SMOOTH",
"124.333 1044.167 OFFCURVE",
"94 906 OFFCURVE",
"94 744 CURVE SMOOTH",
"94 582.667 OFFCURVE",
"124.167 445 OFFCURVE",
"184.5 331 CURVE SMOOTH",
"244.833 217 OFFCURVE",
"327 130 OFFCURVE",
"431 70 CURVE SMOOTH",
"535 10 OFFCURVE",
"653.333 -20 OFFCURVE",
"786 -20 CURVE SMOOTH"
);
}
);
userData = {
assembly = "NPUSHB[ ]	/* 79 values pushed */\01214 1 1 2 15 10 2 5 3 2 76 0 4 5 7 5 4 7 128 0 7 6 5 7 6 126 0 2 0 3 5 2 3 105 0 5 5 1 97 0 1 1 109 77 0 6 6 0 97 8 1 0 0 110 0 78 1 0 36 35 33 31 27 25 23 22 19 17 13 11 9 7 0 39 1 39 9 12 22 \012CALL[ ]	/* CallFunction */";
};
width = 1515;
}
);
leftKerningGroup = C;
note = uni0187;
rightKerningGroup = C;
unicode = 0187;
},
{
glyphname = Cstroke;
lastChange = "2024-07-06 19:36:07 +0000";
layers = (
{
layerId = "22A22D76-E3A3-44AE-B323-C96AF5899C07";
paths = (
{
closed = 1;
nodes = (
"531 -190 OFFCURVE",
"575 -146 OFFCURVE",
"606 -51 CURVE SMOOTH",
"622 -3 LINE",
"674.667 -14.333 OFFCURVE",
"729.333 -20 OFFCURVE",
"786 -20 CURVE SMOOTH",
"911.333 -20 OFFCURVE",
"1019.833 5 OFFCURVE",
"1111.5 55 CURVE SMOOTH",
"1203.167 105 OFFCURVE",
"1276 170.167 OFFCURVE",
"1330 250.5 CURVE SMOOTH",
"1357 290 OFFCURVE",
"1378 332 OFFCURVE",
"1395 374 CURVE SMOOTH",
"1425 456 OFFCURVE",
"1363 510 OFFCURVE",
"1261 510 CURVE SMOOTH",
"1164 510 OFFCURVE",
"1123 462 OFFCURVE",
"1066 380 CURVE SMOOTH",
"1050 357 OFFCURVE",
"1030 337 OFFCURVE",
"1007.5 319.5 CURVE SMOOTH",
"947.833 273.833 OFFCURVE",
"875.667 251 OFFCURVE",
"791 251 CURVE SMOOTH",
"762.333 251 OFFCURVE",
"734.667 253.667 OFFCURVE",
"708 259 CURVE",
"1006 1172 LINE",
"1037 1149 OFFCURVE",
"1062 1120 OFFCURVE",
"1081 1088 CURVE SMOOTH",
"1119 1018 OFFCURVE",
"1163 981 OFFCURVE",
"1260 981 CURVE SMOOTH",
"1273 981 LINE SMOOTH",
"1368 981 OFFCURVE",
"1425 1058 OFFCURVE",
"1374 1170 CURVE SMOOTH",
"1358 1204 OFFCURVE",
"1339 1236 OFFCURVE",
"1317.5 1265.5 CURVE SMOOTH",
"1259.167 1344.5 OFFCURVE",
"1185.333 1404.667 OFFCURVE",
"1096 1446 CURVE",
"1134 1562 LINE SMOOTH",
"1157 1633 OFFCURVE",
"1134 1678 OFFCURVE",
"1077 1678 CURVE SMOOTH",
"1014 1678 OFFCURVE",
"968 1634 OFFCURVE",
"937 1540 CURVE SMOOTH",
"924 1499 LINE",
"879.333 1506.333 OFFCURVE",
"833.333 1510 OFFCURVE",
"786 1510 CURVE SMOOTH",
"655.333 1510 OFFCURVE",
"537.667 1480 OFFCURVE",
"433 1420 CURVE SMOOTH",
"328.333 1360 OFFCURVE",
"245.667 1272.833 OFFCURVE",
"185 1158.5 CURVE SMOOTH",
"124.333 1044.167 OFFCURVE",
"94 906 OFFCURVE",
"94 744 CURVE SMOOTH",
"94 576 OFFCURVE",
"126.667 433.833 OFFCURVE",
"192 317.5 CURVE SMOOTH",
"257.333 201.167 OFFCURVE",
"344.667 114.333 OFFCURVE",
"454 57 CURVE",
"414 -67 LINE SMOOTH",
"390 -143 OFFCURVE",
"411 -190 OFFCURVE",
"468 -190 CURVE SMOOTH"
);
},
{
closed = 1;
nodes = (
"501.333 380 OFFCURVE",
"466.5 434 OFFCURVE",
"441.5 502 CURVE SMOOTH",
"416.5 570 OFFCURVE",
"404 650.667 OFFCURVE",
"404 744 CURVE SMOOTH",
"404 902 OFFCURVE",
"439.667 1024 OFFCURVE",
"511 1110 CURVE SMOOTH",
"582.333 1196 OFFCURVE",
"676 1239 OFFCURVE",
"792 1239 CURVE SMOOTH",
"808 1239 OFFCURVE",
"823.667 1238 OFFCURVE",
"839 1236 CURVE",
"546 340 LINE"
);
}
);
userData = {
assembly = "NPUSHB[ ]	/* 80 values pushed */\01213 10 2 7 0 19 1 2 7 20 1 3 4 32 1 2 5 3 4 76 0 4 2 3 2 4 3 128 8 1 6 5 6 134 0 1 0 2 4 1 2 103 0 7 7 0 97 0 0 0 109 77 0 3 3 5 97 0 5 5 110 5 78 0 0 38 36 0 33 0 33 35 18 36 20 18 39 9 12 28 \012CALL[ ]	/* CallFunction */";
};
width = 1515;
}
);
leftKerningGroup = C;
note = uni023B;
rightKerningGroup = C;
unicode = 023B;
},
{
glyphname = D;
lastChange = "2024-07-06 19:36:07 +0000";
layers = (
{
layerId = "22A22D76-E3A3-44AE-B323-C96AF5899C07";
paths = (
{
closed = 1;
nodes = (
"809.667 0 OFFCURVE",
"939.333 29.833 OFFCURVE",
"1048 89.5 CURVE SMOOTH",
"1156.667 149.167 OFFCURVE",
"1240 234.667 OFFCURVE",
"1298 346 CURVE SMOOTH",
"1356 457.333 OFFCURVE",
"1385 590.667 OFFCURVE",
"1385 746 CURVE SMOOTH",
"1385 900.667 OFFCURVE",
"1356 1033.5 OFFCURVE",
"1298 1144.5 CURVE SMOOTH",
"1240 1255.5 OFFCURVE",
"1157.167 1340.833 OFFCURVE",
"1049.5 1400.5 CURVE SMOOTH",
"941.833 1460.167 OFFCURVE",
"813.333 1490 OFFCURVE",
"664 1490 CURVE SMOOTH",
"304 1490 LINE SMOOTH",
"195 1490 OFFCURVE",
"135 1430 OFFCURVE",
"135 1321 CURVE SMOOTH",
"135 169 LINE SMOOTH",
"135 60 OFFCURVE",
"195 0 OFFCURVE",
"304 0 CURVE SMOOTH",
"659 0 LINE SMOOTH"
);
},
{
closed = 1;
nodes = (
"440 263 LINE",
"440 1227 LINE",
"646 1227 LINE SMOOTH",
"788.667 1227 OFFCURVE",
"896.833 1188.5 OFFCURVE",
"970.5 1111.5 CURVE SMOOTH",
"1044.167 1034.5 OFFCURVE",
"1081 912.667 OFFCURVE",
"1081 746 CURVE SMOOTH",
"1081 578.667 OFFCURVE",
"1044 456.333 OFFCURVE",
"970 379 CURVE SMOOTH",
"896 301.667 OFFCURVE",
"787.333 263 OFFCURVE",
"644 263 CURVE SMOOTH"
);
}
);
userData = {
assembly = "NPUSHB[ ]	/* 37 values pushed */\0120 3 3 1 95 0 1 1 103 77 0 2 2 0 95 4 1 0 0 104 0 78 1 0 19 17 13 11 4 2 0 10 1 10 5 12 22 \012CALL[ ]	/* CallFunction */";
};
width = 1479;
}
);
leftKerningGroup = B;
note = D;
rightKerningGroup = Oopen;
unicode = 0044;
},
{
glyphname = Dhook;
lastChange = "2024-07-06 19:36:07 +0000";
layers = (
{
layerId = "22A22D76-E3A3-44AE-B323-C96AF5899C07";
paths = (
{
closed = 1;
nodes = (
"50 1091 OFFCURVE",
"98 1065 OFFCURVE",
"187 1065 CURVE SMOOTH",
"275 1065 OFFCURVE",
"323 1083 OFFCURVE",
"323 1114 CURVE SMOOTH",
"323 1196 OFFCURVE",
"368.667 1237 OFFCURVE",
"460 1237 CURVE SMOOTH",
"523 1237 LINE",
"523 169 LINE SMOOTH",
"523 60 OFFCURVE",
"583 0 OFFCURVE",
"692 0 CURVE SMOOTH",
"1047 0 LINE SMOOTH",
"1197.667 0 OFFCURVE",
"1327.333 29.833 OFFCURVE",
"1436 89.5 CURVE SMOOTH",
"1544.667 149.167 OFFCURVE",
"1628 234.667 OFFCURVE",
"1686 346 CURVE SMOOTH",
"1744 457.333 OFFCURVE",
"1773 590.667 OFFCURVE",
"1773 746 CURVE SMOOTH",
"1773 900.667 OFFCURVE",
"1744 1033.5 OFFCURVE",
"1686 1144.5 CURVE SMOOTH",
"1628 1255.5 OFFCURVE",
"1545.167 1340.833 OFFCURVE",
"1437.5 1400.5 CURVE SMOOTH",
"1329.833 1460.167 OFFCURVE",
"1201.333 1490 OFFCURVE",
"1052 1490 CURVE SMOOTH",
"468 1490 LINE SMOOTH",
"324.667 1490 OFFCURVE",
"219.167 1461.5 OFFCURVE",
"151.5 1404.5 CURVE SMOOTH",
"83.833 1347.5 OFFCURVE",
"50 1258.667 OFFCURVE",
"50 1138 CURVE SMOOTH"
);
},
{
closed = 1;
nodes = (
"828 263 LINE",
"828 1227 LINE",
"1034 1227 LINE SMOOTH",
"1176.667 1227 OFFCURVE",
"1284.833 1188.5 OFFCURVE",
"1358.5 1111.5 CURVE SMOOTH",
"1432.167 1034.5 OFFCURVE",
"1469 912.667 OFFCURVE",
"1469 746 CURVE SMOOTH",
"1469 578.667 OFFCURVE",
"1432 456.333 OFFCURVE",
"1358 379 CURVE SMOOTH",
"1284 301.667 OFFCURVE",
"1175.333 263 OFFCURVE",
"1032 263 CURVE SMOOTH"
);
}
);
userData = {
assembly = "MPPEM[ ]	/* MeasurePixelPerEm */\012PUSHB[ ]	/* 1 value pushed */\01216 \012LT[ ]	/* LessThan */\012IF[ ]	/* If */\012NPUSHB[ ]	/* 30 values pushed */\0126 1 3 2 4 2 3 114 5 1 2 2 0 95 0 0 0 103 77 0 4 4 1 95 0 1 1 104 1 78 \012ELSE[ ]	/* Else */\012MPPEM[ ]	/* MeasurePixelPerEm */\012PUSHB[ ]	/* 1 value pushed */\01248 \012LT[ ]	/* LessThan */\012IF[ ]	/* If */\012NPUSHB[ ]	/* 31 values pushed */\0126 1 3 2 4 2 3 4 128 5 1 2 2 0 95 0 0 0 103 77 0 4 4 1 95 0 1 1 104 1 78 \012ELSE[ ]	/* Else */\012NPUSHB[ ]	/* 37 values pushed */\0120 2 0 5 5 2 114 6 1 3 5 4 5 3 4 128 0 5 5 0 96 0 0 0 103 77 0 4 4 1 95 0 1 1 104 1 78 \012EIF[ ]	/* EndIf */\012EIF[ ]	/* EndIf */\012NPUSHB[ ]	/* 16 values pushed */\0120 0 28 26 22 20 0 19 0 19 33 38 51 7 12 25 \012CALL[ ]	/* CallFunction */";
};
width = 1867;
}
);
leftKerningGroup = B;
note = uni018A;
rightKerningGroup = Oopen;
unicode = 018A;
},
{
glyphname = Dtopbar;
lastChange = "2024-07-06 19:36:07 +0000";
layers = (
{
layerId = "22A22D76-E3A3-44AE-B323-C96AF5899C07";
paths = (
{
closed = 1;
nodes = (
"1078 0 LINE SMOOTH",
"1187 0 OFFCURVE",
"1247 60 OFFCURVE",
"1247 169 CURVE SMOOTH",
"1247 1314 LINE SMOOTH",
"1247 1423 OFFCURVE",
"1187 1483 OFFCURVE",
"1078 1483 CURVE SMOOTH",
"435 1483 LINE SMOOTH",
"326 1483 OFFCURVE",
"266 1439 OFFCURVE",
"266 1357 CURVE SMOOTH",
"266 1275 OFFCURVE",
"326 1230 OFFCURVE",
"435 1230 CURVE SMOOTH",
"938 1230 LINE",
"938 937 LINE",
"691 937 LINE SMOOTH",
"574.333 937 OFFCURVE",
"473.5 917.667 OFFCURVE",
"388.5 879 CURVE SMOOTH",
"303.5 840.333 OFFCURVE",
"238 786.333 OFFCURVE",
"192 717 CURVE SMOOTH",
"146 647.667 OFFCURVE",
"123 566.667 OFFCURVE",
"123 474 CURVE SMOOTH",
"123 380.667 OFFCURVE",
"146 298.5 OFFCURVE",
"192 227.5 CURVE SMOOTH",
"238 156.5 OFFCURVE",
"303.5 100.833 OFFCURVE",
"388.5 60.5 CURVE SMOOTH",
"473.5 20.167 OFFCURVE",
"574.333 0 OFFCURVE",
"691 0 CURVE SMOOTH"
);
},
{
closed = 1;
nodes = (
"938 248 LINE",
"691 248 LINE SMOOTH",
"604.333 248 OFFCURVE",
"539.5 270.667 OFFCURVE",
"496.5 316 CURVE SMOOTH",
"453.5 361.333 OFFCURVE",
"432 415 OFFCURVE",
"432 477 CURVE SMOOTH",
"432 536.333 OFFCURVE",
"453.5 586.667 OFFCURVE",
"496.5 628 CURVE SMOOTH",
"539.5 669.333 OFFCURVE",
"604.333 690 OFFCURVE",
"691 690 CURVE SMOOTH",
"938 690 LINE"
);
}
);
userData = {
assembly = "NPUSHB[ ]	/* 44 values pushed */\0120 1 0 4 5 1 4 103 0 2 2 3 95 0 3 3 103 77 6 1 5 5 0 95 0 0 0 104 0 78 15 15 15 23 15 22 34 17 17 38 32 7 12 27 \012CALL[ ]	/* CallFunction */";
};
width = 1368;
}
);
note = uni018B;
unicode = 018B;
},
{
glyphname = E;
lastChange = "2024-07-06 19:36:07 +0000";
layers = (
{
layerId = "22A22D76-E3A3-44AE-B323-C96AF5899C07";
paths = (
{
closed = 1;
nodes = (
"135 169 LINE SMOOTH",
"135 60 OFFCURVE",
"195 0 OFFCURVE",
"304 0 CURVE SMOOTH",
"965 0 LINE SMOOTH",
"1074 0 OFFCURVE",
"1134 45 OFFCURVE",
"1134 127 CURVE SMOOTH",
"1134 209 OFFCURVE",
"1074 253 OFFCURVE",
"965 253 CURVE SMOOTH",
"440 253 LINE",
"440 628 LINE",
"911 628 LINE SMOOTH",
"1020 628 OFFCURVE",
"1080 672 OFFCURVE",
"1080 753 CURVE SMOOTH",
"1080 834 OFFCURVE",
"1020 877 OFFCURVE",
"911 877 CURVE SMOOTH",
"440 877 LINE",
"440 1237 LINE",
"963 1237 LINE SMOOTH",
"1072 1237 OFFCURVE",
"1132 1282 OFFCURVE",
"1132 1364 CURVE SMOOTH",
"1132 1446 OFFCURVE",
"1072 1490 OFFCURVE",
"963 1490 CURVE SMOOTH",
"304 1490 LINE SMOOTH",
"195 1490 OFFCURVE",
"135 1430 OFFCURVE",
"135 1321 CURVE SMOOTH"
);
}
);
userData = {
assembly = "NPUSHB[ ]	/* 44 values pushed */\0120 2 0 3 4 2 3 103 0 1 1 0 95 0 0 0 103 77 0 4 4 5 95 6 1 5 5 104 5 78 0 0 0 11 0 11 17 17 17 17 17 7 12 27 \012CALL[ ]	/* CallFunction */";
};
width = 1244;
}
);
leftKerningGroup = B;
note = E;
rightKerningGroup = AE;
unicode = 0045;
},
{
glyphname = Eopen;
lastChange = "2024-07-06 19:36:07 +0000";
layers = (
{
layerId = "22A22D76-E3A3-44AE-B323-C96AF5899C07";
paths = (
{
closed = 1;
nodes = (
"770.667 -20 OFFCURVE",
"866.833 -1.5 OFFCURVE",
"950.5 35.5 CURVE SMOOTH",
"1034.167 72.5 OFFCURVE",
"1100.167 124 OFFCURVE",
"1148.5 190 CURVE SMOOTH",
"1173 223 OFFCURVE",
"1191 259 OFFCURVE",
"1204 298 CURVE SMOOTH",
"1227 371 OFFCURVE",
"1158 418 OFFCURVE",
"1051 418 CURVE SMOOTH",
"958 418 OFFCURVE",
"930 366 OFFCURVE",
"860 300 CURVE SMOOTH",
"854 294 OFFCURVE",
"847 289 OFFCURVE",
"840 283.5 CURVE SMOOTH",
"792 249.833 OFFCURVE",
"732.667 233 OFFCURVE",
"662 233 CURVE SMOOTH",
"588.667 233 OFFCURVE",
"528.667 251.833 OFFCURVE",
"482 289.5 CURVE SMOOTH",
"435.333 327.167 OFFCURVE",
"412 376.333 OFFCURVE",
"412 437 CURVE SMOOTH",
"412 498.333 OFFCURVE",
"436.667 548.5 OFFCURVE",
"486 587.5 CURVE SMOOTH",
"535.333 626.5 OFFCURVE",
"603 646 OFFCURVE",
"689 646 CURVE SMOOTH",
"779 646 OFFCURVE",
"827 686 OFFCURVE",
"827 760 CURVE SMOOTH",
"827 833 OFFCURVE",
"778 873 OFFCURVE",
"689 873 CURVE SMOOTH",
"617 873 OFFCURVE",
"558.167 891.333 OFFCURVE",
"512.5 928 CURVE SMOOTH",
"466.833 964.667 OFFCURVE",
"444 1013 OFFCURVE",
"444 1073 CURVE SMOOTH",
"444 1130.333 OFFCURVE",
"463.833 1176.833 OFFCURVE",
"503.5 1212.5 CURVE SMOOTH",
"543.167 1248.167 OFFCURVE",
"595 1266 OFFCURVE",
"659 1266 CURVE SMOOTH",
"724.333 1266 OFFCURVE",
"780.5 1249 OFFCURVE",
"827.5 1215 CURVE SMOOTH",
"851 1198 OFFCURVE",
"869 1178 OFFCURVE",
"881 1155 CURVE SMOOTH",
"907 1104 OFFCURVE",
"942 1077 OFFCURVE",
"1036 1077 CURVE SMOOTH",
"1047 1077 LINE SMOOTH",
"1138 1077 OFFCURVE",
"1203 1153 OFFCURVE",
"1147 1260 CURVE SMOOTH",
"1139 1275 OFFCURVE",
"1130 1289 OFFCURVE",
"1120.5 1302 CURVE SMOOTH",
"1073.5 1367.333 OFFCURVE",
"1009.833 1418.333 OFFCURVE",
"929.5 1455 CURVE SMOOTH",
"849.167 1491.667 OFFCURVE",
"758.333 1510 OFFCURVE",
"657 1510 CURVE SMOOTH",
"555 1510 OFFCURVE",
"465.833 1491.333 OFFCURVE",
"389.5 1454 CURVE SMOOTH",
"313.167 1416.667 OFFCURVE",
"253.833 1366.333 OFFCURVE",
"211.5 1303 CURVE SMOOTH",
"169.167 1239.667 OFFCURVE",
"148 1169.333 OFFCURVE",
"148 1092 CURVE SMOOTH",
"148 1008 OFFCURVE",
"173.833 938.167 OFFCURVE",
"225.5 882.5 CURVE SMOOTH",
"277.167 826.833 OFFCURVE",
"344.333 791 OFFCURVE",
"427 775 CURVE",
"427 764 LINE",
"318.333 750 OFFCURVE",
"235.667 711.833 OFFCURVE",
"179 649.5 CURVE SMOOTH",
"122.333 587.167 OFFCURVE",
"94 509.667 OFFCURVE",
"94 417 CURVE SMOOTH",
"94 332.333 OFFCURVE",
"118.333 257.167 OFFCURVE",
"167 191.5 CURVE SMOOTH",
"215.667 125.833 OFFCURVE",
"282.833 74.167 OFFCURVE",
"368.5 36.5 CURVE SMOOTH",
"454.167 -1.167 OFFCURVE",
"552 -20 OFFCURVE",
"662 -20 CURVE SMOOTH"
);
}
);
userData = {
assembly = "NPUSHB[ ]	/* 75 values pushed */\0127 1 5 4 1 76 0 2 3 4 3 2 4 128 0 7 5 6 5 7 6 128 0 4 0 5 7 4 5 105 0 3 3 1 97 0 1 1 109 77 0 6 6 0 97 8 1 0 0 110 0 78 1 0 42 41 39 37 33 31 30 28 24 22 20 19 16 14 0 45 1 45 9 12 22 \012CALL[ ]	/* CallFunction */";
};
width = 1322;
}
);
note = Epsilon1;
unicode = 0190;
},
{
glyphname = Ereversed;
lastChange = "2024-07-06 19:36:07 +0000";
layers = (
{
layerId = "22A22D76-E3A3-44AE-B323-C96AF5899C07";
paths = (
{
closed = 1;
nodes = (
"1109 1321 LINE SMOOTH",
"1109 1430 OFFCURVE",
"1049 1490 OFFCURVE",
"940 1490 CURVE SMOOTH",
"279 1490 LINE SMOOTH",
"170 1490 OFFCURVE",
"110 1446 OFFCURVE",
"110 1364 CURVE SMOOTH",
"110 1282 OFFCURVE",
"170 1237 OFFCURVE",
"279 1237 CURVE SMOOTH",
"804 1237 LINE",
"804 862 LINE",
"333 862 LINE SMOOTH",
"224 862 OFFCURVE",
"164 818 OFFCURVE",
"164 738 CURVE SMOOTH",
"164 657 OFFCURVE",
"224 613 OFFCURVE",
"333 613 CURVE SMOOTH",
"804 613 LINE",
"804 253 LINE",
"281 253 LINE SMOOTH",
"172 253 OFFCURVE",
"112 209 OFFCURVE",
"112 127 CURVE SMOOTH",
"112 45 OFFCURVE",
"172 0 OFFCURVE",
"281 0 CURVE SMOOTH",
"940 0 LINE SMOOTH",
"1049 0 OFFCURVE",
"1109 60 OFFCURVE",
"1109 169 CURVE SMOOTH"
);
}
);
userData = {
assembly = "NPUSHB[ ]	/* 44 values pushed */\0120 3 0 2 1 3 2 103 0 4 4 5 95 6 1 5 5 103 77 0 1 1 0 95 0 0 0 104 0 78 0 0 0 11 0 11 17 17 17 17 17 7 12 27 \012CALL[ ]	/* CallFunction */";
};
width = 1244;
}
);
note = Eturn;
rightKerningGroup = Ereversed;
unicode = 018E;
},
{
glyphname = Estroke;
lastChange = "2024-07-06 19:36:07 +0000";
layers = (
{
layerId = "22A22D76-E3A3-44AE-B323-C96AF5899C07";
paths = (
{
closed = 1;
nodes = (
"461 -190 OFFCURVE",
"501 -145 OFFCURVE",
"529 -48 CURVE SMOOTH",
"543 0 LINE",
"965 0 LINE SMOOTH",
"1074 0 OFFCURVE",
"1134 45 OFFCURVE",
"1134 127 CURVE SMOOTH",
"1134 209 OFFCURVE",
"1074 253 OFFCURVE",
"965 253 CURVE SMOOTH",
"616 253 LINE",
"724 628 LINE",
"911 628 LINE SMOOTH",
"1020 628 OFFCURVE",
"1080 672 OFFCURVE",
"1080 753 CURVE SMOOTH",
"1080 834 OFFCURVE",
"1020 877 OFFCURVE",
"911 877 CURVE SMOOTH",
"795 877 LINE",
"899 1237 LINE",
"1016 1237 LINE SMOOTH",
"1091 1237 OFFCURVE",
"1132 1282 OFFCURVE",
"1132 1364 CURVE SMOOTH",
"1132 1446 OFFCURVE",
"1076 1490 OFFCURVE",
"972 1490 CURVE",
"999 1584 LINE SMOOTH",
"1016 1642 OFFCURVE",
"994 1678 OFFCURVE",
"944 1678 CURVE SMOOTH",
"889 1678 OFFCURVE",
"849 1633 OFFCURVE",
"821 1536 CURVE SMOOTH",
"808 1490 LINE",
"304 1490 LINE SMOOTH",
"195 1490 OFFCURVE",
"135 1430 OFFCURVE",
"135 1321 CURVE SMOOTH",
"135 169 LINE SMOOTH",
"135 60 OFFCURVE",
"195 0 OFFCURVE",
"304 0 CURVE SMOOTH",
"377 0 LINE",
"350 -95 LINE SMOOTH",
"333 -153 OFFCURVE",
"354 -190 OFFCURVE",
"405 -190 CURVE SMOOTH"
);
},
{
closed = 1;
nodes = (
"440 877 LINE",
"440 1237 LINE",
"734 1237 LINE",
"630 877 LINE"
);
},
{
closed = 1;
nodes = (
"440 253 LINE",
"440 628 LINE",
"558 628 LINE",
"450 253 LINE"
);
}
);
userData = {
assembly = "PUSHB[ ]	/* 5 values pushed */\01227 1 7 1 75 \012MPPEM[ ]	/* MeasurePixelPerEm */\012PUSHB[ ]	/* 1 value pushed */\01213 \012LT[ ]	/* LessThan */\012IF[ ]	/* If */\012NPUSHB[ ]	/* 47 values pushed */\0120 2 1 1 2 112 13 1 9 0 9 134 14 11 2 5 12 1 6 7 5 6 103 10 1 4 4 1 95 3 1 1 1 103 77 0 7 7 0 95 8 1 0 0 104 0 78 \012ELSE[ ]	/* Else */\012NPUSHB[ ]	/* 46 values pushed */\0120 2 1 2 133 13 1 9 0 9 134 14 11 2 5 12 1 6 7 5 6 103 10 1 4 4 1 95 3 1 1 1 103 77 0 7 7 0 95 8 1 0 0 104 0 78 \012EIF[ ]	/* EndIf */\012NPUSHB[ ]	/* 28 values pushed */\01220 20 0 0 26 25 20 23 20 23 22 21 0 19 0 19 17 17 17 17 17 17 17 17 17 15 12 31 \012CALL[ ]	/* CallFunction */";
};
width = 1244;
}
);
leftKerningGroup = B;
note = uni0246;
rightKerningGroup = AE;
unicode = 0246;
},
{
glyphname = Ezh;
lastChange = "2024-07-06 19:36:07 +0000";
layers = (
{
layerId = "22A22D76-E3A3-44AE-B323-C96AF5899C07";
paths = (
{
closed = 1;
nodes = (
"114 -91 OFFCURVE",
"135 -136 OFFCURVE",
"163 -178 CURVE SMOOTH",
"217.667 -260 OFFCURVE",
"291.333 -324.333 OFFCURVE",
"384 -371 CURVE SMOOTH",
"476.667 -417.667 OFFCURVE",
"581 -441 OFFCURVE",
"697 -441 CURVE SMOOTH",
"821 -441 OFFCURVE",
"930.333 -413.333 OFFCURVE",
"1025 -358 CURVE SMOOTH",
"1119.667 -302.667 OFFCURVE",
"1193.833 -226.5 OFFCURVE",
"1247.5 -129.5 CURVE SMOOTH",
"1301.167 -32.5 OFFCURVE",
"1328 78.667 OFFCURVE",
"1328 204 CURVE SMOOTH",
"1328 313.333 OFFCURVE",
"1306 410.833 OFFCURVE",
"1262 496.5 CURVE SMOOTH",
"1218 582.167 OFFCURVE",
"1156.667 651 OFFCURVE",
"1078 703 CURVE SMOOTH",
"999.333 755 OFFCURVE",
"907.667 785 OFFCURVE",
"803 793 CURVE",
"803 807 LINE",
"1200 1183 LINE SMOOTH",
"1263 1243 OFFCURVE",
"1290 1301 OFFCURVE",
"1290 1379 CURVE SMOOTH",
"1290 1451 OFFCURVE",
"1230 1490 OFFCURVE",
"1121 1490 CURVE SMOOTH",
"327 1490 LINE SMOOTH",
"218 1490 OFFCURVE",
"158 1444 OFFCURVE",
"158 1361 CURVE SMOOTH",
"158 1278 OFFCURVE",
"218 1232 OFFCURVE",
"327 1232 CURVE SMOOTH",
"908 1232 LINE",
"908 1220 LINE",
"576 904 LINE SMOOTH",
"512 843 OFFCURVE",
"487 786 OFFCURVE",
"487 708 CURVE SMOOTH",
"487 636 OFFCURVE",
"543 596 OFFCURVE",
"645 596 CURVE SMOOTH",
"752.333 596 OFFCURVE",
"840.333 560.333 OFFCURVE",
"909 489 CURVE SMOOTH",
"977.667 417.667 OFFCURVE",
"1012 320.667 OFFCURVE",
"1012 198 CURVE SMOOTH",
"1012 125.333 OFFCURVE",
"999.333 60.333 OFFCURVE",
"974 3 CURVE SMOOTH",
"948.667 -54.333 OFFCURVE",
"912.333 -99.667 OFFCURVE",
"865 -133 CURVE SMOOTH",
"817.667 -166.333 OFFCURVE",
"761 -183 OFFCURVE",
"695 -183 CURVE SMOOTH",
"611.667 -183 OFFCURVE",
"540.167 -156.5 OFFCURVE",
"480.5 -103.5 CURVE SMOOTH",
"450 -77 OFFCURVE",
"427 -45 OFFCURVE",
"411 -10 CURVE SMOOTH",
"378 64 OFFCURVE",
"336 104 OFFCURVE",
"237 104 CURVE SMOOTH",
"230 104 LINE SMOOTH",
"133 104 OFFCURVE",
"72 48 OFFCURVE",
"99 -43 CURVE SMOOTH"
);
}
);
userData = {
assembly = "NPUSHB[ ]	/* 56 values pushed */\01219 1 3 4 20 13 2 2 3 2 76 0 2 3 0 3 2 0 128 0 0 1 3 0 1 126 0 3 3 4 95 0 4 4 103 77 0 1 1 5 97 0 5 5 114 5 78 42 17 34 37 34 16 6 12 28 \012CALL[ ]	/* CallFunction */";
};
width = 1407;
}
);
note = uni01B7;
rightKerningGroup = B;
unicode = 01B7;
},
{
glyphname = Ezhreversed;
lastChange = "2024-07-06 19:36:07 +0000";
layers = (
{
layerId = "22A22D76-E3A3-44AE-B323-C96AF5899C07";
paths = (
{
closed = 1;
nodes = (
"1171 104 LINE SMOOTH",
"1072 104 OFFCURVE",
"1034 53 OFFCURVE",
"984 -36 CURVE SMOOTH",
"969 -60 OFFCURVE",
"950 -83 OFFCURVE",
"928 -103 CURVE SMOOTH",
"868.667 -156.333 OFFCURVE",
"796.667 -183 OFFCURVE",
"712 -183 CURVE SMOOTH",
"646 -183 OFFCURVE",
"589.5 -166.333 OFFCURVE",
"542.5 -133 CURVE SMOOTH",
"495.5 -99.667 OFFCURVE",
"459.333 -54.333 OFFCURVE",
"434 3 CURVE SMOOTH",
"408.667 60.333 OFFCURVE",
"396 125.333 OFFCURVE",
"396 198 CURVE SMOOTH",
"396 320.667 OFFCURVE",
"430.5 417.833 OFFCURVE",
"499.5 489.5 CURVE SMOOTH",
"568.5 561.167 OFFCURVE",
"656.333 596.667 OFFCURVE",
"763 596 CURVE SMOOTH",
"865 596 OFFCURVE",
"920 636 OFFCURVE",
"920 708 CURVE SMOOTH",
"920 787 OFFCURVE",
"894 843 OFFCURVE",
"831 904 CURVE SMOOTH",
"500 1220 LINE",
"500 1232 LINE",
"1081 1232 LINE SMOOTH",
"1190 1232 OFFCURVE",
"1250 1278 OFFCURVE",
"1250 1361 CURVE SMOOTH",
"1250 1444 OFFCURVE",
"1190 1490 OFFCURVE",
"1081 1490 CURVE SMOOTH",
"286 1490 LINE SMOOTH",
"177 1490 OFFCURVE",
"117 1451 OFFCURVE",
"117 1379 CURVE SMOOTH",
"117 1301 OFFCURVE",
"144 1243 OFFCURVE",
"207 1183 CURVE SMOOTH",
"605 807 LINE",
"605 793 LINE",
"500.333 785 OFFCURVE",
"408.667 755 OFFCURVE",
"330 703 CURVE SMOOTH",
"251.333 651 OFFCURVE",
"189.833 582.167 OFFCURVE",
"145.5 496.5 CURVE SMOOTH",
"101.167 410.833 OFFCURVE",
"79 313.333 OFFCURVE",
"79 204 CURVE SMOOTH",
"79 78.667 OFFCURVE",
"105.833 -32.5 OFFCURVE",
"159.5 -129.5 CURVE SMOOTH",
"213.167 -226.5 OFFCURVE",
"287.5 -302.667 OFFCURVE",
"382.5 -358 CURVE SMOOTH",
"477.5 -413.333 OFFCURVE",
"586.667 -441 OFFCURVE",
"710 -441 CURVE SMOOTH",
"826.667 -441 OFFCURVE",
"931.167 -417.667 OFFCURVE",
"1023.5 -371 CURVE SMOOTH",
"1115.833 -324.333 OFFCURVE",
"1189.667 -260 OFFCURVE",
"1245 -178 CURVE SMOOTH",
"1273 -136 OFFCURVE",
"1295 -91 OFFCURVE",
"1309 -44 CURVE SMOOTH",
"1337 48 OFFCURVE",
"1276 104 OFFCURVE",
"1179 104 CURVE SMOOTH"
);
}
);
userData = {
assembly = "NPUSHB[ ]	/* 62 values pushed */\01214 1 2 1 20 12 2 3 2 2 76 0 3 2 5 2 3 5 128 6 1 5 4 2 5 4 126 0 2 2 1 95 0 1 1 103 77 0 4 4 0 97 0 0 0 114 0 78 0 0 0 32 0 32 37 35 17 26 35 7 12 27 \012CALL[ ]	/* CallFunction */";
};
width = 1408;
}
);
note = uni01B8;
unicode = 01B8;
},
{
glyphname = F;
lastChange = "2024-07-06 19:36:07 +0000";
layers = (
{
layerId = "22A22D76-E3A3-44AE-B323-C96AF5899C07";
paths = (
{
closed = 1;
nodes = (
"135 169 LINE SMOOTH",
"135 60 OFFCURVE",
"189 0 OFFCURVE",
"288 0 CURVE SMOOTH",
"387 0 OFFCURVE",
"440 60 OFFCURVE",
"440 169 CURVE SMOOTH",
"440 572 LINE",
"880 572 LINE SMOOTH",
"989 572 OFFCURVE",
"1049 616 OFFCURVE",
"1049 697 CURVE SMOOTH",
"1049 778 OFFCURVE",
"989 821 OFFCURVE",
"880 821 CURVE SMOOTH",
"440 821 LINE",
"440 1237 LINE",
"946 1237 LINE SMOOTH",
"1055 1237 OFFCURVE",
"1115 1282 OFFCURVE",
"1115 1364 CURVE SMOOTH",
"1115 1446 OFFCURVE",
"1055 1490 OFFCURVE",
"946 1490 CURVE SMOOTH",
"304 1490 LINE SMOOTH",
"195 1490 OFFCURVE",
"135 1430 OFFCURVE",
"135 1321 CURVE SMOOTH"
);
}
);
userData = {
assembly = "NPUSHB[ ]	/* 38 values pushed */\0120 2 0 3 4 2 3 103 0 1 1 0 95 0 0 0 103 77 5 1 4 4 104 4 78 0 0 0 9 0 9 17 17 17 17 6 12 26 \012CALL[ ]	/* CallFunction */";
};
width = 1202;
}
);
leftKerningGroup = B;
note = F;
rightKerningGroup = F;
unicode = 0046;
},
{
glyphname = Fhook;
lastChange = "2024-07-06 19:36:07 +0000";
layers = (
{
layerId = "22A22D76-E3A3-44AE-B323-C96AF5899C07";
paths = (
{
closed = 1;
nodes = (
"23 -434 OFFCURVE",
"49 -435 OFFCURVE",
"77 -435 CURVE SMOOTH",
"319 -435 OFFCURVE",
"440 -329.333 OFFCURVE",
"440 -118 CURVE SMOOTH",
"440 572 LINE",
"880 572 LINE SMOOTH",
"989 572 OFFCURVE",
"1049 616 OFFCURVE",
"1049 697 CURVE SMOOTH",
"1049 778 OFFCURVE",
"989 821 OFFCURVE",
"880 821 CURVE SMOOTH",
"440 821 LINE",
"440 1237 LINE",
"946 1237 LINE SMOOTH",
"1055 1237 OFFCURVE",
"1115 1282 OFFCURVE",
"1115 1364 CURVE SMOOTH",
"1115 1446 OFFCURVE",
"1055 1490 OFFCURVE",
"946 1490 CURVE SMOOTH",
"304 1490 LINE SMOOTH",
"195 1490 OFFCURVE",
"135 1430 OFFCURVE",
"135 1321 CURVE SMOOTH",
"135 -101 LINE SMOOTH",
"135 -133.667 OFFCURVE",
"126.167 -156.833 OFFCURVE",
"108.5 -170.5 CURVE SMOOTH",
"90.833 -184.167 OFFCURVE",
"58.667 -191 OFFCURVE",
"12 -191 CURVE SMOOTH",
"-2 -191 OFFCURVE",
"-17 -190 OFFCURVE",
"-32 -189 CURVE SMOOTH",
"-61 -187 OFFCURVE",
"-77 -226 OFFCURVE",
"-77 -301 CURVE SMOOTH",
"-77 -378 OFFCURVE",
"-52 -426 OFFCURVE",
"-1 -431 CURVE SMOOTH"
);
}
);
userData = {
assembly = "NPUSHB[ ]	/* 48 values pushed */\0121 1 0 4 0 1 5 0 2 76 0 3 0 4 0 3 4 103 0 2 2 1 95 0 1 1 103 77 0 0 0 5 97 0 5 5 114 5 78 34 17 17 17 19 34 6 12 28 \012CALL[ ]	/* CallFunction */";
};
width = 1202;
}
);
leftKerningGroup = Fhook;
note = uni0191;
rightKerningGroup = F;
unicode = 0191;
},
{
glyphname = G;
lastChange = "2024-07-06 19:36:07 +0000";
layers = (
{
layerId = "22A22D76-E3A3-44AE-B323-C96AF5899C07";
paths = (
{
closed = 1;
nodes = (
"919.667 -20 OFFCURVE",
"1030.333 5.167 OFFCURVE",
"1127 55.5 CURVE SMOOTH",
"1223.667 105.833 OFFCURVE",
"1299.667 177.833 OFFCURVE",
"1355 271.5 CURVE SMOOTH",
"1410.333 365.167 OFFCURVE",
"1438 477.333 OFFCURVE",
"1438 608 CURVE SMOOTH",
"1438 625 LINE SMOOTH",
"1438 734 OFFCURVE",
"1378 794 OFFCURVE",
"1269 794 CURVE SMOOTH",
"987 794 LINE SMOOTH",
"878 794 OFFCURVE",
"818 753 OFFCURVE",
"818 678 CURVE SMOOTH",
"818 603 OFFCURVE",
"878 562 OFFCURVE",
"987 562 CURVE SMOOTH",
"1142 562 LINE",
"1139.333 466.667 OFFCURVE",
"1107.667 391 OFFCURVE",
"1047 335 CURVE SMOOTH",
"986.333 279 OFFCURVE",
"903 251 OFFCURVE",
"797 251 CURVE SMOOTH",
"677.667 251 OFFCURVE",
"582.333 294 OFFCURVE",
"511 380 CURVE SMOOTH",
"439.667 466 OFFCURVE",
"404 588 OFFCURVE",
"404 746 CURVE SMOOTH",
"404 904 OFFCURVE",
"440.167 1025.667 OFFCURVE",
"512.5 1111 CURVE SMOOTH",
"584.833 1196.333 OFFCURVE",
"678.333 1239 OFFCURVE",
"793 1239 CURVE SMOOTH",
"875.667 1239 OFFCURVE",
"944.333 1218.667 OFFCURVE",
"999 1178 CURVE SMOOTH",
"1027 1157 OFFCURVE",
"1051 1132 OFFCURVE",
"1070 1104 CURVE SMOOTH",
"1109 1042 OFFCURVE",
"1156 1010 OFFCURVE",
"1250 1010 CURVE SMOOTH",
"1268 1010 LINE SMOOTH",
"1362 1010 OFFCURVE",
"1420 1090 OFFCURVE",
"1360 1201 CURVE SMOOTH",
"1347 1225 OFFCURVE",
"1332 1248 OFFCURVE",
"1315 1269.5 CURVE SMOOTH",
"1257 1344.5 OFFCURVE",
"1182.667 1403.333 OFFCURVE",
"1092 1446 CURVE SMOOTH",
"1001.333 1488.667 OFFCURVE",
"900 1510 OFFCURVE",
"788 1510 CURVE SMOOTH",
"657.333 1510 OFFCURVE",
"539.5 1479.667 OFFCURVE",
"434.5 1419 CURVE SMOOTH",
"329.5 1358.333 OFFCURVE",
"246.5 1270.667 OFFCURVE",
"185.5 1156 CURVE SMOOTH",
"124.5 1041.333 OFFCURVE",
"94 903.667 OFFCURVE",
"94 743 CURVE SMOOTH",
"94 585.667 OFFCURVE",
"123.333 450 OFFCURVE",
"182 336 CURVE SMOOTH",
"240.667 222 OFFCURVE",
"322.667 134.167 OFFCURVE",
"428 72.5 CURVE SMOOTH",
"533.333 10.833 OFFCURVE",
"655.667 -20 OFFCURVE",
"795 -20 CURVE SMOOTH"
);
}
);
userData = {
assembly = "NPUSHB[ ]	/* 59 values pushed */\0120 2 3 6 3 2 6 128 0 6 0 5 4 6 5 103 0 3 3 1 97 0 1 1 109 77 0 4 4 0 97 7 1 0 0 110 0 78 1 0 28 27 26 25 23 21 17 15 13 12 9 7 0 32 1 32 8 12 22 \012CALL[ ]	/* CallFunction */";
};
width = 1537;
}
);
leftKerningGroup = C;
note = G;
rightKerningGroup = G;
unicode = 0047;
},
{
glyphname = Ghook;
lastChange = "2024-07-06 19:36:07 +0000";
layers = (
{
layerId = "22A22D76-E3A3-44AE-B323-C96AF5899C07";
paths = (
{
closed = 1;
nodes = (
"919.667 -20 OFFCURVE",
"1030.333 5.167 OFFCURVE",
"1127 55.5 CURVE SMOOTH",
"1223.667 105.833 OFFCURVE",
"1299.667 177.833 OFFCURVE",
"1355 271.5 CURVE SMOOTH",
"1410.333 365.167 OFFCURVE",
"1438 477.333 OFFCURVE",
"1438 608 CURVE SMOOTH",
"1438 625 LINE SMOOTH",
"1438 734 OFFCURVE",
"1378 794 OFFCURVE",
"1269 794 CURVE SMOOTH",
"987 794 LINE SMOOTH",
"878 794 OFFCURVE",
"818 753 OFFCURVE",
"818 678 CURVE SMOOTH",
"818 603 OFFCURVE",
"878 562 OFFCURVE",
"987 562 CURVE SMOOTH",
"1142 562 LINE",
"1139.333 466.667 OFFCURVE",
"1107.667 391 OFFCURVE",
"1047 335 CURVE SMOOTH",
"986.333 279 OFFCURVE",
"903 251 OFFCURVE",
"797 251 CURVE SMOOTH",
"677.667 251 OFFCURVE",
"582.333 294 OFFCURVE",
"511 380 CURVE SMOOTH",
"439.667 466 OFFCURVE",
"404 588 OFFCURVE",
"404 746 CURVE SMOOTH",
"404 904 OFFCURVE",
"440.167 1025.667 OFFCURVE",
"512.5 1111 CURVE SMOOTH",
"584.833 1196.333 OFFCURVE",
"678.333 1239 OFFCURVE",
"793 1239 CURVE SMOOTH",
"875.667 1239 OFFCURVE",
"944.333 1218.667 OFFCURVE",
"999 1178 CURVE SMOOTH",
"1027 1157 OFFCURVE",
"1051 1132 OFFCURVE",
"1070 1104 CURVE SMOOTH",
"1109 1042 OFFCURVE",
"1156 1010 OFFCURVE",
"1250 1010 CURVE SMOOTH",
"1268 1010 LINE SMOOTH",
"1368 1010 OFFCURVE",
"1423 1070 OFFCURVE",
"1423 1179 CURVE SMOOTH",
"1423 1368 LINE SMOOTH",
"1423 1400 OFFCURVE",
"1433.333 1423 OFFCURVE",
"1454 1437 CURVE SMOOTH",
"1474.667 1451 OFFCURVE",
"1508.333 1458 OFFCURVE",
"1555 1458 CURVE SMOOTH",
"1569.667 1458 OFFCURVE",
"1584.333 1457.333 OFFCURVE",
"1599 1456 CURVE SMOOTH",
"1628 1453 OFFCURVE",
"1645 1490 OFFCURVE",
"1645 1559 CURVE SMOOTH",
"1645 1630 OFFCURVE",
"1489 1684 OFFCURVE",
"1489 1684 CURVE SMOOTH",
"1272.333 1684 OFFCURVE",
"1153.333 1598 OFFCURVE",
"1132 1426 CURVE",
"1082.667 1452.667 OFFCURVE",
"1029 1473.333 OFFCURVE",
"971 1488 CURVE SMOOTH",
"913 1502.667 OFFCURVE",
"852 1510 OFFCURVE",
"788 1510 CURVE SMOOTH",
"657.333 1510 OFFCURVE",
"539.5 1479.667 OFFCURVE",
"434.5 1419 CURVE SMOOTH",
"329.5 1358.333 OFFCURVE",
"246.5 1270.667 OFFCURVE",
"185.5 1156 CURVE SMOOTH",
"124.5 1041.333 OFFCURVE",
"94 903.667 OFFCURVE",
"94 743 CURVE SMOOTH",
"94 585.667 OFFCURVE",
"123.333 450 OFFCURVE",
"182 336 CURVE SMOOTH",
"240.667 222 OFFCURVE",
"322.667 134.167 OFFCURVE",
"428 72.5 CURVE SMOOTH",
"533.333 10.833 OFFCURVE",
"655.667 -20 OFFCURVE",
"795 -20 CURVE SMOOTH"
);
}
);
userData = {
assembly = "NPUSHB[ ]	/* 82 values pushed */\01215 1 1 2 16 11 2 5 3 2 76 0 4 5 8 5 4 8 128 0 2 0 3 5 2 3 105 0 8 0 7 6 8 7 103 0 5 5 1 97 0 1 1 109 77 0 6 6 0 97 9 1 0 0 110 0 78 1 0 39 38 37 36 34 32 28 26 24 23 20 18 14 12 9 7 0 43 1 43 10 12 22 \012CALL[ ]	/* CallFunction */";
};
width = 1537;
}
);
leftKerningGroup = C;
note = uni0193;
rightKerningGroup = G;
unicode = 0193;
},
{
glyphname = Glottalstop;
lastChange = "2024-07-06 19:36:07 +0000";
layers = (
{
layerId = "22A22D76-E3A3-44AE-B323-C96AF5899C07";
paths = (
{
closed = 1;
nodes = (
"474 509 OFFCURVE",
"424 449 OFFCURVE",
"424 340 CURVE SMOOTH",
"424 169 LINE SMOOTH",
"424 60 OFFCURVE",
"479 0 OFFCURVE",
"581 0 CURVE SMOOTH",
"682 0 OFFCURVE",
"737 60 OFFCURVE",
"737 169 CURVE SMOOTH",
"737 280 LINE",
"852.333 314 OFFCURVE",
"940 378.333 OFFCURVE",
"1000 473 CURVE SMOOTH",
"1060 567.667 OFFCURVE",
"1090 677.333 OFFCURVE",
"1090 802 CURVE SMOOTH",
"1090 959 LINE SMOOTH",
"1090 1061.667 OFFCURVE",
"1069.667 1154.667 OFFCURVE",
"1029 1238 CURVE SMOOTH",
"988.333 1321.333 OFFCURVE",
"928.667 1387.5 OFFCURVE",
"850 1436.5 CURVE SMOOTH",
"771.333 1485.5 OFFCURVE",
"675.333 1510 OFFCURVE",
"562 1510 CURVE SMOOTH",
"471.333 1510 OFFCURVE",
"390 1491.667 OFFCURVE",
"318 1455 CURVE SMOOTH",
"246 1418.333 OFFCURVE",
"189.167 1366.833 OFFCURVE",
"147.5 1300.5 CURVE SMOOTH",
"126 1266 OFFCURVE",
"110 1229 OFFCURVE",
"100 1190 CURVE SMOOTH",
"80 1115 OFFCURVE",
"141 1069 OFFCURVE",
"236 1069 CURVE SMOOTH",
"334 1069 OFFCURVE",
"419 1191 OFFCURVE",
"428 1201 CURVE SMOOTH",
"428 1201 OFFCURVE",
"428 1201 OFFCURVE",
"428.5 1201.5 CURVE SMOOTH",
"460.167 1237.167 OFFCURVE",
"506.667 1255 OFFCURVE",
"568 1255 CURVE SMOOTH",
"628 1255 OFFCURVE",
"672.833 1239.167 OFFCURVE",
"702.5 1207.5 CURVE SMOOTH",
"732.167 1175.833 OFFCURVE",
"751.833 1137.167 OFFCURVE",
"761.5 1091.5 CURVE SMOOTH",
"771.167 1045.833 OFFCURVE",
"776 1001.667 OFFCURVE",
"776 959 CURVE SMOOTH",
"776 802 LINE SMOOTH",
"776 747.333 OFFCURVE",
"770.333 697.833 OFFCURVE",
"759 653.5 CURVE SMOOTH",
"747.667 609.167 OFFCURVE",
"727 574 OFFCURVE",
"697 548 CURVE SMOOTH",
"667 522 OFFCURVE",
"624 509 OFFCURVE",
"568 509 CURVE SMOOTH"
);
}
);
userData = {
assembly = "NPUSHB[ ]	/* 53 values pushed */\01226 1 4 0 1 76 0 2 1 0 1 2 0 128 0 1 1 3 97 0 3 3 109 77 5 1 0 0 4 95 0 4 4 104 4 78 2 0 28 27 19 17 14 13 11 9 0 29 2 29 6 12 22 \012CALL[ ]	/* CallFunction */";
};
width = 1175;
}
);
note = uni0241;
unicode = 0241;
},
{
glyphname = Yogh;
lastChange = "2024-07-06 19:36:07 +0000";
layers = (
{
layerId = "22A22D76-E3A3-44AE-B323-C96AF5899C07";
paths = (
{
closed = 1;
nodes = (
"600 420 OFFCURVE",
"743 478 OFFCURVE",
"857 542 CURVE",
"883 526.667 OFFCURVE",
"901.5 503.833 OFFCURVE",
"912.5 473.5 CURVE SMOOTH",
"923.5 443.167 OFFCURVE",
"929 403.667 OFFCURVE",
"929 355 CURVE SMOOTH",
"929 207 OFFCURVE",
"868 89.5 OFFCURVE",
"746 2.5 CURVE SMOOTH",
"654 -63 OFFCURVE",
"534 -116 OFFCURVE",
"387 -156 CURVE SMOOTH",
"287 -184 OFFCURVE",
"237 -232 OFFCURVE",
"237 -314 CURVE SMOOTH",
"237 -391 OFFCURVE",
"306 -428 OFFCURVE",
"421 -403 CURVE SMOOTH",
"545 -376 OFFCURVE",
"657 -339 OFFCURVE",
"759.5 -294.5 CURVE SMOOTH",
"910.5 -228.167 OFFCURVE",
"1028.333 -141.833 OFFCURVE",
"1113 -35.5 CURVE SMOOTH",
"1197.667 70.833 OFFCURVE",
"1240 197.333 OFFCURVE",
"1240 344 CURVE SMOOTH",
"1240 424.667 OFFCURVE",
"1223.5 493.833 OFFCURVE",
"1190.5 551.5 CURVE SMOOTH",
"1157.5 609.167 OFFCURVE",
"1111.667 654 OFFCURVE",
"1053 686 CURVE",
"1163 795.333 OFFCURVE",
"1218 924 OFFCURVE",
"1218 1072 CURVE SMOOTH",
"1218 1218 OFFCURVE",
"1168.333 1327.5 OFFCURVE",
"1069 1400.5 CURVE SMOOTH",
"969.667 1473.5 OFFCURVE",
"837.667 1510 OFFCURVE",
"673 1510 CURVE SMOOTH",
"566.333 1510 OFFCURVE",
"472 1492.667 OFFCURVE",
"390 1458 CURVE SMOOTH",
"308 1423.333 OFFCURVE",
"243.833 1374.833 OFFCURVE",
"197.5 1312.5 CURVE SMOOTH",
"174 1281 OFFCURVE",
"156 1247 OFFCURVE",
"145 1210 CURVE SMOOTH",
"123 1140 OFFCURVE",
"193 1096 OFFCURVE",
"301 1096 CURVE SMOOTH",
"395 1096 OFFCURVE",
"421 1152 OFFCURVE",
"496 1213 CURVE SMOOTH",
"498 1214 OFFCURVE",
"499 1215 OFFCURVE",
"500.5 1216 CURVE SMOOTH",
"542.833 1246 OFFCURVE",
"600.333 1261 OFFCURVE",
"673 1261 CURVE SMOOTH",
"831.667 1261 OFFCURVE",
"911 1184.333 OFFCURVE",
"911 1031 CURVE SMOOTH",
"911 956.333 OFFCURVE",
"889.333 892.333 OFFCURVE",
"846 839 CURVE SMOOTH",
"802.667 785.667 OFFCURVE",
"731.667 736.5 OFFCURVE",
"633 691.5 CURVE SMOOTH",
"564 660 OFFCURVE",
"480 628 OFFCURVE",
"379 595 CURVE SMOOTH",
"283 564 OFFCURVE",
"237 514 OFFCURVE",
"237 436 CURVE SMOOTH",
"237 365 OFFCURVE",
"311 336 OFFCURVE",
"428 370 CURVE SMOOTH"
);
}
);
userData = {
assembly = "NPUSHB[ ]	/* 31 values pushed */\01234 28 27 20 1 0 6 1 73 0 1 0 1 134 0 0 0 2 97 0 2 2 109 0 78 35 18 38 3 12 25 \012CALL[ ]	/* CallFunction */";
};
width = 1367;
}
);
note = uni021C;
unicode = 021C;
},
{
glyphname = H;
lastChange = "2024-07-06 19:36:07 +0000";
layers = (
{
layerId = "22A22D76-E3A3-44AE-B323-C96AF5899C07";
paths = (
{
closed = 1;
nodes = (
"135 169 LINE SMOOTH",
"135 60 OFFCURVE",
"189 0 OFFCURVE",
"288 0 CURVE SMOOTH",
"387 0 OFFCURVE",
"440 60 OFFCURVE",
"440 169 CURVE SMOOTH",
"440 635 LINE",
"1089 635 LINE",
"1089 169 LINE SMOOTH",
"1089 60 OFFCURVE",
"1143 0 OFFCURVE",
"1242 0 CURVE SMOOTH",
"1341 0 OFFCURVE",
"1395 60 OFFCURVE",
"1395 169 CURVE SMOOTH",
"1395 1321 LINE SMOOTH",
"1395 1430 OFFCURVE",
"1341 1490 OFFCURVE",
"1242 1490 CURVE SMOOTH",
"1143 1490 OFFCURVE",
"1089 1430 OFFCURVE",
"1089 1321 CURVE SMOOTH",
"1089 888 LINE",
"440 888 LINE",
"440 1321 LINE SMOOTH",
"440 1430 OFFCURVE",
"386 1490 OFFCURVE",
"288 1490 CURVE SMOOTH",
"189 1490 OFFCURVE",
"135 1430 OFFCURVE",
"135 1321 CURVE SMOOTH"
);
}
);
userData = {
assembly = "NPUSHB[ ]	/* 36 values pushed */\0120 1 0 4 3 1 4 103 2 1 0 0 103 77 6 5 2 3 3 104 3 78 0 0 0 11 0 11 17 17 17 17 17 7 12 27 \012CALL[ ]	/* CallFunction */";
};
width = 1530;
}
);
leftKerningGroup = B;
note = H;
rightKerningGroup = Ereversed;
unicode = 0048;
},
{
glyphname = Hbar;
lastChange = "2024-07-06 19:36:07 +0000";
layers = (
{
layerId = "22A22D76-E3A3-44AE-B323-C96AF5899C07";
paths = (
{
closed = 1;
nodes = (
"1577 1196 OFFCURVE",
"1535 1226 OFFCURVE",
"1458 1226 CURVE",
"1458 1358 LINE SMOOTH",
"1458 1443 OFFCURVE",
"1404 1490 OFFCURVE",
"1305 1490 CURVE SMOOTH",
"1206 1490 OFFCURVE",
"1152 1430 OFFCURVE",
"1152 1321 CURVE SMOOTH",
"1152 1226 LINE",
"503 1226 LINE",
"503 1358 LINE SMOOTH",
"503 1443 OFFCURVE",
"449 1490 OFFCURVE",
"350 1490 CURVE SMOOTH",
"251 1490 OFFCURVE",
"197 1430 OFFCURVE",
"197 1321 CURVE SMOOTH",
"197 1226 LINE",
"136 1226 LINE SMOOTH",
"97 1226 OFFCURVE",
"75 1195 OFFCURVE",
"75 1139 CURVE SMOOTH",
"75 1083 OFFCURVE",
"118 1052 OFFCURVE",
"197 1052 CURVE",
"197 169 LINE SMOOTH",
"197 60 OFFCURVE",
"251 0 OFFCURVE",
"350 0 CURVE SMOOTH",
"449 0 OFFCURVE",
"503 60 OFFCURVE",
"503 169 CURVE SMOOTH",
"503 635 LINE",
"1152 635 LINE",
"1152 169 LINE SMOOTH",
"1152 60 OFFCURVE",
"1206 0 OFFCURVE",
"1305 0 CURVE SMOOTH",
"1404 0 OFFCURVE",
"1458 60 OFFCURVE",
"1458 169 CURVE SMOOTH",
"1458 1052 LINE",
"1518 1052 LINE SMOOTH",
"1556 1052 OFFCURVE",
"1577 1083 OFFCURVE",
"1577 1139 CURVE SMOOTH"
);
},
{
closed = 1;
nodes = (
"1152 1052 LINE",
"1152 888 LINE",
"503 888 LINE",
"503 1052 LINE"
);
}
);
userData = {
assembly = "NPUSHB[ ]	/* 56 values pushed */\01212 9 7 3 5 10 4 2 0 11 5 0 103 0 11 0 2 1 11 2 103 8 1 6 6 103 77 3 1 1 1 104 1 78 0 0 23 22 21 20 0 19 0 19 17 17 17 17 17 17 17 17 17 13 12 31 \012CALL[ ]	/* CallFunction */";
};
width = 1653;
}
);
leftKerningGroup = B;
note = Hbar;
rightKerningGroup = Ereversed;
unicode = 0126;
},
{
glyphname = Hwair;
lastChange = "2024-07-06 19:36:07 +0000";
layers = (
{
layerId = "22A22D76-E3A3-44AE-B323-C96AF5899C07";
paths = (
{
closed = 1;
nodes = (
"1799 -20 OFFCURVE",
"1930 25 OFFCURVE",
"2028 115 CURVE SMOOTH",
"2126 205 OFFCURVE",
"2174.667 333 OFFCURVE",
"2174 499 CURVE",
"2174 921 LINE SMOOTH",
"2174 1030 OFFCURVE",
"2120 1090 OFFCURVE",
"2022 1090 CURVE SMOOTH",
"1923 1090 OFFCURVE",
"1869 1030 OFFCURVE",
"1869 921 CURVE SMOOTH",
"1869 499 LINE SMOOTH",
"1869 413 OFFCURVE",
"1848.5 348.167 OFFCURVE",
"1807.5 304.5 CURVE SMOOTH",
"1766.5 260.833 OFFCURVE",
"1709 239 OFFCURVE",
"1635 239 CURVE SMOOTH",
"1560.333 239 OFFCURVE",
"1501.833 260.833 OFFCURVE",
"1459.5 304.5 CURVE SMOOTH",
"1417.167 348.167 OFFCURVE",
"1396 413 OFFCURVE",
"1396 499 CURVE SMOOTH",
"1396 1321 LINE SMOOTH",
"1396 1430 OFFCURVE",
"1342 1490 OFFCURVE",
"1243 1490 CURVE SMOOTH",
"1144 1490 OFFCURVE",
"1089 1430 OFFCURVE",
"1089 1321 CURVE SMOOTH",
"1089 872 LINE",
"440 872 LINE",
"440 1321 LINE SMOOTH",
"440 1430 OFFCURVE",
"386 1490 OFFCURVE",
"288 1490 CURVE SMOOTH",
"189 1490 OFFCURVE",
"135 1430 OFFCURVE",
"135 1321 CURVE SMOOTH",
"135 169 LINE SMOOTH",
"135 60 OFFCURVE",
"189 0 OFFCURVE",
"288 0 CURVE SMOOTH",
"387 0 OFFCURVE",
"440 60 OFFCURVE",
"440 169 CURVE SMOOTH",
"440 619 LINE",
"1089 619 LINE",
"1089 499 LINE SMOOTH",
"1089 334.333 OFFCURVE",
"1138.333 206.667 OFFCURVE",
"1237 116 CURVE SMOOTH",
"1335.667 25.333 OFFCURVE",
"1468.333 -20 OFFCURVE",
"1635 -20 CURVE SMOOTH"
);
}
);
userData = {
assembly = "MPPEM[ ]	/* MeasurePixelPerEm */\012PUSHB[ ]	/* 1 value pushed */\01225 \012LT[ ]	/* LessThan */\012IF[ ]	/* If */\012NPUSHB[ ]	/* 32 values pushed */\0120 4 0 1 6 4 1 103 5 1 3 3 103 77 0 7 7 106 77 0 6 6 0 98 2 8 2 0 0 110 0 78 \012ELSE[ ]	/* Else */\012MPPEM[ ]	/* MeasurePixelPerEm */\012PUSHB[ ]	/* 1 value pushed */\01236 \012LT[ ]	/* LessThan */\012IF[ ]	/* If */\012NPUSHB[ ]	/* 36 values pushed */\0120 4 0 1 6 4 1 103 5 1 3 3 103 77 0 7 7 106 77 0 2 2 104 77 0 6 6 0 98 8 1 0 0 110 0 78 \012ELSE[ ]	/* Else */\012NPUSHB[ ]	/* 39 values pushed */\0120 7 3 4 3 7 4 128 0 4 0 1 6 4 1 103 5 1 3 3 103 77 0 2 2 104 77 0 6 6 0 98 8 1 0 0 110 0 78 \012EIF[ ]	/* EndIf */\012EIF[ ]	/* EndIf */\012NPUSHB[ ]	/* 23 values pushed */\0121 0 22 21 18 16 13 12 11 10 9 8 7 6 5 4 0 25 1 25 9 12 22 \012CALL[ ]	/* CallFunction */";
};
width = 2302;
}
);
leftKerningGroup = B;
note = uni01F6;
rightKerningGroup = Hwair;
unicode = 01F6;
},
{
glyphname = I;
lastChange = "2024-07-06 19:36:07 +0000";
layers = (
{
layerId = "22A22D76-E3A3-44AE-B323-C96AF5899C07";
paths = (
{
closed = 1;
nodes = (
"440 1321 LINE SMOOTH",
"440 1430 OFFCURVE",
"386 1490 OFFCURVE",
"288 1490 CURVE SMOOTH",
"189 1490 OFFCURVE",
"135 1430 OFFCURVE",
"135 1321 CURVE SMOOTH",
"135 169 LINE SMOOTH",
"135 60 OFFCURVE",
"189 0 OFFCURVE",
"288 0 CURVE SMOOTH",
"387 0 OFFCURVE",
"440 60 OFFCURVE",
"440 169 CURVE SMOOTH"
);
}
);
userData = {
assembly = "NPUSHB[ ]	/* 22 values pushed */\0122 1 1 1 103 77 0 0 0 104 0 78 0 0 0 3 0 3 17 3 12 23 \012CALL[ ]	/* CallFunction */";
};
width = 575;
}
);
leftKerningGroup = B;
note = I;
rightKerningGroup = Ereversed;
unicode = 0049;
},
{
glyphname = J;
lastChange = "2024-07-06 19:36:07 +0000";
layers = (
{
layerId = "22A22D76-E3A3-44AE-B323-C96AF5899C07";
paths = (
{
closed = 1;
nodes = (
"721 -20 OFFCURVE",
"842 20.5 OFFCURVE",
"930 101.5 CURVE SMOOTH",
"1018 182.5 OFFCURVE",
"1062 298.333 OFFCURVE",
"1062 449 CURVE SMOOTH",
"1062 1321 LINE SMOOTH",
"1062 1430 OFFCURVE",
"1009 1490 OFFCURVE",
"911 1490 CURVE SMOOTH",
"813 1490 OFFCURVE",
"760 1430 OFFCURVE",
"760 1321 CURVE SMOOTH",
"760 444 LINE SMOOTH",
"760 372 OFFCURVE",
"742.667 317.667 OFFCURVE",
"708 281 CURVE SMOOTH",
"673.333 244.333 OFFCURVE",
"626.333 226 OFFCURVE",
"567 226 CURVE SMOOTH",
"507.667 226 OFFCURVE",
"460.5 244.333 OFFCURVE",
"425.5 281 CURVE SMOOTH",
"390.5 317.667 OFFCURVE",
"373 371.667 OFFCURVE",
"373 443 CURVE SMOOTH",
"373 503 OFFCURVE",
"319 535 OFFCURVE",
"221 535 CURVE SMOOTH",
"122 535 OFFCURVE",
"68 504 OFFCURVE",
"68 448 CURVE SMOOTH",
"68 298 OFFCURVE",
"112.5 182.5 OFFCURVE",
"201.5 101.5 CURVE SMOOTH",
"290.5 20.5 OFFCURVE",
"412.333 -20 OFFCURVE",
"567 -20 CURVE SMOOTH"
);
}
);
userData = {
assembly = "NPUSHB[ ]	/* 40 values pushed */\0120 1 3 2 3 1 2 128 0 3 3 103 77 0 2 2 0 98 4 1 0 0 110 0 78 1 0 14 13 10 8 5 4 0 17 1 17 5 12 22 \012CALL[ ]	/* CallFunction */";
};
width = 1197;
}
);
leftKerningGroup = J;
note = J;
rightKerningGroup = J;
unicode = 004A;
},
{
glyphname = K;
lastChange = "2024-07-06 19:36:07 +0000";
layers = (
{
layerId = "22A22D76-E3A3-44AE-B323-C96AF5899C07";
paths = (
{
closed = 1;
nodes = (
"135 169 LINE SMOOTH",
"135 60 OFFCURVE",
"189 0 OFFCURVE",
"288 0 CURVE SMOOTH",
"387 0 OFFCURVE",
"440 60 OFFCURVE",
"440 169 CURVE SMOOTH",
"440 426 LINE",
"638 644 LINE",
"989 110 LINE SMOOTH",
"1039 33 OFFCURVE",
"1101 0 OFFCURVE",
"1192 0 CURVE SMOOTH",
"1242 0 LINE SMOOTH",
"1343 0 OFFCURVE",
"1361 90 OFFCURVE",
"1283 205 CURVE SMOOTH",
"849 845 LINE",
"1227 1283 LINE SMOOTH",
"1323 1394 OFFCURVE",
"1291 1490 OFFCURVE",
"1159 1490 CURVE SMOOTH",
"1071 1490 OFFCURVE",
"1009 1461 OFFCURVE",
"952 1394 CURVE SMOOTH",
"668 1062 LINE SMOOTH",
"618.667 1002 OFFCURVE",
"575.667 947 OFFCURVE",
"539 897 CURVE SMOOTH",
"502.333 847 OFFCURVE",
"467.667 796 OFFCURVE",
"435 744 CURVE",
"440 1083 LINE",
"440 1321 LINE SMOOTH",
"440 1430 OFFCURVE",
"386 1490 OFFCURVE",
"288 1490 CURVE SMOOTH",
"189 1490 OFFCURVE",
"135 1430 OFFCURVE",
"135 1321 CURVE SMOOTH"
);
}
);
userData = {
assembly = "NPUSHB[ ]	/* 35 values pushed */\01214 13 10 4 4 2 0 1 76 1 1 0 0 103 77 4 3 2 2 2 104 2 78 0 0 0 15 0 15 18 22 17 5 12 25 \012CALL[ ]	/* CallFunction */";
};
width = 1473;
}
);
leftKerningGroup = B;
note = K;
rightKerningGroup = K;
unicode = 004B;
},
{
glyphname = Khook;
lastChange = "2024-07-06 19:36:07 +0000";
layers = (
{
layerId = "22A22D76-E3A3-44AE-B323-C96AF5899C07";
paths = (
{
closed = 1;
nodes = (
"135 169 LINE SMOOTH",
"135 60 OFFCURVE",
"189 0 OFFCURVE",
"288 0 CURVE SMOOTH",
"387 0 OFFCURVE",
"440 60 OFFCURVE",
"440 169 CURVE SMOOTH",
"440 390 LINE",
"623 587 LINE",
"989 102 LINE SMOOTH",
"1043 30 OFFCURVE",
"1104 0 OFFCURVE",
"1194 0 CURVE SMOOTH",
"1250 0 LINE SMOOTH",
"1350 0 OFFCURVE",
"1361 93 OFFCURVE",
"1275 206 CURVE SMOOTH",
"818 804 LINE",
"1173 1174 LINE SMOOTH",
"1207 1208.667 OFFCURVE",
"1238.833 1231.167 OFFCURVE",
"1268.5 1241.5 CURVE SMOOTH",
"1285 1247 OFFCURVE",
"1303 1248 OFFCURVE",
"1322 1244 CURVE SMOOTH",
"1359 1237 OFFCURVE",
"1390 1261 OFFCURVE",
"1424 1334 CURVE SMOOTH",
"1456 1404 OFFCURVE",
"1423 1485 OFFCURVE",
"1313 1504 CURVE SMOOTH",
"1276 1510 OFFCURVE",
"1239 1510 OFFCURVE",
"1202 1505 CURVE SMOOTH",
"1112.667 1492.333 OFFCURVE",
"1030.333 1446.667 OFFCURVE",
"955 1368 CURVE SMOOTH",
"459 842 LINE",
"440 842 LINE",
"440 1321 LINE SMOOTH",
"440 1430 OFFCURVE",
"386 1490 OFFCURVE",
"288 1490 CURVE SMOOTH",
"189 1490 OFFCURVE",
"135 1430 OFFCURVE",
"135 1321 CURVE SMOOTH"
);
}
);
userData = {
assembly = "NPUSHB[ ]	/* 35 values pushed */\01217 16 13 9 8 3 6 1 0 1 76 0 0 0 103 77 3 2 2 1 1 104 1 78 0 0 0 18 0 18 28 17 4 12 24 \012CALL[ ]	/* CallFunction */";
};
width = 1487;
}
);
leftKerningGroup = B;
note = uni0198;
rightKerningGroup = K;
unicode = 0198;
},
{
glyphname = L;
lastChange = "2024-07-06 19:36:07 +0000";
layers = (
{
layerId = "22A22D76-E3A3-44AE-B323-C96AF5899C07";
paths = (
{
closed = 1;
nodes = (
"135 169 LINE SMOOTH",
"135 60 OFFCURVE",
"195 0 OFFCURVE",
"304 0 CURVE SMOOTH",
"914 0 LINE SMOOTH",
"1023 0 OFFCURVE",
"1083 45 OFFCURVE",
"1083 127 CURVE SMOOTH",
"1083 209 OFFCURVE",
"1023 253 OFFCURVE",
"914 253 CURVE SMOOTH",
"440 253 LINE",
"440 1321 LINE SMOOTH",
"440 1430 OFFCURVE",
"386 1490 OFFCURVE",
"288 1490 CURVE SMOOTH",
"189 1490 OFFCURVE",
"135 1430 OFFCURVE",
"135 1321 CURVE SMOOTH"
);
}
);
userData = {
assembly = "NPUSHB[ ]	/* 28 values pushed */\0120 0 0 103 77 0 1 1 2 96 3 1 2 2 104 2 78 0 0 0 5 0 5 17 17 4 12 24 \012CALL[ ]	/* CallFunction */";
};
width = 1158;
}
);
leftKerningGroup = B;
note = L;
rightKerningGroup = L;
unicode = 004C;
},
{
glyphname = M;
lastChange = "2024-07-06 19:36:07 +0000";
layers = (
{
layerId = "22A22D76-E3A3-44AE-B323-C96AF5899C07";
paths = (
{
closed = 1;
nodes = (
"135 169 LINE SMOOTH",
"135 60 OFFCURVE",
"189 0 OFFCURVE",
"287 0 CURVE SMOOTH",
"385 0 OFFCURVE",
"438 60 OFFCURVE",
"438 169 CURVE SMOOTH",
"438 703 LINE SMOOTH",
"438 740.333 OFFCURVE",
"437.333 787.5 OFFCURVE",
"436 844.5 CURVE SMOOTH",
"434.667 901.5 OFFCURVE",
"433.167 962.5 OFFCURVE",
"431.5 1027.5 CURVE SMOOTH",
"427 1215 LINE",
"444.333 1148.333 OFFCURVE",
"462.333 1082.167 OFFCURVE",
"481 1016.5 CURVE SMOOTH",
"499.667 950.833 OFFCURVE",
"517.167 890.667 OFFCURVE",
"533.5 836 CURVE SMOOTH",
"549.833 781.333 OFFCURVE",
"563.667 737 OFFCURVE",
"575 703 CURVE SMOOTH",
"777 136 LINE SMOOTH",
"810 44 OFFCURVE",
"868 0 OFFCURVE",
"955 0 CURVE SMOOTH",
"1042 0 OFFCURVE",
"1099 44 OFFCURVE",
"1131 136 CURVE SMOOTH",
"1330 703 LINE SMOOTH",
"1342 738.333 OFFCURVE",
"1356.333 784.167 OFFCURVE",
"1373 840.5 CURVE SMOOTH",
"1389.667 896.833 OFFCURVE",
"1407.167 958.667 OFFCURVE",
"1425.5 1026 CURVE SMOOTH",
"1443.833 1093.333 OFFCURVE",
"1461.333 1160.333 OFFCURVE",
"1478 1227 CURVE",
"1477.333 1164.333 OFFCURVE",
"1476.167 1099.667 OFFCURVE",
"1474.5 1033 CURVE SMOOTH",
"1469.5 846 LINE SMOOTH",
"1467.833 788 OFFCURVE",
"1467 740.333 OFFCURVE",
"1467 703 CURVE SMOOTH",
"1467 169 LINE SMOOTH",
"1467 60 OFFCURVE",
"1521 0 OFFCURVE",
"1621 0 CURVE SMOOTH",
"1720 0 OFFCURVE",
"1774 60 OFFCURVE",
"1774 169 CURVE SMOOTH",
"1774 1321 LINE SMOOTH",
"1774 1430 OFFCURVE",
"1714 1490 OFFCURVE",
"1605 1490 CURVE SMOOTH",
"1449 1490 LINE SMOOTH",
"1351 1490 OFFCURVE",
"1288 1446 OFFCURVE",
"1256 1353 CURVE SMOOTH",
"1066 806 LINE SMOOTH",
"1056 774 OFFCURVE",
"1044.667 732.667 OFFCURVE",
"1032 682 CURVE SMOOTH",
"1019.333 631.333 OFFCURVE",
"1006.333 576.833 OFFCURVE",
"993 518.5 CURVE SMOOTH",
"979.667 460.167 OFFCURVE",
"967.333 404.333 OFFCURVE",
"956 351 CURVE",
"944.667 405 OFFCURVE",
"932.167 461.167 OFFCURVE",
"918.5 519.5 CURVE SMOOTH",
"904.833 577.833 OFFCURVE",
"891.667 632.333 OFFCURVE",
"879 683 CURVE SMOOTH",
"866.333 733.667 OFFCURVE",
"855 774.667 OFFCURVE",
"845 806 CURVE SMOOTH",
"651 1354 LINE SMOOTH",
"618 1446 OFFCURVE",
"557 1490 OFFCURVE",
"459 1490 CURVE SMOOTH",
"304 1490 LINE SMOOTH",
"195 1490 OFFCURVE",
"135 1430 OFFCURVE",
"135 1321 CURVE SMOOTH"
);
}
);
userData = {
assembly = "NPUSHB[ ]	/* 36 values pushed */\01231 20 7 3 2 0 1 76 1 1 0 0 103 77 5 4 3 3 2 2 104 2 78 0 0 0 36 0 36 26 17 26 17 6 12 26 \012CALL[ ]	/* CallFunction */";
};
width = 1908;
}
);
leftKerningGroup = B;
note = M;
rightKerningGroup = Ereversed;
unicode = 004D;
},
{
glyphname = Mturned;
lastChange = "2024-07-06 19:36:07 +0000";
layers = (
{
layerId = "22A22D76-E3A3-44AE-B323-C96AF5899C07";
paths = (
{
closed = 1;
nodes = (
"904 94 OFFCURVE",
"946.5 48.333 OFFCURVE",
"1001.5 21 CURVE SMOOTH",
"1056.5 -6.333 OFFCURVE",
"1120.667 -20 OFFCURVE",
"1194 -20 CURVE SMOOTH",
"1262 -20 OFFCURVE",
"1321.833 -7.667 OFFCURVE",
"1373.5 17 CURVE SMOOTH",
"1425.167 41.667 OFFCURVE",
"1468.667 75.667 OFFCURVE",
"1504 119 CURVE",
"1511 60 LINE SMOOTH",
"1515 20 OFFCURVE",
"1564 0 OFFCURVE",
"1653 0 CURVE SMOOTH",
"1741 0 OFFCURVE",
"1788 60 OFFCURVE",
"1788 169 CURVE SMOOTH",
"1788 1321 LINE SMOOTH",
"1788 1430 OFFCURVE",
"1735 1490 OFFCURVE",
"1639 1490 CURVE SMOOTH",
"1542 1490 OFFCURVE",
"1489 1430 OFFCURVE",
"1489 1321 CURVE SMOOTH",
"1489 335 LINE",
"1471.667 301 OFFCURVE",
"1446.167 273.5 OFFCURVE",
"1412.5 252.5 CURVE SMOOTH",
"1378.833 231.5 OFFCURVE",
"1334.667 221 OFFCURVE",
"1280 221 CURVE SMOOTH",
"1233.333 221 OFFCURVE",
"1195.167 236.667 OFFCURVE",
"1165.5 268 CURVE SMOOTH",
"1135.833 299.333 OFFCURVE",
"1121 352 OFFCURVE",
"1121 426 CURVE SMOOTH",
"1121 1321 LINE SMOOTH",
"1121 1430 OFFCURVE",
"1069 1490 OFFCURVE",
"973 1490 CURVE SMOOTH",
"877 1490 OFFCURVE",
"825 1430 OFFCURVE",
"825 1321 CURVE SMOOTH",
"825 426 LINE SMOOTH",
"825 396 OFFCURVE",
"826.333 367.667 OFFCURVE",
"829 341 CURVE",
"812.333 306.333 OFFCURVE",
"787.167 277.667 OFFCURVE",
"753.5 255 CURVE SMOOTH",
"719.833 232.333 OFFCURVE",
"674 221 OFFCURVE",
"616 221 CURVE SMOOTH",
"569.333 221 OFFCURVE",
"531.333 236.667 OFFCURVE",
"502 268 CURVE SMOOTH",
"472.667 299.333 OFFCURVE",
"458 352 OFFCURVE",
"458 426 CURVE SMOOTH",
"458 1321 LINE SMOOTH",
"458 1430 OFFCURVE",
"406 1490 OFFCURVE",
"310 1490 CURVE SMOOTH",
"214 1490 OFFCURVE",
"162 1430 OFFCURVE",
"162 1321 CURVE SMOOTH",
"162 426 LINE SMOOTH",
"162 262.667 OFFCURVE",
"193 147.5 OFFCURVE",
"255 80.5 CURVE SMOOTH",
"317 13.5 OFFCURVE",
"408.667 -20 OFFCURVE",
"530 -20 CURVE SMOOTH",
"610 -20 OFFCURVE",
"678.5 -4.333 OFFCURVE",
"735.5 27 CURVE SMOOTH",
"792.5 58.333 OFFCURVE",
"838.667 102 OFFCURVE",
"874 158 CURVE"
);
}
);
userData = {
assembly = "MPPEM[ ]	/* MeasurePixelPerEm */\012PUSHB[ ]	/* 1 value pushed */\01225 \012LT[ ]	/* LessThan */\012IF[ ]	/* If */\012NPUSHB[ ]	/* 10 values pushed */\01226 1 2 1 31 1 0 2 2 76 \012ELSE[ ]	/* Else */\012NPUSHB[ ]	/* 10 values pushed */\01226 1 2 1 31 1 6 2 2 76 \012EIF[ ]	/* EndIf */\012MPPEM[ ]	/* MeasurePixelPerEm */\012PUSHB[ ]	/* 1 value pushed */\01225 \012LT[ ]	/* LessThan */\012IF[ ]	/* If */\012NPUSHB[ ]	/* 21 values pushed */\0125 3 2 1 1 103 77 4 1 2 2 0 98 7 6 2 0 0 110 0 78 \012ELSE[ ]	/* Else */\012NPUSHB[ ]	/* 25 values pushed */\0125 3 2 1 1 103 77 0 6 6 104 77 4 1 2 2 0 98 7 1 0 0 110 0 78 \012EIF[ ]	/* EndIf */\012NPUSHB[ ]	/* 11 values pushed */\01235 17 19 35 21 35 19 34 8 12 30 \012CALL[ ]	/* CallFunction */";
};
width = 1947;
}
);
note = mcapturn;
unicode = 019C;
},
{
glyphname = N;
lastChange = "2024-07-06 19:36:07 +0000";
layers = (
{
layerId = "22A22D76-E3A3-44AE-B323-C96AF5899C07";
paths = (
{
closed = 1;
nodes = (
"135 169 LINE SMOOTH",
"135 60 OFFCURVE",
"190 0 OFFCURVE",
"291 0 CURVE SMOOTH",
"392 0 OFFCURVE",
"447 60 OFFCURVE",
"447 169 CURVE SMOOTH",
"447 685 LINE SMOOTH",
"447 729 OFFCURVE",
"445 788.833 OFFCURVE",
"441 864.5 CURVE SMOOTH",
"427 1113 LINE",
"457.667 1051 OFFCURVE",
"485.167 996.167 OFFCURVE",
"509.5 948.5 CURVE SMOOTH",
"533.833 900.833 OFFCURVE",
"557.667 856 OFFCURVE",
"581 814 CURVE SMOOTH",
"604.333 772 OFFCURVE",
"629.667 728.667 OFFCURVE",
"657 684 CURVE SMOOTH",
"1015 112 LINE SMOOTH",
"1064 33 OFFCURVE",
"1125 0 OFFCURVE",
"1217 0 CURVE SMOOTH",
"1257 0 LINE SMOOTH",
"1366 0 OFFCURVE",
"1426 60 OFFCURVE",
"1426 169 CURVE SMOOTH",
"1426 1321 LINE SMOOTH",
"1426 1430 OFFCURVE",
"1371 1490 OFFCURVE",
"1270 1490 CURVE SMOOTH",
"1169 1490 OFFCURVE",
"1114 1430 OFFCURVE",
"1114 1321 CURVE SMOOTH",
"1114 775 LINE SMOOTH",
"1114 726.333 OFFCURVE",
"1115.833 665.167 OFFCURVE",
"1119.5 591.5 CURVE SMOOTH",
"1123.167 517.833 OFFCURVE",
"1127.667 444.333 OFFCURVE",
"1133 371 CURVE",
"1100.333 449 OFFCURVE",
"1068.333 517.167 OFFCURVE",
"1037 575.5 CURVE SMOOTH",
"1005.667 633.833 OFFCURVE",
"975.333 687.333 OFFCURVE",
"946 736 CURVE SMOOTH",
"545 1378 LINE SMOOTH",
"496 1457 OFFCURVE",
"434 1490 OFFCURVE",
"342 1490 CURVE SMOOTH",
"304 1490 LINE SMOOTH",
"195 1490 OFFCURVE",
"135 1430 OFFCURVE",
"135 1321 CURVE SMOOTH"
);
}
);
userData = {
assembly = "NPUSHB[ ]	/* 33 values pushed */\01218 6 2 2 0 1 76 1 1 0 0 103 77 4 3 2 2 2 104 2 78 0 0 0 22 0 22 17 24 17 5 12 25 \012CALL[ ]	/* CallFunction */";
};
width = 1561;
}
);
leftKerningGroup = B;
note = N;
rightKerningGroup = Ereversed;
unicode = 004E;
},
{
glyphname = Eng;
lastChange = "2024-07-06 19:36:07 +0000";
layers = (
{
layerId = "22A22D76-E3A3-44AE-B323-C96AF5899C07";
paths = (
{
closed = 1;
nodes = (
"1014 -434 OFFCURVE",
"1040 -435 OFFCURVE",
"1068 -435 CURVE SMOOTH",
"1310 -435 OFFCURVE",
"1431 -329.333 OFFCURVE",
"1431 -118 CURVE SMOOTH",
"1431 128 LINE",
"1426 128 LINE",
"1426 1321 LINE SMOOTH",
"1426 1430 OFFCURVE",
"1371 1490 OFFCURVE",
"1270 1490 CURVE SMOOTH",
"1169 1490 OFFCURVE",
"1114 1430 OFFCURVE",
"1114 1321 CURVE SMOOTH",
"1114 775 LINE SMOOTH",
"1114 726.333 OFFCURVE",
"1115.833 665.167 OFFCURVE",
"1119.5 591.5 CURVE SMOOTH",
"1123.167 517.833 OFFCURVE",
"1127.667 444.333 OFFCURVE",
"1133 371 CURVE",
"1100.333 449 OFFCURVE",
"1068.333 517.167 OFFCURVE",
"1037 575.5 CURVE SMOOTH",
"1005.667 633.833 OFFCURVE",
"975.333 687.333 OFFCURVE",
"946 736 CURVE SMOOTH",
"545 1378 LINE SMOOTH",
"496 1457 OFFCURVE",
"434 1490 OFFCURVE",
"342 1490 CURVE SMOOTH",
"304 1490 LINE SMOOTH",
"195 1490 OFFCURVE",
"135 1430 OFFCURVE",
"135 1321 CURVE SMOOTH",
"135 169 LINE SMOOTH",
"135 60 OFFCURVE",
"190 0 OFFCURVE",
"291 0 CURVE SMOOTH",
"392 0 OFFCURVE",
"447 60 OFFCURVE",
"447 169 CURVE SMOOTH",
"447 685 LINE SMOOTH",
"447 729 OFFCURVE",
"445 788.833 OFFCURVE",
"441 864.5 CURVE SMOOTH",
"427 1113 LINE",
"457.667 1051 OFFCURVE",
"485.167 996.167 OFFCURVE",
"509.5 948.5 CURVE SMOOTH",
"533.833 900.833 OFFCURVE",
"557.667 856 OFFCURVE",
"581 814 CURVE SMOOTH",
"604.333 772 OFFCURVE",
"629.667 728.667 OFFCURVE",
"657 684 CURVE SMOOTH",
"1085 0 LINE",
"1126 0 LINE",
"1126 -101 LINE SMOOTH",
"1126 -133.667 OFFCURVE",
"1117.167 -156.833 OFFCURVE",
"1099.5 -170.5 CURVE SMOOTH",
"1081.833 -184.167 OFFCURVE",
"1049.667 -191 OFFCURVE",
"1003 -191 CURVE SMOOTH",
"989 -191 OFFCURVE",
"974 -190 OFFCURVE",
"959 -189 CURVE SMOOTH",
"930 -187 OFFCURVE",
"914 -226 OFFCURVE",
"914 -301 CURVE SMOOTH",
"914 -378 OFFCURVE",
"939 -426 OFFCURVE",
"990 -431 CURVE SMOOTH"
);
}
);
userData = {
assembly = "NPUSHB[ ]	/* 47 values pushed */\01224 13 2 1 3 1 1 0 1 0 1 5 0 3 76 4 1 3 3 103 77 2 1 1 1 104 77 0 0 0 5 97 0 5 5 114 5 78 36 24 17 25 19 34 6 12 28 \012CALL[ ]	/* CallFunction */";
};
width = 1561;
}
);
leftKerningGroup = B;
note = Eng;
rightKerningGroup = Ereversed;
unicode = 014A;
},
{
glyphname = Nhookleft;
lastChange = "2024-07-06 19:36:07 +0000";
layers = (
{
layerId = "22A22D76-E3A3-44AE-B323-C96AF5899C07";
paths = (
{
closed = 1;
nodes = (
"23 -434 OFFCURVE",
"49 -435 OFFCURVE",
"77 -435 CURVE SMOOTH",
"319 -435 OFFCURVE",
"440 -329.333 OFFCURVE",
"440 -118 CURVE SMOOTH",
"440 0 LINE",
"445 0 OFFCURVE",
"447 60 OFFCURVE",
"447 169 CURVE SMOOTH",
"447 685 LINE SMOOTH",
"447 729 OFFCURVE",
"445 788.833 OFFCURVE",
"441 864.5 CURVE SMOOTH",
"427 1113 LINE",
"457.667 1051 OFFCURVE",
"485.167 996.167 OFFCURVE",
"509.5 948.5 CURVE SMOOTH",
"533.833 900.833 OFFCURVE",
"557.667 856 OFFCURVE",
"581 814 CURVE SMOOTH",
"604.333 772 OFFCURVE",
"629.667 728.667 OFFCURVE",
"657 684 CURVE SMOOTH",
"1015 112 LINE SMOOTH",
"1064 33 OFFCURVE",
"1125 0 OFFCURVE",
"1217 0 CURVE SMOOTH",
"1257 0 LINE SMOOTH",
"1366 0 OFFCURVE",
"1426 60 OFFCURVE",
"1426 169 CURVE SMOOTH",
"1426 1321 LINE SMOOTH",
"1426 1430 OFFCURVE",
"1371 1490 OFFCURVE",
"1270 1490 CURVE SMOOTH",
"1169 1490 OFFCURVE",
"1114 1430 OFFCURVE",
"1114 1321 CURVE SMOOTH",
"1114 775 LINE SMOOTH",
"1114 726.333 OFFCURVE",
"1115.833 665.167 OFFCURVE",
"1119.5 591.5 CURVE SMOOTH",
"1123.167 517.833 OFFCURVE",
"1127.667 444.333 OFFCURVE",
"1133 371 CURVE",
"1100.333 449 OFFCURVE",
"1068.333 517.167 OFFCURVE",
"1037 575.5 CURVE SMOOTH",
"1005.667 633.833 OFFCURVE",
"975.333 687.333 OFFCURVE",
"946 736 CURVE SMOOTH",
"545 1378 LINE SMOOTH",
"496 1457 OFFCURVE",
"434 1490 OFFCURVE",
"342 1490 CURVE SMOOTH",
"304 1490 LINE SMOOTH",
"195 1490 OFFCURVE",
"135 1430 OFFCURVE",
"135 1321 CURVE SMOOTH",
"135 -101 LINE SMOOTH",
"135 -133.667 OFFCURVE",
"126.167 -156.833 OFFCURVE",
"108.5 -170.5 CURVE SMOOTH",
"90.833 -184.167 OFFCURVE",
"58.667 -191 OFFCURVE",
"12 -191 CURVE SMOOTH",
"-2 -191 OFFCURVE",
"-17 -190 OFFCURVE",
"-32 -189 CURVE SMOOTH",
"-61 -187 OFFCURVE",
"-77 -226 OFFCURVE",
"-77 -301 CURVE SMOOTH",
"-77 -378 OFFCURVE",
"-52 -426 OFFCURVE",
"-1 -431 CURVE SMOOTH"
);
}
);
userData = {
assembly = "NPUSHB[ ]	/* 45 values pushed */\01224 12 2 3 1 1 1 0 3 0 1 4 0 3 76 2 1 1 1 103 77 0 3 3 104 77 0 0 0 4 98 0 4 4 114 4 78 44 17 24 19 34 5 12 27 \012CALL[ ]	/* CallFunction */";
};
width = 1561;
}
);
leftKerningGroup = Fhook;
note = Nhook;
rightKerningGroup = Ereversed;
unicode = 019D;
},
{
glyphname = Nlongrightleg;
lastChange = "2024-07-06 19:36:07 +0000";
layers = (
{
layerId = "22A22D76-E3A3-44AE-B323-C96AF5899C07";
paths = (
{
closed = 1;
nodes = (
"1182 -416 OFFCURVE",
"1235 -356 OFFCURVE",
"1235 -247 CURVE SMOOTH",
"1235 1057 LINE SMOOTH",
"1235 1152.333 OFFCURVE",
"1212.333 1233.833 OFFCURVE",
"1167 1301.5 CURVE SMOOTH",
"1121.667 1369.167 OFFCURVE",
"1060.833 1420.833 OFFCURVE",
"984.5 1456.5 CURVE SMOOTH",
"908.167 1492.167 OFFCURVE",
"823.667 1510 OFFCURVE",
"731 1510 CURVE SMOOTH",
"677.667 1510 OFFCURVE",
"626.333 1503.833 OFFCURVE",
"577 1491.5 CURVE SMOOTH",
"527.667 1479.167 OFFCURVE",
"480.667 1461.667 OFFCURVE",
"436 1439 CURVE",
"436 1465 LINE SMOOTH",
"436 1481 OFFCURVE",
"383 1490 OFFCURVE",
"287 1490 CURVE SMOOTH",
"190 1490 OFFCURVE",
"137 1430 OFFCURVE",
"137 1321 CURVE SMOOTH",
"137 169 LINE SMOOTH",
"137 60 OFFCURVE",
"190 0 OFFCURVE",
"287 0 CURVE SMOOTH",
"384 0 OFFCURVE",
"436 60 OFFCURVE",
"436 169 CURVE SMOOTH",
"436 1195 LINE",
"518 1245.667 OFFCURVE",
"603 1271 OFFCURVE",
"691 1271 CURVE SMOOTH",
"768.333 1271 OFFCURVE",
"828 1253.833 OFFCURVE",
"870 1219.5 CURVE SMOOTH",
"912 1185.167 OFFCURVE",
"933 1131 OFFCURVE",
"933 1057 CURVE SMOOTH",
"933 -247 LINE SMOOTH",
"933 -356 OFFCURVE",
"986 -416 OFFCURVE",
"1084 -416 CURVE SMOOTH"
);
}
);
userData = {
assembly = "NPUSHB[ ]	/* 10 values pushed */\01212 1 1 3 7 1 2 1 2 76 \012MPPEM[ ]	/* MeasurePixelPerEm */\012PUSHB[ ]	/* 1 value pushed */\01225 \012LT[ ]	/* LessThan */\012IF[ ]	/* If */\012NPUSHB[ ]	/* 22 values pushed */\0120 1 1 3 97 4 1 3 3 103 77 0 2 2 104 77 0 0 0 108 0 78 \012ELSE[ ]	/* Else */\012NPUSHB[ ]	/* 26 values pushed */\0120 3 3 103 77 0 1 1 4 97 0 4 4 109 77 0 2 2 104 77 0 0 0 108 0 78 \012EIF[ ]	/* EndIf */\012PUSHB[ ]	/* 8 values pushed */\01235 17 18 35 16 5 12 27 \012CALL[ ]	/* CallFunction */";
};
width = 1369;
}
);
note = uni0220;
unicode = 0220;
},
{
glyphname = O;
lastChange = "2024-07-06 19:36:07 +0000";
layers = (
{
layerId = "22A22D76-E3A3-44AE-B323-C96AF5899C07";
paths = (
{
closed = 1;
nodes = (
"921 -20 OFFCURVE",
"1039.333 10 OFFCURVE",
"1144 70 CURVE SMOOTH",
"1248.667 130 OFFCURVE",
"1331.5 216.833 OFFCURVE",
"1392.5 330.5 CURVE SMOOTH",
"1453.5 444.167 OFFCURVE",
"1484 582 OFFCURVE",
"1484 744 CURVE SMOOTH",
"1484 906 OFFCURVE",
"1453.5 1044.167 OFFCURVE",
"1392.5 1158.5 CURVE SMOOTH",
"1331.5 1272.833 OFFCURVE",
"1248.667 1360 OFFCURVE",
"1144 1420 CURVE SMOOTH",
"1039.333 1480 OFFCURVE",
"921 1510 OFFCURVE",
"789 1510 CURVE SMOOTH",
"657.667 1510 OFFCURVE",
"539.5 1480 OFFCURVE",
"434.5 1420 CURVE SMOOTH",
"329.5 1360 OFFCURVE",
"246.5 1272.833 OFFCURVE",
"185.5 1158.5 CURVE SMOOTH",
"124.5 1044.167 OFFCURVE",
"94 906 OFFCURVE",
"94 744 CURVE SMOOTH",
"94 582.667 OFFCURVE",
"124.5 445 OFFCURVE",
"185.5 331 CURVE SMOOTH",
"246.5 217 OFFCURVE",
"329.5 130 OFFCURVE",
"434.5 70 CURVE SMOOTH",
"539.5 10 OFFCURVE",
"657.667 -20 OFFCURVE",
"789 -20 CURVE SMOOTH"
);
},
{
closed = 1;
nodes = (
"673.667 251 OFFCURVE",
"580.667 293.333 OFFCURVE",
"510 378 CURVE SMOOTH",
"439.333 462.667 OFFCURVE",
"404 584.667 OFFCURVE",
"404 744 CURVE SMOOTH",
"404 904 OFFCURVE",
"439.333 1026.5 OFFCURVE",
"510 1111.5 CURVE SMOOTH",
"580.667 1196.5 OFFCURVE",
"673.667 1239 OFFCURVE",
"789 1239 CURVE SMOOTH",
"905 1239 OFFCURVE",
"998.167 1196.667 OFFCURVE",
"1068.5 1112 CURVE SMOOTH",
"1138.833 1027.333 OFFCURVE",
"1174 904.667 OFFCURVE",
"1174 744 CURVE SMOOTH",
"1174 584 OFFCURVE",
"1138.833 461.833 OFFCURVE",
"1068.5 377.5 CURVE SMOOTH",
"998.167 293.167 OFFCURVE",
"905 251 OFFCURVE",
"789 251 CURVE SMOOTH"
);
}
);
userData = {
assembly = "NPUSHB[ ]	/* 42 values pushed */\0120 3 3 1 97 0 1 1 109 77 5 1 2 2 0 97 4 1 0 0 110 0 78 17 16 1 0 23 21 16 27 17 27 9 7 0 15 1 15 6 12 22 \012CALL[ ]	/* CallFunction */";
};
width = 1578;
}
);
leftKerningGroup = C;
note = O;
rightKerningGroup = Oopen;
unicode = 004F;
},
{
glyphname = OU;
lastChange = "2024-07-06 19:36:07 +0000";
layers = (
{
layerId = "22A22D76-E3A3-44AE-B323-C96AF5899C07";
paths = (
{
closed = 1;
nodes = (
"592.333 953 OFFCURVE",
"531.167 963 OFFCURVE",
"485.5 983 CURVE SMOOTH",
"439.833 1003 OFFCURVE",
"417 1048.667 OFFCURVE",
"417 1120 CURVE SMOOTH",
"417 1163.333 OFFCURVE",
"426.833 1197 OFFCURVE",
"446.5 1221 CURVE SMOOTH",
"457 1234 OFFCURVE",
"472 1245 OFFCURVE",
"489 1254 CURVE SMOOTH",
"524 1270 OFFCURVE",
"542 1308 OFFCURVE",
"542 1391 CURVE SMOOTH",
"542 1467 OFFCURVE",
"473 1519 OFFCURVE",
"362 1484 CURVE SMOOTH",
"309 1467 OFFCURVE",
"263 1442 OFFCURVE",
"223 1409 CURVE SMOOTH",
"143.667 1342.333 OFFCURVE",
"104 1246 OFFCURVE",
"104 1120 CURVE SMOOTH",
"104 1048 OFFCURVE",
"118.833 986.833 OFFCURVE",
"148.5 936.5 CURVE SMOOTH",
"178.167 886.167 OFFCURVE",
"220.333 845.667 OFFCURVE",
"275 815 CURVE",
"220.333 775.667 OFFCURVE",
"178.167 726.333 OFFCURVE",
"148.5 667 CURVE SMOOTH",
"118.833 607.667 OFFCURVE",
"104 539 OFFCURVE",
"104 461 CURVE SMOOTH",
"104 359 OFFCURVE",
"128.167 272.167 OFFCURVE",
"176.5 200.5 CURVE SMOOTH",
"224.833 128.833 OFFCURVE",
"291.833 74.167 OFFCURVE",
"377.5 36.5 CURVE SMOOTH",
"463.167 -1.167 OFFCURVE",
"561.667 -20 OFFCURVE",
"673 -20 CURVE SMOOTH",
"696 -20 LINE SMOOTH",
"807.333 -20 OFFCURVE",
"905.5 -1 OFFCURVE",
"990.5 37 CURVE SMOOTH",
"1075.5 75 OFFCURVE",
"1142.167 130 OFFCURVE",
"1190.5 202 CURVE SMOOTH",
"1238.833 274 OFFCURVE",
"1263 361.333 OFFCURVE",
"1263 464 CURVE SMOOTH",
"1263 541.333 OFFCURVE",
"1248.167 609.5 OFFCURVE",
"1218.5 668.5 CURVE SMOOTH",
"1188.833 727.5 OFFCURVE",
"1147 776.333 OFFCURVE",
"1093 815 CURVE",
"1147.667 845.667 OFFCURVE",
"1190.167 886.167 OFFCURVE",
"1220.5 936.5 CURVE SMOOTH",
"1250.833 986.833 OFFCURVE",
"1266 1048 OFFCURVE",
"1266 1120 CURVE SMOOTH",
"1266 1245.333 OFFCURVE",
"1226 1341.5 OFFCURVE",
"1146 1408.5 CURVE SMOOTH",
"1104 1444 OFFCURVE",
"1054 1470 OFFCURVE",
"997 1487 CURVE SMOOTH",
"892 1518 OFFCURVE",
"827 1466 OFFCURVE",
"827 1391 CURVE SMOOTH",
"827 1309 OFFCURVE",
"922 1222 OFFCURVE",
"921.5 1221.5 CURVE SMOOTH",
"942.5 1197.833 OFFCURVE",
"953 1164 OFFCURVE",
"953 1120 CURVE SMOOTH",
"953 1049.333 OFFCURVE",
"929.833 1003.833 OFFCURVE",
"883.5 983.5 CURVE SMOOTH",
"837.167 963.167 OFFCURVE",
"775.333 953 OFFCURVE",
"698 953 CURVE SMOOTH",
"669 953 LINE SMOOTH"
);
},
{
closed = 1;
nodes = (
"772.667 701 OFFCURVE",
"834 680.833 OFFCURVE",
"880 640.5 CURVE SMOOTH",
"926 600.167 OFFCURVE",
"949 541.333 OFFCURVE",
"949 464 CURVE SMOOTH",
"949 385.333 OFFCURVE",
"926.167 326.167 OFFCURVE",
"880.5 286.5 CURVE SMOOTH",
"834.833 246.833 OFFCURVE",
"773.333 227 OFFCURVE",
"696 227 CURVE SMOOTH",
"673 227 LINE SMOOTH",
"596.333 227 OFFCURVE",
"534.5 246.833 OFFCURVE",
"487.5 286.5 CURVE SMOOTH",
"440.5 326.167 OFFCURVE",
"417 384.333 OFFCURVE",
"417 461 CURVE SMOOTH",
"417 539 OFFCURVE",
"440.333 598.5 OFFCURVE",
"487 639.5 CURVE SMOOTH",
"533.667 680.5 OFFCURVE",
"595.667 701 OFFCURVE",
"673 701 CURVE SMOOTH",
"696 701 LINE SMOOTH"
);
}
);
userData = {
assembly = "NPUSHB[ ]	/* 62 values pushed */\01236 7 2 0 1 29 14 2 4 0 2 76 6 1 0 7 1 4 5 0 4 105 3 1 1 1 109 77 0 5 5 2 98 0 2 2 110 2 78 44 42 2 0 51 48 42 55 44 55 35 34 23 20 9 8 0 41 2 41 8 12 22 \012CALL[ ]	/* CallFunction */";
};
width = 1367;
}
);
note = uni0222;
unicode = 0222;
},
{
glyphname = Ohorn;
lastChange = "2024-07-06 19:36:07 +0000";
layers = (
{
layerId = "22A22D76-E3A3-44AE-B323-C96AF5899C07";
paths = (
{
closed = 1;
nodes = (
"921 -20 OFFCURVE",
"1039.333 10 OFFCURVE",
"1144 70 CURVE SMOOTH",
"1248.667 130 OFFCURVE",
"1331.5 216.833 OFFCURVE",
"1392.5 330.5 CURVE SMOOTH",
"1453.5 444.167 OFFCURVE",
"1484 582 OFFCURVE",
"1484 744 CURVE SMOOTH",
"1484 864 OFFCURVE",
"1466.833 970.833 OFFCURVE",
"1432.5 1064.5 CURVE SMOOTH",
"1398.167 1158.167 OFFCURVE",
"1351 1237.667 OFFCURVE",
"1291 1303 CURVE",
"1351 1305.667 OFFCURVE",
"1399.5 1322.5 OFFCURVE",
"1436.5 1353.5 CURVE SMOOTH",
"1473.5 1384.5 OFFCURVE",
"1492 1434 OFFCURVE",
"1492 1502 CURVE SMOOTH",
"1492 1529 LINE SMOOTH",
"1492 1638 OFFCURVE",
"1445 1698 OFFCURVE",
"1359 1698 CURVE SMOOTH",
"1273 1698 OFFCURVE",
"1226 1638 OFFCURVE",
"1226 1529 CURVE SMOOTH",
"1226 1516 LINE SMOOTH",
"1226 1498.667 OFFCURVE",
"1217.333 1490 OFFCURVE",
"1200 1490 CURVE SMOOTH",
"1138 1490 OFFCURVE",
"1088.167 1491 OFFCURVE",
"1050.5 1493 CURVE SMOOTH",
"1012.833 1495 OFFCURVE",
"981.5 1497.333 OFFCURVE",
"956.5 1500 CURVE SMOOTH",
"884 1507 LINE SMOOTH",
"860.667 1509 OFFCURVE",
"832 1510 OFFCURVE",
"798 1510 CURVE SMOOTH",
"798 1510 LINE",
"789 1510 LINE SMOOTH",
"657.667 1510 OFFCURVE",
"539.5 1480 OFFCURVE",
"434.5 1420 CURVE SMOOTH",
"329.5 1360 OFFCURVE",
"246.5 1272.833 OFFCURVE",
"185.5 1158.5 CURVE SMOOTH",
"124.5 1044.167 OFFCURVE",
"94 906 OFFCURVE",
"94 744 CURVE SMOOTH",
"94 582.667 OFFCURVE",
"124.5 445 OFFCURVE",
"185.5 331 CURVE SMOOTH",
"246.5 217 OFFCURVE",
"329.5 130 OFFCURVE",
"434.5 70 CURVE SMOOTH",
"539.5 10 OFFCURVE",
"657.667 -20 OFFCURVE",
"789 -20 CURVE SMOOTH"
);
},
{
closed = 1;
nodes = (
"673.667 251 OFFCURVE",
"580.667 293.333 OFFCURVE",
"510 378 CURVE SMOOTH",
"439.333 462.667 OFFCURVE",
"404 584.667 OFFCURVE",
"404 744 CURVE SMOOTH",
"404 904 OFFCURVE",
"439.333 1026.5 OFFCURVE",
"510 1111.5 CURVE SMOOTH",
"580.667 1196.5 OFFCURVE",
"673.667 1239 OFFCURVE",
"789 1239 CURVE SMOOTH",
"905 1239 OFFCURVE",
"998.167 1196.667 OFFCURVE",
"1068.5 1112 CURVE SMOOTH",
"1138.833 1027.333 OFFCURVE",
"1174 904.667 OFFCURVE",
"1174 744 CURVE SMOOTH",
"1174 584 OFFCURVE",
"1138.833 461.833 OFFCURVE",
"1068.5 377.5 CURVE SMOOTH",
"998.167 293.167 OFFCURVE",
"905 251 OFFCURVE",
"789 251 CURVE SMOOTH"
);
}
);
userData = {
assembly = "MPPEM[ ]	/* MeasurePixelPerEm */\012PUSHB[ ]	/* 1 value pushed */\01230 \012LT[ ]	/* LessThan */\012IF[ ]	/* If */\012NPUSHB[ ]	/* 32 values pushed */\0120 3 0 4 6 3 4 105 0 6 6 1 97 2 1 1 1 109 77 8 1 5 5 0 97 7 1 0 0 110 0 78 \012ELSE[ ]	/* Else */\012NPUSHB[ ]	/* 36 values pushed */\0120 3 0 4 6 3 4 105 0 2 2 103 77 0 6 6 1 97 0 1 1 109 77 8 1 5 5 0 97 7 1 0 0 110 0 78 \012EIF[ ]	/* EndIf */\012NPUSHB[ ]	/* 25 values pushed */\01232 31 1 0 38 36 31 42 32 42 24 23 20 19 17 14 12 7 0 30 1 30 9 12 22 \012CALL[ ]	/* CallFunction */";
};
width = 1597;
}
);
leftKerningGroup = C;
note = Ohorn;
rightKerningGroup = Ohorn;
unicode = 01A0;
},
{
glyphname = Oi;
lastChange = "2024-07-06 19:36:07 +0000";
layers = (
{
layerId = "22A22D76-E3A3-44AE-B323-C96AF5899C07";
paths = (
{
closed = 1;
nodes = (
"1771 1321 LINE SMOOTH",
"1771 1430 OFFCURVE",
"1730 1490 OFFCURVE",
"1656 1490 CURVE SMOOTH",
"1577 1490 OFFCURVE",
"1520 1478 OFFCURVE",
"1448 1445 CURVE SMOOTH",
"1262 1361 LINE",
"1211.333 1401.667 OFFCURVE",
"1144 1436.667 OFFCURVE",
"1060 1466 CURVE SMOOTH",
"976 1495.333 OFFCURVE",
"881.333 1510 OFFCURVE",
"776 1510 CURVE SMOOTH",
"564.667 1510 OFFCURVE",
"400 1448.167 OFFCURVE",
"282 1324.5 CURVE SMOOTH",
"164 1200.833 OFFCURVE",
"105 1027.667 OFFCURVE",
"105 805 CURVE SMOOTH",
"105 685 LINE SMOOTH",
"105 538.333 OFFCURVE",
"131.167 412.333 OFFCURVE",
"183.5 307 CURVE SMOOTH",
"235.833 201.667 OFFCURVE",
"311.5 120.833 OFFCURVE",
"410.5 64.5 CURVE SMOOTH",
"509.5 8.167 OFFCURVE",
"628.667 -20 OFFCURVE",
"768 -20 CURVE SMOOTH",
"855.333 -20 OFFCURVE",
"935.5 -10.167 OFFCURVE",
"1008.5 9.5 CURVE SMOOTH",
"1081.5 29.167 OFFCURVE",
"1144.667 54.667 OFFCURVE",
"1198 86 CURVE SMOOTH",
"1223 101 OFFCURVE",
"1245 116 OFFCURVE",
"1264 131 CURVE SMOOTH",
"1309 168 OFFCURVE",
"1321 222 OFFCURVE",
"1321 308 CURVE SMOOTH",
"1321 1069 LINE",
"1475 1137 LINE",
"1475 -249 LINE SMOOTH",
"1475 -358 OFFCURVE",
"1527 -418 OFFCURVE",
"1623 -418 CURVE SMOOTH",
"1719 -418 OFFCURVE",
"1771 -358 OFFCURVE",
"1771 -249 CURVE SMOOTH"
);
},
{
closed = 1;
nodes = (
"419 805 LINE SMOOTH",
"419 952.333 OFFCURVE",
"446.333 1065.167 OFFCURVE",
"501 1143.5 CURVE SMOOTH",
"555.667 1221.833 OFFCURVE",
"650 1261 OFFCURVE",
"784 1261 CURVE SMOOTH",
"830.667 1261 OFFCURVE",
"875.5 1255.167 OFFCURVE",
"918.5 1243.5 CURVE SMOOTH",
"961.5 1231.833 OFFCURVE",
"996 1213.667 OFFCURVE",
"1022 1189 CURVE",
"1022 300 LINE",
"998 278.667 OFFCURVE",
"965.167 261.167 OFFCURVE",
"923.5 247.5 CURVE SMOOTH",
"881.833 233.833 OFFCURVE",
"834.333 227 OFFCURVE",
"781 227 CURVE SMOOTH",
"651 227 OFFCURVE",
"558.167 268.167 OFFCURVE",
"502.5 350.5 CURVE SMOOTH",
"446.833 432.833 OFFCURVE",
"419 544.333 OFFCURVE",
"419 685 CURVE SMOOTH"
);
}
);
userData = {
assembly = "MPPEM[ ]	/* MeasurePixelPerEm */\012PUSHB[ ]	/* 1 value pushed */\01225 \012LT[ ]	/* LessThan */\012IF[ ]	/* If */\012NPUSHB[ ]	/* 17 values pushed */\01220 1 5 2 30 29 4 3 4 4 5 5 1 1 4 3 76 \012ELSE[ ]	/* Else */\012NPUSHB[ ]	/* 17 values pushed */\01220 1 5 3 30 29 4 3 4 4 5 5 1 1 4 3 76 \012EIF[ ]	/* EndIf */\012MPPEM[ ]	/* MeasurePixelPerEm */\012PUSHB[ ]	/* 1 value pushed */\01225 \012LT[ ]	/* LessThan */\012IF[ ]	/* If */\012NPUSHB[ ]	/* 28 values pushed */\0120 5 5 2 97 6 3 2 2 2 109 77 0 4 4 1 97 0 1 1 110 77 0 0 0 108 0 78 \012ELSE[ ]	/* Else */\012NPUSHB[ ]	/* 32 values pushed */\0126 1 3 3 103 77 0 5 5 2 97 0 2 2 109 77 0 4 4 1 97 0 1 1 110 77 0 0 0 108 0 78 \012EIF[ ]	/* EndIf */\012NPUSHB[ ]	/* 16 values pushed */\0120 0 34 32 27 25 0 21 0 21 38 38 17 7 12 25 \012CALL[ ]	/* CallFunction */";
};
width = 1906;
}
);
note = OI;
unicode = 01A2;
},
{
glyphname = Oopen;
lastChange = "2024-07-06 19:36:07 +0000";
layers = (
{
layerId = "22A22D76-E3A3-44AE-B323-C96AF5899C07";
paths = (
{
closed = 1;
nodes = (
"603.667 1510 OFFCURVE",
"495.167 1485 OFFCURVE",
"403.5 1435 CURVE SMOOTH",
"311.833 1385 OFFCURVE",
"239 1319.833 OFFCURVE",
"185 1239.5 CURVE SMOOTH",
"158 1200 OFFCURVE",
"137 1159 OFFCURVE",
"121 1116 CURVE SMOOTH",
"90 1035 OFFCURVE",
"152 981 OFFCURVE",
"254 981 CURVE SMOOTH",
"350 981 OFFCURVE",
"392 1029 OFFCURVE",
"449 1111 CURVE SMOOTH",
"465 1133 OFFCURVE",
"485 1153 OFFCURVE",
"507.5 1170.5 CURVE SMOOTH",
"567.167 1216.167 OFFCURVE",
"639.333 1239 OFFCURVE",
"724 1239 CURVE SMOOTH",
"838.667 1239 OFFCURVE",
"931.833 1197.167 OFFCURVE",
"1003.5 1113.5 CURVE SMOOTH",
"1075.167 1029.833 OFFCURVE",
"1111 907.333 OFFCURVE",
"1111 746 CURVE SMOOTH",
"1111 588 OFFCURVE",
"1075.333 466 OFFCURVE",
"1004 380 CURVE SMOOTH",
"932.667 294 OFFCURVE",
"839 251 OFFCURVE",
"723 251 CURVE SMOOTH",
"637.667 251 OFFCURVE",
"565.333 273.833 OFFCURVE",
"506 319.5 CURVE SMOOTH",
"476 343 OFFCURVE",
"451 371 OFFCURVE",
"433 404 CURVE SMOOTH",
"395 473 OFFCURVE",
"352 510 OFFCURVE",
"255 510 CURVE SMOOTH",
"243 510 LINE SMOOTH",
"148 510 OFFCURVE",
"90 434 OFFCURVE",
"140 321 CURVE SMOOTH",
"156 286 OFFCURVE",
"176 254 OFFCURVE",
"198 223.5 CURVE SMOOTH",
"256.667 144.5 OFFCURVE",
"331.667 84.167 OFFCURVE",
"423 42.5 CURVE SMOOTH",
"514.333 0.833 OFFCURVE",
"616.333 -20 OFFCURVE",
"729 -20 CURVE SMOOTH",
"859.667 -20 OFFCURVE",
"977.333 10 OFFCURVE",
"1082 70 CURVE SMOOTH",
"1186.667 130 OFFCURVE",
"1269.333 217.167 OFFCURVE",
"1330 331.5 CURVE SMOOTH",
"1390.667 445.833 OFFCURVE",
"1421 584 OFFCURVE",
"1421 746 CURVE SMOOTH",
"1421 907.333 OFFCURVE",
"1390.833 1045 OFFCURVE",
"1330.5 1159 CURVE SMOOTH",
"1270.167 1273 OFFCURVE",
"1187.833 1360 OFFCURVE",
"1083.5 1420 CURVE SMOOTH",
"979.167 1480 OFFCURVE",
"861 1510 OFFCURVE",
"729 1510 CURVE SMOOTH"
);
}
);
userData = {
assembly = "NPUSHB[ ]	/* 56 values pushed */\0120 5 4 2 4 5 2 128 0 2 3 4 2 3 126 0 4 4 0 97 6 1 0 0 109 77 0 3 3 1 97 0 1 1 110 1 78 1 0 26 25 23 21 17 15 13 12 9 7 0 29 1 29 7 12 22 \012CALL[ ]	/* CallFunction */";
};
width = 1515;
}
);
leftKerningGroup = C;
note = uni0186;
rightKerningGroup = Oopen;
unicode = 0186;
},
{
glyphname = OE;
lastChange = "2024-07-06 19:36:07 +0000";
layers = (
{
layerId = "22A22D76-E3A3-44AE-B323-C96AF5899C07";
paths = (
{
closed = 1;
nodes = (
"1806 0 LINE SMOOTH",
"1915 0 OFFCURVE",
"1975 45 OFFCURVE",
"1975 127 CURVE SMOOTH",
"1975 209 OFFCURVE",
"1915 253 OFFCURVE",
"1806 253 CURVE SMOOTH",
"1281 253 LINE",
"1281 628 LINE",
"1751 628 LINE SMOOTH",
"1860 628 OFFCURVE",
"1920 672 OFFCURVE",
"1920 753 CURVE SMOOTH",
"1920 834 OFFCURVE",
"1860 877 OFFCURVE",
"1751 877 CURVE SMOOTH",
"1281 877 LINE",
"1281 1237 LINE",
"1804 1237 LINE SMOOTH",
"1913 1237 OFFCURVE",
"1973 1282 OFFCURVE",
"1973 1364 CURVE SMOOTH",
"1973 1446 OFFCURVE",
"1913 1490 OFFCURVE",
"1804 1490 CURVE SMOOTH",
"805 1490 LINE SMOOTH",
"661.667 1490 OFFCURVE",
"536.833 1459.667 OFFCURVE",
"430.5 1399 CURVE SMOOTH",
"324.167 1338.333 OFFCURVE",
"241.5 1252.167 OFFCURVE",
"182.5 1140.5 CURVE SMOOTH",
"123.5 1028.833 OFFCURVE",
"94 896.667 OFFCURVE",
"94 744 CURVE SMOOTH",
"94 592 OFFCURVE",
"123.333 460.333 OFFCURVE",
"182 349 CURVE SMOOTH",
"240.667 237.667 OFFCURVE",
"323.167 151.667 OFFCURVE",
"429.5 91 CURVE SMOOTH",
"535.833 30.333 OFFCURVE",
"659.667 0 OFFCURVE",
"801 0 CURVE SMOOTH"
);
},
{
closed = 1;
nodes = (
"975 263 LINE",
"810 263 LINE SMOOTH",
"684 263 OFFCURVE",
"583.833 302.167 OFFCURVE",
"509.5 380.5 CURVE SMOOTH",
"435.167 458.833 OFFCURVE",
"398 580 OFFCURVE",
"398 744 CURVE SMOOTH",
"398 909.333 OFFCURVE",
"435.333 1031.167 OFFCURVE",
"510 1109.5 CURVE SMOOTH",
"584.667 1187.833 OFFCURVE",
"686.667 1227 OFFCURVE",
"816 1227 CURVE SMOOTH",
"975 1227 LINE"
);
}
);
userData = {
assembly = "MPPEM[ ]	/* MeasurePixelPerEm */\012PUSHB[ ]	/* 1 value pushed */\01248 \012LT[ ]	/* LessThan */\012IF[ ]	/* If */\012NPUSHB[ ]	/* 33 values pushed */\0120 3 0 4 5 3 4 103 6 1 2 2 1 95 0 1 1 103 77 9 7 2 5 5 0 95 8 1 0 0 104 0 78 \012ELSE[ ]	/* Else */\012NPUSHB[ ]	/* 45 values pushed */\0120 6 2 3 2 6 114 9 1 7 4 5 5 7 114 0 3 0 4 7 3 4 103 0 2 2 1 95 0 1 1 103 77 0 5 5 0 96 8 1 0 0 104 0 78 \012EIF[ ]	/* EndIf */\012NPUSHB[ ]	/* 27 values pushed */\01219 19 1 0 19 27 19 26 22 20 17 16 15 14 13 12 11 10 9 7 0 18 1 18 10 12 22 \012CALL[ ]	/* CallFunction */";
};
width = 2084;
}
);
leftKerningGroup = C;
note = OE;
rightKerningGroup = AE;
unicode = 0152;
},
{
glyphname = P;
lastChange = "2024-07-06 19:36:07 +0000";
layers = (
{
layerId = "22A22D76-E3A3-44AE-B323-C96AF5899C07";
paths = (
{
closed = 1;
nodes = (
"135 169 LINE SMOOTH",
"135 60 OFFCURVE",
"189 0 OFFCURVE",
"288 0 CURVE SMOOTH",
"387 0 OFFCURVE",
"440 60 OFFCURVE",
"440 169 CURVE SMOOTH",
"440 487 LINE",
"709 487 LINE SMOOTH",
"823 487 OFFCURVE",
"920.333 508.167 OFFCURVE",
"1001 550.5 CURVE SMOOTH",
"1081.667 592.833 OFFCURVE",
"1143.167 651.5 OFFCURVE",
"1185.5 726.5 CURVE SMOOTH",
"1227.833 801.5 OFFCURVE",
"1249 888.333 OFFCURVE",
"1249 987 CURVE SMOOTH",
"1249 1085 OFFCURVE",
"1228.167 1171.833 OFFCURVE",
"1186.5 1247.5 CURVE SMOOTH",
"1144.833 1323.167 OFFCURVE",
"1084.333 1382.5 OFFCURVE",
"1005 1425.5 CURVE SMOOTH",
"925.667 1468.5 OFFCURVE",
"829.333 1490 OFFCURVE",
"716 1490 CURVE SMOOTH",
"304 1490 LINE SMOOTH",
"195 1490 OFFCURVE",
"135 1430 OFFCURVE",
"135 1321 CURVE SMOOTH"
);
},
{
closed = 1;
nodes = (
"440 733 LINE",
"440 1238 LINE",
"659 1238 LINE SMOOTH",
"753 1238 OFFCURVE",
"822.333 1215 OFFCURVE",
"867 1169 CURVE SMOOTH",
"911.667 1123 OFFCURVE",
"934 1062.333 OFFCURVE",
"934 987 CURVE SMOOTH",
"934 912.333 OFFCURVE",
"911.667 851.333 OFFCURVE",
"867 804 CURVE SMOOTH",
"822.333 756.667 OFFCURVE",
"753.333 733 OFFCURVE",
"660 733 CURVE SMOOTH"
);
}
);
userData = {
assembly = "NPUSHB[ ]	/* 40 values pushed */\0120 3 0 1 2 3 1 103 0 4 4 0 95 0 0 0 103 77 5 1 2 2 104 2 78 0 0 21 19 15 13 0 12 0 12 38 33 6 12 24 \012CALL[ ]	/* CallFunction */";
};
width = 1327;
}
);
leftKerningGroup = B;
note = P;
rightKerningGroup = P;
unicode = 0050;
},
{
glyphname = Phook;
lastChange = "2024-07-06 19:36:07 +0000";
layers = (
{
layerId = "22A22D76-E3A3-44AE-B323-C96AF5899C07";
paths = (
{
closed = 1;
nodes = (
"50 1091 OFFCURVE",
"98 1065 OFFCURVE",
"187 1065 CURVE SMOOTH",
"275 1065 OFFCURVE",
"323 1083 OFFCURVE",
"323 1114 CURVE SMOOTH",
"323 1196 OFFCURVE",
"368.667 1237 OFFCURVE",
"460 1237 CURVE SMOOTH",
"523 1237 LINE",
"523 169 LINE SMOOTH",
"523 60 OFFCURVE",
"577 0 OFFCURVE",
"676 0 CURVE SMOOTH",
"775 0 OFFCURVE",
"828 60 OFFCURVE",
"828 169 CURVE SMOOTH",
"828 487 LINE",
"1097 487 LINE SMOOTH",
"1211 487 OFFCURVE",
"1308.333 508.167 OFFCURVE",
"1389 550.5 CURVE SMOOTH",
"1469.667 592.833 OFFCURVE",
"1531.167 651.5 OFFCURVE",
"1573.5 726.5 CURVE SMOOTH",
"1615.833 801.5 OFFCURVE",
"1637 888.333 OFFCURVE",
"1637 987 CURVE SMOOTH",
"1637 1085 OFFCURVE",
"1616.167 1171.833 OFFCURVE",
"1574.5 1247.5 CURVE SMOOTH",
"1532.833 1323.167 OFFCURVE",
"1472.333 1382.5 OFFCURVE",
"1393 1425.5 CURVE SMOOTH",
"1313.667 1468.5 OFFCURVE",
"1217.333 1490 OFFCURVE",
"1104 1490 CURVE SMOOTH",
"468 1490 LINE SMOOTH",
"324.667 1490 OFFCURVE",
"219.167 1461.5 OFFCURVE",
"151.5 1404.5 CURVE SMOOTH",
"83.833 1347.5 OFFCURVE",
"50 1258.667 OFFCURVE",
"50 1138 CURVE SMOOTH"
);
},
{
closed = 1;
nodes = (
"828 733 LINE",
"828 1238 LINE",
"1047 1238 LINE SMOOTH",
"1141 1238 OFFCURVE",
"1210.333 1215 OFFCURVE",
"1255 1169 CURVE SMOOTH",
"1299.667 1123 OFFCURVE",
"1322 1062.333 OFFCURVE",
"1322 987 CURVE SMOOTH",
"1322 912.333 OFFCURVE",
"1299.667 851.333 OFFCURVE",
"1255 804 CURVE SMOOTH",
"1210.333 756.667 OFFCURVE",
"1141.333 733 OFFCURVE",
"1048 733 CURVE SMOOTH"
);
}
);
userData = {
assembly = "MPPEM[ ]	/* MeasurePixelPerEm */\012PUSHB[ ]	/* 1 value pushed */\01216 \012LT[ ]	/* LessThan */\012IF[ ]	/* If */\012NPUSHB[ ]	/* 33 values pushed */\0127 1 4 3 5 3 4 114 0 5 0 1 2 5 1 103 6 1 3 3 0 95 0 0 0 103 77 0 2 2 104 2 78 \012ELSE[ ]	/* Else */\012NPUSHB[ ]	/* 34 values pushed */\0127 1 4 3 5 3 4 5 128 0 5 0 1 2 5 1 103 6 1 3 3 0 95 0 0 0 103 77 0 2 2 104 2 78 \012EIF[ ]	/* EndIf */\012NPUSHB[ ]	/* 17 values pushed */\0120 0 30 28 24 22 0 21 0 21 33 17 38 51 8 12 26 \012CALL[ ]	/* CallFunction */";
};
width = 1715;
}
);
leftKerningGroup = B;
note = uni01A4;
rightKerningGroup = P;
unicode = 01A4;
},
{
glyphname = Thorn;
lastChange = "2024-07-06 19:36:07 +0000";
layers = (
{
layerId = "22A22D76-E3A3-44AE-B323-C96AF5899C07";
paths = (
{
closed = 1;
nodes = (
"184 1490 OFFCURVE",
"130 1430 OFFCURVE",
"130 1321 CURVE SMOOTH",
"130 169 LINE SMOOTH",
"130 60 OFFCURVE",
"184 0 OFFCURVE",
"284 0 CURVE SMOOTH",
"384 0 OFFCURVE",
"438 60 OFFCURVE",
"438 169 CURVE SMOOTH",
"438 308 LINE",
"660 308 LINE SMOOTH",
"778.667 308 OFFCURVE",
"879 327.667 OFFCURVE",
"961 367 CURVE SMOOTH",
"1043 406.333 OFFCURVE",
"1105.167 460.167 OFFCURVE",
"1147.5 528.5 CURVE SMOOTH",
"1189.833 596.833 OFFCURVE",
"1211 674.333 OFFCURVE",
"1211 761 CURVE SMOOTH",
"1211 847 OFFCURVE",
"1189.833 924.167 OFFCURVE",
"1147.5 992.5 CURVE SMOOTH",
"1105.167 1060.833 OFFCURVE",
"1043 1114.833 OFFCURVE",
"961 1154.5 CURVE SMOOTH",
"879 1194.167 OFFCURVE",
"778.667 1214 OFFCURVE",
"660 1214 CURVE SMOOTH",
"438 1215 LINE",
"438 1353 LINE SMOOTH",
"438 1442 OFFCURVE",
"384 1490 OFFCURVE",
"284 1490 CURVE SMOOTH"
);
},
{
closed = 1;
nodes = (
"438 544 LINE",
"438 976 LINE",
"660 976 LINE SMOOTH",
"750 976 OFFCURVE",
"815.833 954.5 OFFCURVE",
"857.5 911.5 CURVE SMOOTH",
"899.167 868.5 OFFCURVE",
"920 817 OFFCURVE",
"920 757 CURVE SMOOTH",
"920 698.333 OFFCURVE",
"899.167 648.333 OFFCURVE",
"857.5 607 CURVE SMOOTH",
"815.833 565.667 OFFCURVE",
"750 544.667 OFFCURVE",
"660 544 CURVE SMOOTH"
);
}
);
userData = {
assembly = "NPUSHB[ ]	/* 36 values pushed */\0120 1 0 5 4 1 5 103 0 4 0 2 3 4 2 103 0 0 0 103 77 0 3 3 104 3 78 36 33 17 38 33 16 6 12 28 \012CALL[ ]	/* CallFunction */";
};
width = 1370;
}
);
leftKerningGroup = B;
note = Thorn;
unicode = 00DE;
},
{
glyphname = Q;
lastChange = "2024-07-06 19:36:07 +0000";
layers = (
{
layerId = "22A22D76-E3A3-44AE-B323-C96AF5899C07";
paths = (
{
closed = 1;
nodes = (
"885.667 -20 OFFCURVE",
"975.333 -3.667 OFFCURVE",
"1058 29 CURVE",
"1120 -48 LINE SMOOTH",
"1163 -102 OFFCURVE",
"1219 -124 OFFCURVE",
"1308 -124 CURVE SMOOTH",
"1324 -124 LINE SMOOTH",
"1401 -124 OFFCURVE",
"1391 -30 OFFCURVE",
"1302 83 CURVE SMOOTH",
"1251 147 LINE",
"1323 212.333 OFFCURVE",
"1379.833 295.167 OFFCURVE",
"1421.5 395.5 CURVE SMOOTH",
"1463.167 495.833 OFFCURVE",
"1484 612 OFFCURVE",
"1484 744 CURVE SMOOTH",
"1484 906 OFFCURVE",
"1453.5 1044.167 OFFCURVE",
"1392.5 1158.5 CURVE SMOOTH",
"1331.5 1272.833 OFFCURVE",
"1248.667 1360 OFFCURVE",
"1144 1420 CURVE SMOOTH",
"1039.333 1480 OFFCURVE",
"921 1510 OFFCURVE",
"789 1510 CURVE SMOOTH",
"657.667 1510 OFFCURVE",
"539.5 1480 OFFCURVE",
"434.5 1420 CURVE SMOOTH",
"329.5 1360 OFFCURVE",
"246.5 1272.833 OFFCURVE",
"185.5 1158.5 CURVE SMOOTH",
"124.5 1044.167 OFFCURVE",
"94 906 OFFCURVE",
"94 744 CURVE SMOOTH",
"94 582.667 OFFCURVE",
"124.5 445 OFFCURVE",
"185.5 331 CURVE SMOOTH",
"246.5 217 OFFCURVE",
"329.5 130 OFFCURVE",
"434.5 70 CURVE SMOOTH",
"539.5 10 OFFCURVE",
"657.667 -20 OFFCURVE",
"789 -20 CURVE SMOOTH"
);
},
{
closed = 1;
nodes = (
"755 512 OFFCURVE",
"766 420 OFFCURVE",
"852 306 CURVE SMOOTH",
"885 262 LINE",
"855 254.667 OFFCURVE",
"823 251 OFFCURVE",
"789 251 CURVE SMOOTH",
"673.667 251 OFFCURVE",
"580.667 293.333 OFFCURVE",
"510 378 CURVE SMOOTH",
"439.333 462.667 OFFCURVE",
"404 584.667 OFFCURVE",
"404 744 CURVE SMOOTH",
"404 904 OFFCURVE",
"439.333 1026.5 OFFCURVE",
"510 1111.5 CURVE SMOOTH",
"580.667 1196.5 OFFCURVE",
"673.667 1239 OFFCURVE",
"789 1239 CURVE SMOOTH",
"905 1239 OFFCURVE",
"998.167 1196.667 OFFCURVE",
"1068.5 1112 CURVE SMOOTH",
"1138.833 1027.333 OFFCURVE",
"1174 904.667 OFFCURVE",
"1174 744 CURVE SMOOTH",
"1174 662.667 OFFCURVE",
"1164.5 590.833 OFFCURVE",
"1145.5 528.5 CURVE SMOOTH",
"1126.5 466.167 OFFCURVE",
"1099.333 414.333 OFFCURVE",
"1064 373 CURVE",
"1010 443 LINE SMOOTH",
"972 492 OFFCURVE",
"917 512 OFFCURVE",
"828 512 CURVE SMOOTH"
);
}
);
userData = {
assembly = "NPUSHB[ ]	/* 12 values pushed */\01236 22 2 5 3 18 15 2 0 5 2 76 \012MPPEM[ ]	/* MeasurePixelPerEm */\012PUSHB[ ]	/* 1 value pushed */\01210 \012LT[ ]	/* LessThan */\012IF[ ]	/* If */\012NPUSHB[ ]	/* 34 values pushed */\0120 3 4 5 5 3 114 0 2 0 2 134 0 4 4 1 97 0 1 1 109 77 0 5 5 0 98 6 1 0 0 110 0 78 \012ELSE[ ]	/* Else */\012NPUSHB[ ]	/* 35 values pushed */\0120 3 4 5 4 3 5 128 0 2 0 2 134 0 4 4 1 97 0 1 1 109 77 0 5 5 0 98 6 1 0 0 110 0 78 \012EIF[ ]	/* EndIf */\012NPUSHB[ ]	/* 19 values pushed */\0121 0 35 33 29 27 21 20 17 16 9 7 0 19 1 19 7 12 22 \012CALL[ ]	/* CallFunction */";
};
width = 1591;
}
);
leftKerningGroup = C;
note = Q;
rightKerningGroup = Oopen;
unicode = 0051;
},
{
glyphname = Q_rthook;
lastChange = "2024-07-06 19:36:07 +0000";
layers = (
{
layerId = "22A22D76-E3A3-44AE-B323-C96AF5899C07";
paths = (
{
closed = 1;
nodes = (
"1450 1321 LINE SMOOTH",
"1450 1430 OFFCURVE",
"1397 1490 OFFCURVE",
"1300 1490 CURVE SMOOTH",
"1203 1490 OFFCURVE",
"1150 1430 OFFCURVE",
"1150 1321 CURVE SMOOTH",
"1150 1271 LINE",
"1139 1271 LINE",
"1102.333 1339.667 OFFCURVE",
"1048.5 1396.667 OFFCURVE",
"977.5 1442 CURVE SMOOTH",
"906.5 1487.333 OFFCURVE",
"820.333 1510 OFFCURVE",
"719 1510 CURVE SMOOTH",
"629 1510 OFFCURVE",
"546 1490.667 OFFCURVE",
"470 1452 CURVE SMOOTH",
"394 1413.333 OFFCURVE",
"327.833 1359.5 OFFCURVE",
"271.5 1290.5 CURVE SMOOTH",
"215.167 1221.5 OFFCURVE",
"171.5 1140.667 OFFCURVE",
"140.5 1048 CURVE SMOOTH",
"109.5 955.333 OFFCURVE",
"94 855 OFFCURVE",
"94 747 CURVE SMOOTH",
"94 637.667 OFFCURVE",
"109.333 536.333 OFFCURVE",
"140 443 CURVE SMOOTH",
"170.667 349.667 OFFCURVE",
"214 268.167 OFFCURVE",
"270 198.5 CURVE SMOOTH",
"326 128.833 OFFCURVE",
"392.167 74.667 OFFCURVE",
"468.5 36 CURVE SMOOTH",
"544.833 -2.667 OFFCURVE",
"628.333 -22 OFFCURVE",
"719 -22 CURVE SMOOTH",
"819 -22 OFFCURVE",
"904.833 0.833 OFFCURVE",
"976.5 46.5 CURVE SMOOTH",
"1048.167 92.167 OFFCURVE",
"1102.333 150.667 OFFCURVE",
"1139 222 CURVE",
"1150 222 LINE",
"1150 -118 LINE SMOOTH",
"1150 -329.333 OFFCURVE",
"1270.333 -435 OFFCURVE",
"1511 -435 CURVE SMOOTH",
"1539 -435 OFFCURVE",
"1565 -434 OFFCURVE",
"1589 -431 CURVE SMOOTH",
"1641 -426 OFFCURVE",
"1666 -380 OFFCURVE",
"1666 -309 CURVE SMOOTH",
"1666 -241 OFFCURVE",
"1649 -203 OFFCURVE",
"1621 -206 CURVE SMOOTH",
"1606.333 -207.333 OFFCURVE",
"1591.667 -208 OFFCURVE",
"1577 -208 CURVE SMOOTH",
"1530.333 -208 OFFCURVE",
"1497.5 -201.167 OFFCURVE",
"1478.5 -187.5 CURVE SMOOTH",
"1459.5 -173.833 OFFCURVE",
"1450 -150.667 OFFCURVE",
"1450 -118 CURVE SMOOTH"
);
},
{
closed = 1;
nodes = (
"663 251 OFFCURVE",
"572.667 294.5 OFFCURVE",
"506 381.5 CURVE SMOOTH",
"439.333 468.5 OFFCURVE",
"406 590 OFFCURVE",
"406 746 CURVE SMOOTH",
"406 897.333 OFFCURVE",
"439 1017.667 OFFCURVE",
"505 1107 CURVE SMOOTH",
"571 1196.333 OFFCURVE",
"662 1241 OFFCURVE",
"778 1241 CURVE SMOOTH",
"902.667 1241 OFFCURVE",
"996 1195.333 OFFCURVE",
"1058 1104 CURVE SMOOTH",
"1120 1012.667 OFFCURVE",
"1151 893.333 OFFCURVE",
"1151 746 CURVE SMOOTH",
"1151 597.333 OFFCURVE",
"1120.833 477.667 OFFCURVE",
"1060.5 387 CURVE SMOOTH",
"1000.167 296.333 OFFCURVE",
"905.667 251 OFFCURVE",
"777 251 CURVE SMOOTH"
);
}
);
userData = {
assembly = "MPPEM[ ]	/* MeasurePixelPerEm */\012PUSHB[ ]	/* 1 value pushed */\01225 \012LT[ ]	/* LessThan */\012IF[ ]	/* If */\012NPUSHB[ ]	/* 18 values pushed */\01230 1 6 3 13 1 2 5 7 1 0 2 8 1 1 0 4 76 \012ELSE[ ]	/* Else */\012NPUSHB[ ]	/* 18 values pushed */\01230 1 6 4 13 1 2 5 7 1 0 2 8 1 1 0 4 76 \012EIF[ ]	/* EndIf */\012MPPEM[ ]	/* MeasurePixelPerEm */\012PUSHB[ ]	/* 1 value pushed */\01225 \012LT[ ]	/* LessThan */\012IF[ ]	/* If */\012NPUSHB[ ]	/* 34 values pushed */\0120 6 6 3 97 7 4 2 3 3 109 77 8 1 5 5 2 97 0 2 2 110 77 0 0 0 1 98 0 1 1 114 1 78 \012ELSE[ ]	/* Else */\012NPUSHB[ ]	/* 38 values pushed */\0127 1 4 4 103 77 0 6 6 3 97 0 3 3 109 77 8 1 5 5 2 97 0 2 2 110 77 0 0 0 1 98 0 1 1 114 1 78 \012EIF[ ]	/* EndIf */\012NPUSHB[ ]	/* 21 values pushed */\01234 33 0 0 40 38 33 44 34 44 0 32 0 32 40 37 36 35 9 12 26 \012CALL[ ]	/* CallFunction */";
};
width = 1584;
}
);
leftKerningGroup = C;
note = Q_rthook;
rightKerningGroup = Q_rthook;
},
{
glyphname = R;
lastChange = "2024-07-06 19:36:07 +0000";
layers = (
{
layerId = "22A22D76-E3A3-44AE-B323-C96AF5899C07";
paths = (
{
closed = 1;
nodes = (
"135 169 LINE SMOOTH",
"135 60 OFFCURVE",
"189 0 OFFCURVE",
"288 0 CURVE SMOOTH",
"387 0 OFFCURVE",
"440 60 OFFCURVE",
"440 169 CURVE SMOOTH",
"440 532 LINE",
"680 532 LINE",
"900 120 LINE SMOOTH",
"944 37 OFFCURVE",
"1006 0 OFFCURVE",
"1100 0 CURVE SMOOTH",
"1133 0 LINE SMOOTH",
"1231 0 OFFCURVE",
"1256 84 OFFCURVE",
"1192 201 CURVE SMOOTH",
"985 581 LINE",
"1070.333 617 OFFCURVE",
"1135.667 671.167 OFFCURVE",
"1181 743.5 CURVE SMOOTH",
"1226.333 815.833 OFFCURVE",
"1249 903 OFFCURVE",
"1249 1005 CURVE SMOOTH",
"1249 1151.667 OFFCURVE",
"1202.5 1269.167 OFFCURVE",
"1109.5 1357.5 CURVE SMOOTH",
"1016.5 1445.833 OFFCURVE",
"885.333 1490 OFFCURVE",
"716 1490 CURVE SMOOTH",
"304 1490 LINE SMOOTH",
"195 1490 OFFCURVE",
"135 1430 OFFCURVE",
"135 1321 CURVE SMOOTH"
);
},
{
closed = 1;
nodes = (
"440 779 LINE",
"440 1238 LINE",
"659 1238 LINE SMOOTH",
"752.333 1238 OFFCURVE",
"821.5 1218 OFFCURVE",
"866.5 1178 CURVE SMOOTH",
"911.5 1138 OFFCURVE",
"934 1080.333 OFFCURVE",
"934 1005 CURVE SMOOTH",
"934 854.333 OFFCURVE",
"842.667 779 OFFCURVE",
"660 779 CURVE SMOOTH"
);
}
);
userData = {
assembly = "NPUSHB[ ]	/* 48 values pushed */\0128 1 2 4 1 76 0 4 0 2 1 4 2 103 0 5 5 0 95 0 0 0 103 77 6 3 2 1 1 104 1 78 0 0 21 19 16 14 0 13 0 13 17 22 33 7 12 25 \012CALL[ ]	/* CallFunction */";
};
width = 1345;
}
);
leftKerningGroup = B;
note = R;
rightKerningGroup = G.1;
unicode = 0052;
},
{
glyphname = Rstroke;
lastChange = "2024-07-06 19:36:07 +0000";
layers = (
{
layerId = "22A22D76-E3A3-44AE-B323-C96AF5899C07";
paths = (
{
closed = 1;
nodes = (
"167 169 LINE SMOOTH",
"167 60 OFFCURVE",
"221 0 OFFCURVE",
"320 0 CURVE SMOOTH",
"419 0 OFFCURVE",
"472 60 OFFCURVE",
"472 169 CURVE SMOOTH",
"472 532 LINE",
"712 532 LINE",
"932 120 LINE SMOOTH",
"976 37 OFFCURVE",
"1038 0 OFFCURVE",
"1132 0 CURVE SMOOTH",
"1165 0 LINE SMOOTH",
"1263 0 OFFCURVE",
"1288 84 OFFCURVE",
"1224 201 CURVE SMOOTH",
"1017 581 LINE",
"1102.333 617 OFFCURVE",
"1167.667 671.167 OFFCURVE",
"1213 743.5 CURVE SMOOTH",
"1258.333 815.833 OFFCURVE",
"1281 903 OFFCURVE",
"1281 1005 CURVE SMOOTH",
"1281 1151.667 OFFCURVE",
"1234.5 1269.167 OFFCURVE",
"1141.5 1357.5 CURVE SMOOTH",
"1048.5 1445.833 OFFCURVE",
"917.333 1490 OFFCURVE",
"748 1490 CURVE SMOOTH",
"336 1490 LINE SMOOTH",
"227 1490 OFFCURVE",
"167 1430 OFFCURVE",
"167 1321 CURVE SMOOTH",
"167 781 LINE",
"93 781 LINE SMOOTH",
"45 781 OFFCURVE",
"18 741 OFFCURVE",
"18 667 CURVE SMOOTH",
"18 593 OFFCURVE",
"71 552 OFFCURVE",
"167 552 CURVE"
);
},
{
closed = 1;
nodes = (
"472 779 LINE",
"472 1238 LINE",
"692 1238 LINE SMOOTH",
"784.667 1238 OFFCURVE",
"853.5 1218 OFFCURVE",
"898.5 1178 CURVE SMOOTH",
"943.5 1138 OFFCURVE",
"966 1080.333 OFFCURVE",
"966 1005 CURVE SMOOTH",
"966 854.333 OFFCURVE",
"874.667 779 OFFCURVE",
"692 779 CURVE SMOOTH"
);
}
);
userData = {
assembly = "PUSHB[ ]	/* 6 values pushed */\01212 1 0 1 1 76 \012MPPEM[ ]	/* MeasurePixelPerEm */\012PUSHB[ ]	/* 1 value pushed */\01225 \012LT[ ]	/* LessThan */\012IF[ ]	/* If */\012NPUSHB[ ]	/* 28 values pushed */\0126 1 1 4 1 0 3 1 0 103 0 7 7 2 95 0 2 2 103 77 8 5 2 3 3 104 3 78 \012ELSE[ ]	/* Else */\012NPUSHB[ ]	/* 33 values pushed */\0120 0 4 1 0 87 6 1 1 0 4 3 1 4 103 0 7 7 2 95 0 2 2 103 77 8 5 2 3 3 104 3 78 \012EIF[ ]	/* EndIf */\012NPUSHB[ ]	/* 18 values pushed */\0120 0 25 23 20 18 0 17 0 17 17 22 33 17 17 9 12 27 \012CALL[ ]	/* CallFunction */";
};
width = 1378;
}
);
leftKerningGroup = B;
note = uni024C;
rightKerningGroup = G.1;
unicode = 024C;
},
{
glyphname = S;
lastChange = "2024-07-06 19:36:07 +0000";
layers = (
{
layerId = "22A22D76-E3A3-44AE-B323-C96AF5899C07";
paths = (
{
closed = 1;
nodes = (
"862.333 -22 OFFCURVE",
"1003.5 18.5 OFFCURVE",
"1104.5 99.5 CURVE SMOOTH",
"1205.5 180.5 OFFCURVE",
"1256 288.667 OFFCURVE",
"1256 424 CURVE SMOOTH",
"1256 507.333 OFFCURVE",
"1236.333 577.833 OFFCURVE",
"1197 635.5 CURVE SMOOTH",
"1157.667 693.167 OFFCURVE",
"1104.333 740.167 OFFCURVE",
"1037 776.5 CURVE SMOOTH",
"969.667 812.833 OFFCURVE",
"894.333 840.667 OFFCURVE",
"811 860 CURVE SMOOTH",
"676 893 LINE SMOOTH",
"612.667 908.333 OFFCURVE",
"557.167 929.667 OFFCURVE",
"509.5 957 CURVE SMOOTH",
"461.833 984.333 OFFCURVE",
"438 1025.667 OFFCURVE",
"438 1081 CURVE SMOOTH",
"438 1131 OFFCURVE",
"459.167 1172.167 OFFCURVE",
"501.5 1204.5 CURVE SMOOTH",
"543.833 1236.833 OFFCURVE",
"604 1253 OFFCURVE",
"682 1253 CURVE SMOOTH",
"758 1253 OFFCURVE",
"818.833 1236.667 OFFCURVE",
"864.5 1204 CURVE SMOOTH",
"888 1187 OFFCURVE",
"906 1167 OFFCURVE",
"919 1143 CURVE SMOOTH",
"946 1092 OFFCURVE",
"984 1065 OFFCURVE",
"1078 1065 CURVE SMOOTH",
"1089 1065 LINE SMOOTH",
"1181 1065 OFFCURVE",
"1246 1139 OFFCURVE",
"1194 1248 CURVE SMOOTH",
"1185 1265 OFFCURVE",
"1176 1281 OFFCURVE",
"1165 1296.5 CURVE SMOOTH",
"1119 1363.5 OFFCURVE",
"1055 1415.833 OFFCURVE",
"973 1453.5 CURVE SMOOTH",
"891 1491.167 OFFCURVE",
"795 1510 OFFCURVE",
"685 1510 CURVE SMOOTH",
"577 1510 OFFCURVE",
"480.833 1491.333 OFFCURVE",
"396.5 1454 CURVE SMOOTH",
"312.167 1416.667 OFFCURVE",
"245.833 1364.333 OFFCURVE",
"197.5 1297 CURVE SMOOTH",
"149.167 1229.667 OFFCURVE",
"125 1151 OFFCURVE",
"125 1061 CURVE SMOOTH",
"125 953 OFFCURVE",
"160.667 866.167 OFFCURVE",
"232 800.5 CURVE SMOOTH",
"303.333 734.833 OFFCURVE",
"402 686.667 OFFCURVE",
"528 656 CURVE SMOOTH",
"692 615 LINE SMOOTH",
"773.333 595 OFFCURVE",
"836.5 571.333 OFFCURVE",
"881.5 544 CURVE SMOOTH",
"926.5 516.667 OFFCURVE",
"949 477.333 OFFCURVE",
"949 426 CURVE SMOOTH",
"949 369.333 OFFCURVE",
"924.167 323.5 OFFCURVE",
"874.5 288.5 CURVE SMOOTH",
"824.833 253.5 OFFCURVE",
"759.333 236 OFFCURVE",
"678 236 CURVE SMOOTH",
"596 236 OFFCURVE",
"527.5 254.833 OFFCURVE",
"472.5 292.5 CURVE SMOOTH",
"444 312 OFFCURVE",
"422 336 OFFCURVE",
"407 366 CURVE SMOOTH",
"376 429 OFFCURVE",
"337 462 OFFCURVE",
"240 462 CURVE SMOOTH",
"234 462 LINE SMOOTH",
"141 462 OFFCURVE",
"77 391 OFFCURVE",
"118 280 CURVE SMOOTH",
"146 208 OFFCURVE",
"190 149 OFFCURVE",
"251.5 101.5 CURVE SMOOTH",
"358.5 19.167 OFFCURVE",
"501.667 -22 OFFCURVE",
"681 -22 CURVE SMOOTH"
);
}
);
userData = {
assembly = "NPUSHB[ ]	/* 56 values pushed */\0120 4 5 1 5 4 1 128 0 1 2 5 1 2 126 0 5 5 3 97 0 3 3 109 77 0 2 2 0 97 6 1 0 0 110 0 78 1 0 30 28 26 25 22 20 8 6 4 3 0 42 1 42 7 12 22 \012CALL[ ]	/* CallFunction */";
};
width = 1341;
}
);
leftKerningGroup = S;
note = S;
rightKerningGroup = S;
unicode = 0053;
},
{
glyphname = Germandbls;
lastChange = "2024-07-06 19:36:07 +0000";
layers = (
{
layerId = "22A22D76-E3A3-44AE-B323-C96AF5899C07";
paths = (
{
closed = 1;
nodes = (
"135 169 LINE SMOOTH",
"135 60 OFFCURVE",
"189 0 OFFCURVE",
"288 0 CURVE SMOOTH",
"387 0 OFFCURVE",
"440 60 OFFCURVE",
"440 169 CURVE SMOOTH",
"440 981 LINE SMOOTH",
"440 1061.667 OFFCURVE",
"457 1129.5 OFFCURVE",
"491 1184.5 CURVE SMOOTH",
"525 1239.5 OFFCURVE",
"581.667 1267 OFFCURVE",
"661 1267 CURVE SMOOTH",
"716.333 1267 OFFCURVE",
"766.667 1258 OFFCURVE",
"812 1240 CURVE SMOOTH",
"857.333 1222 OFFCURVE",
"896.667 1200.333 OFFCURVE",
"930 1175 CURVE",
"734 949 LINE SMOOTH",
"678 884 OFFCURVE",
"656 832 OFFCURVE",
"656 766 CURVE SMOOTH",
"656 706 OFFCURVE",
"705 672 OFFCURVE",
"794 672 CURVE SMOOTH",
"833.333 672 OFFCURVE",
"875.333 665.5 OFFCURVE",
"920 652.5 CURVE SMOOTH",
"964.667 639.5 OFFCURVE",
"1002.833 615.667 OFFCURVE",
"1034.5 581 CURVE SMOOTH",
"1066.167 546.333 OFFCURVE",
"1082 496.667 OFFCURVE",
"1082 432 CURVE SMOOTH",
"1082 366.667 OFFCURVE",
"1060 315.333 OFFCURVE",
"1016 278 CURVE SMOOTH",
"972 240.667 OFFCURVE",
"911 222 OFFCURVE",
"833 222 CURVE SMOOTH",
"795 222 OFFCURVE",
"756.833 226.5 OFFCURVE",
"718.5 235.5 CURVE SMOOTH",
"700 240 OFFCURVE",
"682 245 OFFCURVE",
"665 250 CURVE SMOOTH",
"630 261 OFFCURVE",
"597 229 OFFCURVE",
"570 154 CURVE SMOOTH",
"543 81 OFFCURVE",
"685 -5 OFFCURVE",
"684.5 -4.5 CURVE SMOOTH",
"742.833 -14.833 OFFCURVE",
"799 -20 OFFCURVE",
"853 -20 CURVE SMOOTH",
"956.333 -20 OFFCURVE",
"1047.667 -1.667 OFFCURVE",
"1127 35 CURVE SMOOTH",
"1206.333 71.667 OFFCURVE",
"1268.667 123.667 OFFCURVE",
"1314 191 CURVE SMOOTH",
"1359.333 258.333 OFFCURVE",
"1382 338 OFFCURVE",
"1382 430 CURVE SMOOTH",
"1382 546 OFFCURVE",
"1344.333 643.167 OFFCURVE",
"1269 721.5 CURVE SMOOTH",
"1193.667 799.833 OFFCURVE",
"1092.667 846.667 OFFCURVE",
"966 862 CURVE",
"1183 1119 LINE SMOOTH",
"1256 1206 OFFCURVE",
"1250 1297 OFFCURVE",
"1152 1356 CURVE SMOOTH",
"1100 1386 OFFCURVE",
"1046 1413 OFFCURVE",
"989 1437.5 CURVE SMOOTH",
"875 1485.833 OFFCURVE",
"764.667 1510 OFFCURVE",
"658 1510 CURVE SMOOTH",
"496.667 1510 OFFCURVE",
"369.167 1462.833 OFFCURVE",
"275.5 1368.5 CURVE SMOOTH",
"181.833 1274.167 OFFCURVE",
"135 1145 OFFCURVE",
"135 981 CURVE SMOOTH"
);
}
);
userData = {
assembly = "MPPEM[ ]	/* MeasurePixelPerEm */\012PUSHB[ ]	/* 1 value pushed */\01225 \012LT[ ]	/* LessThan */\012IF[ ]	/* If */\012NPUSHB[ ]	/* 17 values pushed */\01232 31 8 7 4 3 4 19 1 2 3 18 1 1 2 3 76 \012ELSE[ ]	/* Else */\012NPUSHB[ ]	/* 17 values pushed */\01232 31 8 7 4 3 4 19 1 2 3 18 1 5 2 3 76 \012EIF[ ]	/* EndIf */\012MPPEM[ ]	/* MeasurePixelPerEm */\012PUSHB[ ]	/* 1 value pushed */\01225 \012LT[ ]	/* LessThan */\012IF[ ]	/* If */\012NPUSHB[ ]	/* 31 values pushed */\0120 3 4 2 4 3 2 128 0 4 4 0 97 0 0 0 109 77 0 2 2 1 97 6 5 2 1 1 110 1 78 \012ELSE[ ]	/* Else */\012NPUSHB[ ]	/* 35 values pushed */\0120 3 4 2 4 3 2 128 0 4 4 0 97 0 0 0 109 77 6 1 5 5 104 77 0 2 2 1 97 0 1 1 110 1 78 \012EIF[ ]	/* EndIf */\012NPUSHB[ ]	/* 14 values pushed */\0120 0 0 39 0 39 36 37 37 41 35 7 12 27 \012CALL[ ]	/* CallFunction */";
};
width = 1466;
}
);
leftKerningGroup = B;
note = uni1E9E;
rightKerningGroup = S;
unicode = 1E9E;
},
{
glyphname = Schwa;
lastChange = "2024-07-06 19:36:07 +0000";
layers = (
{
layerId = "22A22D76-E3A3-44AE-B323-C96AF5899C07";
paths = (
{
closed = 1;
nodes = (
"892.333 -20 OFFCURVE",
"1013.833 10.833 OFFCURVE",
"1117.5 72.5 CURVE SMOOTH",
"1221.167 134.167 OFFCURVE",
"1301.333 222 OFFCURVE",
"1358 336 CURVE SMOOTH",
"1414.667 450 OFFCURVE",
"1443 585.667 OFFCURVE",
"1443 743 CURVE SMOOTH",
"1443 903.667 OFFCURVE",
"1412.5 1041.333 OFFCURVE",
"1351.5 1156 CURVE SMOOTH",
"1290.5 1270.667 OFFCURVE",
"1207.5 1358.333 OFFCURVE",
"1102.5 1419 CURVE SMOOTH",
"997.5 1479.667 OFFCURVE",
"879.333 1510 OFFCURVE",
"748 1510 CURVE SMOOTH",
"636.667 1510 OFFCURVE",
"535.667 1488.667 OFFCURVE",
"445 1446 CURVE SMOOTH",
"354.333 1403.333 OFFCURVE",
"279.833 1344.5 OFFCURVE",
"221.5 1269.5 CURVE SMOOTH",
"192 1232 OFFCURVE",
"168 1191 OFFCURVE",
"150 1147 CURVE SMOOTH",
"117 1066 OFFCURVE",
"181 1010 OFFCURVE",
"287 1010 CURVE SMOOTH",
"381 1010 OFFCURVE",
"426 1055 OFFCURVE",
"488 1130 CURVE SMOOTH",
"503 1148 OFFCURVE",
"521 1164 OFFCURVE",
"540.5 1178.5 CURVE SMOOTH",
"596.833 1218.833 OFFCURVE",
"666 1239 OFFCURVE",
"748 1239 CURVE SMOOTH",
"857.333 1239 OFFCURVE",
"946.833 1200.5 OFFCURVE",
"1016.5 1123.5 CURVE SMOOTH",
"1086.167 1046.5 OFFCURVE",
"1124.667 936.667 OFFCURVE",
"1132 794 CURVE",
"268 794 LINE SMOOTH",
"159 794 OFFCURVE",
"99 734 OFFCURVE",
"99 625 CURVE SMOOTH",
"99 608 LINE SMOOTH",
"99 477.333 OFFCURVE",
"127.667 365.167 OFFCURVE",
"185 271.5 CURVE SMOOTH",
"242.333 177.833 OFFCURVE",
"320.333 105.833 OFFCURVE",
"419 55.5 CURVE SMOOTH",
"517.667 5.167 OFFCURVE",
"629 -20 OFFCURVE",
"753 -20 CURVE SMOOTH"
);
},
{
closed = 1;
nodes = (
"1090.667 461.333 OFFCURVE",
"1047.833 384.333 OFFCURVE",
"985.5 331 CURVE SMOOTH",
"923.167 277.667 OFFCURVE",
"845 251 OFFCURVE",
"751 251 CURVE SMOOTH",
"645.667 251 OFFCURVE",
"560.667 279 OFFCURVE",
"496 335 CURVE SMOOTH",
"431.333 391 OFFCURVE",
"398 466.667 OFFCURVE",
"396 562 CURVE",
"1114 562 LINE"
);
}
);
userData = {
assembly = "NPUSHB[ ]	/* 59 values pushed */\0120 3 2 1 2 3 1 128 0 1 0 5 6 1 5 103 0 2 2 4 97 0 4 4 109 77 0 6 6 0 97 7 1 0 0 110 0 78 1 0 30 28 26 25 18 16 13 12 10 8 6 5 0 24 1 24 8 12 22 \012CALL[ ]	/* CallFunction */";
};
width = 1537;
}
);
note = uni018F;
unicode = 018F;
},
{
glyphname = T;
lastChange = "2024-07-06 19:36:07 +0000";
layers = (
{
layerId = "22A22D76-E3A3-44AE-B323-C96AF5899C07";
paths = (
{
closed = 1;
nodes = (
"75 1281 OFFCURVE",
"135 1237 OFFCURVE",
"244 1237 CURVE SMOOTH",
"531 1237 LINE",
"531 169 LINE SMOOTH",
"531 60 OFFCURVE",
"585 0 OFFCURVE",
"684 0 CURVE SMOOTH",
"783 0 OFFCURVE",
"837 60 OFFCURVE",
"837 169 CURVE SMOOTH",
"837 1237 LINE",
"1123 1237 LINE SMOOTH",
"1232 1237 OFFCURVE",
"1292 1282 OFFCURVE",
"1292 1364 CURVE SMOOTH",
"1292 1446 OFFCURVE",
"1232 1490 OFFCURVE",
"1123 1490 CURVE SMOOTH",
"244 1490 LINE SMOOTH",
"135 1490 OFFCURVE",
"75 1446 OFFCURVE",
"75 1364 CURVE SMOOTH"
);
}
);
userData = {
assembly = "NPUSHB[ ]	/* 30 values pushed */\0124 3 2 1 1 0 95 0 0 0 103 77 0 2 2 104 2 78 0 0 0 7 0 7 17 17 17 5 12 25 \012CALL[ ]	/* CallFunction */";
};
width = 1367;
}
);
leftKerningGroup = "Kabashkir-cy";
note = T;
rightKerningGroup = "Enghe-cy";
unicode = 0054;
},
{
glyphname = Tdiagonalstroke;
lastChange = "2024-07-06 19:36:07 +0000";
layers = (
{
layerId = "22A22D76-E3A3-44AE-B323-C96AF5899C07";
paths = (
{
closed = 1;
nodes = (
"323 -209 OFFCURVE",
"362 -168 OFFCURVE",
"400 -80 CURVE SMOOTH",
"531 225 LINE",
"531 113 LINE SMOOTH",
"531 40 OFFCURVE",
"585 0 OFFCURVE",
"684 0 CURVE SMOOTH",
"783 0 OFFCURVE",
"837 60 OFFCURVE",
"837 169 CURVE SMOOTH",
"837 933 LINE",
"968 1237 LINE",
"1130 1237 LINE SMOOTH",
"1235 1237 OFFCURVE",
"1292 1282 OFFCURVE",
"1292 1364 CURVE SMOOTH",
"1292 1446 OFFCURVE",
"1232 1490 OFFCURVE",
"1123 1490 CURVE SMOOTH",
"1077 1490 LINE",
"1122 1595 LINE SMOOTH",
"1149 1658 OFFCURVE",
"1139 1699 OFFCURVE",
"1099 1699 CURVE SMOOTH",
"1052 1699 OFFCURVE",
"1012 1658 OFFCURVE",
"974 1570 CURVE SMOOTH",
"940 1490 LINE",
"244 1490 LINE SMOOTH",
"135 1490 OFFCURVE",
"75 1446 OFFCURVE",
"75 1364 CURVE SMOOTH",
"75 1282 OFFCURVE",
"135 1237 OFFCURVE",
"244 1237 CURVE SMOOTH",
"531 1237 LINE",
"531 540 LINE",
"294 -12 LINE SMOOTH",
"244 -129 OFFCURVE",
"237 -209 OFFCURVE",
"277 -209 CURVE SMOOTH"
);
}
);
userData = {
assembly = "PUSHB[ ]	/* 8 values pushed */\01215 12 1 3 5 0 1 76 \012MPPEM[ ]	/* MeasurePixelPerEm */\012PUSHB[ ]	/* 1 value pushed */\01212 \012LT[ ]	/* LessThan */\012IF[ ]	/* If */\012NPUSHB[ ]	/* 30 values pushed */\0120 2 1 1 2 112 7 1 6 5 6 134 4 1 0 0 1 95 3 1 1 1 103 77 0 5 5 104 5 78 \012ELSE[ ]	/* Else */\012NPUSHB[ ]	/* 29 values pushed */\0120 2 1 2 133 7 1 6 5 6 134 4 1 0 0 1 95 3 1 1 1 103 77 0 5 5 104 5 78 \012EIF[ ]	/* EndIf */\012NPUSHB[ ]	/* 15 values pushed */\0120 0 0 16 0 16 18 17 17 17 17 18 8 12 28 \012CALL[ ]	/* CallFunction */";
};
width = 1367;
}
);
leftKerningGroup = "Kabashkir-cy";
note = uni023E;
rightKerningGroup = "Enghe-cy";
unicode = 023E;
},
{
glyphname = Thook;
lastChange = "2024-07-06 19:36:07 +0000";
layers = (
{
layerId = "22A22D76-E3A3-44AE-B323-C96AF5899C07";
paths = (
{
closed = 1;
nodes = (
"105 1091 OFFCURVE",
"153 1065 OFFCURVE",
"242 1065 CURVE SMOOTH",
"330 1065 OFFCURVE",
"378 1083 OFFCURVE",
"378 1114 CURVE SMOOTH",
"378 1196 OFFCURVE",
"423.667 1237 OFFCURVE",
"515 1237 CURVE SMOOTH",
"644 1237 LINE",
"644 169 LINE SMOOTH",
"644 60 OFFCURVE",
"698 0 OFFCURVE",
"797 0 CURVE SMOOTH",
"896 0 OFFCURVE",
"950 60 OFFCURVE",
"950 169 CURVE SMOOTH",
"950 1237 LINE",
"1236 1237 LINE SMOOTH",
"1345 1237 OFFCURVE",
"1405 1282 OFFCURVE",
"1405 1364 CURVE SMOOTH",
"1405 1446 OFFCURVE",
"1345 1490 OFFCURVE",
"1236 1490 CURVE SMOOTH",
"523 1490 LINE SMOOTH",
"379.667 1490 OFFCURVE",
"274.167 1461.5 OFFCURVE",
"206.5 1404.5 CURVE SMOOTH",
"138.833 1347.5 OFFCURVE",
"105 1258.667 OFFCURVE",
"105 1138 CURVE SMOOTH"
);
}
);
userData = {
assembly = "MPPEM[ ]	/* MeasurePixelPerEm */\012PUSHB[ ]	/* 1 value pushed */\01216 \012LT[ ]	/* LessThan */\012IF[ ]	/* If */\012NPUSHB[ ]	/* 25 values pushed */\0125 1 4 1 2 1 4 114 3 1 1 1 0 95 0 0 0 103 77 0 2 2 104 2 78 \012ELSE[ ]	/* Else */\012NPUSHB[ ]	/* 26 values pushed */\0125 1 4 1 2 1 4 2 128 3 1 1 1 0 95 0 0 0 103 77 0 2 2 104 2 78 \012EIF[ ]	/* EndIf */\012NPUSHB[ ]	/* 13 values pushed */\0120 0 0 14 0 14 33 17 17 35 6 12 26 \012CALL[ ]	/* CallFunction */";
};
width = 1480;
}
);
leftKerningGroup = "Kabashkir-cy";
note = uni01AC;
rightKerningGroup = "Enghe-cy";
unicode = 01AC;
},
{
glyphname = Tonefive;
lastChange = "2024-07-06 19:36:07 +0000";
layers = (
{
layerId = "22A22D76-E3A3-44AE-B323-C96AF5899C07";
paths = (
{
closed = 1;
nodes = (
"799.333 -20 OFFCURVE",
"895.5 2.167 OFFCURVE",
"978.5 46.5 CURVE SMOOTH",
"1061.5 90.833 OFFCURVE",
"1126.167 151.667 OFFCURVE",
"1172.5 229 CURVE SMOOTH",
"1218.833 306.333 OFFCURVE",
"1242 395 OFFCURVE",
"1242 495 CURVE SMOOTH",
"1242 590.333 OFFCURVE",
"1221.667 674.833 OFFCURVE",
"1181 748.5 CURVE SMOOTH",
"1140.333 822.167 OFFCURVE",
"1084.833 880 OFFCURVE",
"1014.5 922 CURVE SMOOTH",
"944.167 964 OFFCURVE",
"864 985 OFFCURVE",
"774 985 CURVE SMOOTH",
"710 985 OFFCURVE",
"651.833 973.333 OFFCURVE",
"599.5 950 CURVE SMOOTH",
"547.167 926.667 OFFCURVE",
"507.667 897 OFFCURVE",
"481 861 CURVE",
"473 861 LINE",
"511 1238 LINE",
"991 1238 LINE SMOOTH",
"1100 1238 OFFCURVE",
"1160 1282 OFFCURVE",
"1160 1364 CURVE SMOOTH",
"1160 1446 OFFCURVE",
"1100 1490 OFFCURVE",
"991 1490 CURVE SMOOTH",
"244 1490 LINE SMOOTH",
"135 1490 OFFCURVE",
"75 1446 OFFCURVE",
"75 1364 CURVE SMOOTH",
"75 1282 OFFCURVE",
"131 1238 OFFCURVE",
"235 1238 CURVE",
"202 870 LINE SMOOTH",
"192 763 OFFCURVE",
"239 699 OFFCURVE",
"338 682 CURVE SMOOTH",
"425 667 OFFCURVE",
"557 731 OFFCURVE",
"556.5 731 CURVE SMOOTH",
"597.5 749 OFFCURVE",
"640.333 758 OFFCURVE",
"685 758 CURVE SMOOTH",
"761 758 OFFCURVE",
"823.5 732.833 OFFCURVE",
"872.5 682.5 CURVE SMOOTH",
"921.5 632.167 OFFCURVE",
"946 567.333 OFFCURVE",
"946 488 CURVE SMOOTH",
"946 409.333 OFFCURVE",
"922 345.333 OFFCURVE",
"874 296 CURVE SMOOTH",
"826 246.667 OFFCURVE",
"764.667 222 OFFCURVE",
"690 222 CURVE SMOOTH",
"626.667 222 OFFCURVE",
"572 240.167 OFFCURVE",
"526 276.5 CURVE SMOOTH",
"503 295 OFFCURVE",
"485 315 OFFCURVE",
"473 339 CURVE SMOOTH",
"447 391 OFFCURVE",
"410 418 OFFCURVE",
"316 418 CURVE SMOOTH",
"304 418 LINE SMOOTH",
"212 418 OFFCURVE",
"146 342 OFFCURVE",
"203 234 CURVE SMOOTH",
"210 219 OFFCURVE",
"219 206 OFFCURVE",
"228.5 192 CURVE SMOOTH",
"274.833 126 OFFCURVE",
"337.833 74.167 OFFCURVE",
"417.5 36.5 CURVE SMOOTH",
"497.167 -1.167 OFFCURVE",
"588 -20 OFFCURVE",
"690 -20 CURVE SMOOTH"
);
}
);
userData = {
assembly = "NPUSHB[ ]	/* 73 values pushed */\01225 1 3 7 18 17 2 1 3 2 76 0 1 3 2 3 1 2 128 0 7 0 3 1 7 3 105 6 1 4 4 5 95 0 5 5 103 77 0 2 2 0 97 8 1 0 0 110 0 78 1 0 30 28 24 23 22 21 20 19 15 13 9 7 5 4 0 36 1 36 9 12 22 \012CALL[ ]	/* CallFunction */";
};
width = 1336;
}
);
note = uni01BC;
unicode = 01BC;
},
{
glyphname = Tonesix;
lastChange = "2024-07-06 19:36:07 +0000";
layers = (
{
layerId = "22A22D76-E3A3-44AE-B323-C96AF5899C07";
paths = (
{
closed = 1;
nodes = (
"690 935 LINE",
"690 1321 LINE SMOOTH",
"690 1430 OFFCURVE",
"630 1490 OFFCURVE",
"521 1490 CURVE SMOOTH",
"194 1490 LINE SMOOTH",
"85 1490 OFFCURVE",
"25 1446 OFFCURVE",
"25 1364 CURVE SMOOTH",
"25 1282 OFFCURVE",
"85 1237 OFFCURVE",
"194 1237 CURVE SMOOTH",
"385 1237 LINE",
"385 169 LINE SMOOTH",
"385 60 OFFCURVE",
"445 0 OFFCURVE",
"554 0 CURVE SMOOTH",
"941 0 LINE SMOOTH",
"1058.333 0 OFFCURVE",
"1159.333 20 OFFCURVE",
"1244 60 CURVE SMOOTH",
"1328.667 100 OFFCURVE",
"1393.833 155.667 OFFCURVE",
"1439.5 227 CURVE SMOOTH",
"1485.167 298.333 OFFCURVE",
"1508 380.667 OFFCURVE",
"1508 474 CURVE SMOOTH",
"1508 567.333 OFFCURVE",
"1485.167 648.5 OFFCURVE",
"1439.5 717.5 CURVE SMOOTH",
"1393.833 786.5 OFFCURVE",
"1328.667 840 OFFCURVE",
"1244 878 CURVE SMOOTH",
"1159.333 916 OFFCURVE",
"1058.333 935 OFFCURVE",
"941 935 CURVE SMOOTH"
);
},
{
closed = 1;
nodes = (
"690 691 LINE",
"941 691 LINE SMOOTH",
"1026.333 691 OFFCURVE",
"1091.833 670.167 OFFCURVE",
"1137.5 628.5 CURVE SMOOTH",
"1183.167 586.833 OFFCURVE",
"1206 536.333 OFFCURVE",
"1206 477 CURVE SMOOTH",
"1206 414.333 OFFCURVE",
"1183.167 360.333 OFFCURVE",
"1137.5 315 CURVE SMOOTH",
"1091.833 269.667 OFFCURVE",
"1026.333 247.333 OFFCURVE",
"941 248 CURVE SMOOTH",
"690 248 LINE"
);
}
);
userData = {
assembly = "NPUSHB[ ]	/* 44 values pushed */\0120 0 6 1 5 4 0 5 103 0 2 2 3 95 0 3 3 103 77 0 4 4 1 95 0 1 1 104 1 78 15 15 15 23 15 22 34 17 17 38 32 7 12 27 \012CALL[ ]	/* CallFunction */";
};
width = 1595;
}
);
note = uni0184;
unicode = 0184;
},
{
glyphname = Tonetwo;
lastChange = "2024-07-06 19:36:07 +0000";
layers = (
{
layerId = "22A22D76-E3A3-44AE-B323-C96AF5899C07";
paths = (
{
closed = 1;
nodes = (
"839.333 -22 OFFCURVE",
"982.5 19.167 OFFCURVE",
"1089.5 101.5 CURVE SMOOTH",
"1151 149 OFFCURVE",
"1195 208 OFFCURVE",
"1223 280 CURVE SMOOTH",
"1264 391 OFFCURVE",
"1198 462 OFFCURVE",
"1101 462 CURVE SMOOTH",
"1004 462 OFFCURVE",
"973 410 OFFCURVE",
"911 331 CURVE SMOOTH",
"899 317 OFFCURVE",
"885 304 OFFCURVE",
"868.5 292.5 CURVE SMOOTH",
"813.5 254.833 OFFCURVE",
"745 236 OFFCURVE",
"663 236 CURVE SMOOTH",
"581.667 236 OFFCURVE",
"516.167 253.5 OFFCURVE",
"466.5 288.5 CURVE SMOOTH",
"416.833 323.5 OFFCURVE",
"392 369.333 OFFCURVE",
"392 426 CURVE SMOOTH",
"392 477.333 OFFCURVE",
"414.5 516.667 OFFCURVE",
"459.5 544 CURVE SMOOTH",
"504.5 571.333 OFFCURVE",
"567.667 595 OFFCURVE",
"649 615 CURVE SMOOTH",
"813 656 LINE SMOOTH",
"939 686.667 OFFCURVE",
"1037.667 734.833 OFFCURVE",
"1109 800.5 CURVE SMOOTH",
"1180.333 866.167 OFFCURVE",
"1216 953 OFFCURVE",
"1216 1061 CURVE SMOOTH",
"1216 1151 OFFCURVE",
"1191.833 1229.667 OFFCURVE",
"1143.5 1297 CURVE SMOOTH",
"1095.167 1364.333 OFFCURVE",
"1028.833 1416.667 OFFCURVE",
"944.5 1454 CURVE SMOOTH",
"860.167 1491.333 OFFCURVE",
"764 1510 OFFCURVE",
"656 1510 CURVE SMOOTH",
"546 1510 OFFCURVE",
"450 1491.167 OFFCURVE",
"368 1453.5 CURVE SMOOTH",
"286 1415.833 OFFCURVE",
"222 1363.5 OFFCURVE",
"176 1296.5 CURVE SMOOTH",
"153 1262 OFFCURVE",
"135 1226 OFFCURVE",
"123 1186 CURVE SMOOTH",
"101 1112 OFFCURVE",
"164 1065 OFFCURVE",
"263 1065 CURVE SMOOTH",
"357 1065 OFFCURVE",
"387 1117 OFFCURVE",
"455 1187 CURVE SMOOTH",
"462 1193 OFFCURVE",
"469 1199 OFFCURVE",
"476.5 1204 CURVE SMOOTH",
"522.167 1236.667 OFFCURVE",
"583 1253 OFFCURVE",
"659 1253 CURVE SMOOTH",
"737 1253 OFFCURVE",
"797.333 1236.833 OFFCURVE",
"840 1204.5 CURVE SMOOTH",
"882.667 1172.167 OFFCURVE",
"904 1131 OFFCURVE",
"904 1081 CURVE SMOOTH",
"904 1025.667 OFFCURVE",
"880 984.333 OFFCURVE",
"832 957 CURVE SMOOTH",
"784 929.667 OFFCURVE",
"728.333 908.333 OFFCURVE",
"665 893 CURVE SMOOTH",
"530 860 LINE SMOOTH",
"446.667 840.667 OFFCURVE",
"371.333 812.833 OFFCURVE",
"304 776.5 CURVE SMOOTH",
"236.667 740.167 OFFCURVE",
"183.333 693.167 OFFCURVE",
"144 635.5 CURVE SMOOTH",
"104.667 577.833 OFFCURVE",
"85 507.333 OFFCURVE",
"85 424 CURVE SMOOTH",
"85 288.667 OFFCURVE",
"135.5 180.5 OFFCURVE",
"236.5 99.5 CURVE SMOOTH",
"337.5 18.5 OFFCURVE",
"478.667 -22 OFFCURVE",
"660 -22 CURVE SMOOTH"
);
}
);
userData = {
assembly = "NPUSHB[ ]	/* 56 values pushed */\0120 2 1 5 1 2 5 128 0 5 4 1 5 4 126 0 1 1 3 97 0 3 3 109 77 0 4 4 0 97 6 1 0 0 110 0 78 1 0 40 39 37 35 23 21 18 17 15 13 0 42 1 42 7 12 22 \012CALL[ ]	/* CallFunction */";
};
width = 1341;
}
);
leftKerningGroup = S;
note = uni01A7;
rightKerningGroup = B;
unicode = 01A7;
},
{
glyphname = Tretroflexhook;
lastChange = "2024-07-06 19:36:07 +0000";
layers = (
{
layerId = "22A22D76-E3A3-44AE-B323-C96AF5899C07";
paths = (
{
closed = 1;
nodes = (
"895 -435 OFFCURVE",
"896 -435 OFFCURVE",
"897 -435 CURVE SMOOTH",
"1002 -435 OFFCURVE",
"1053 -379 OFFCURVE",
"1053 -306 CURVE SMOOTH",
"1053 -235 OFFCURVE",
"964 -202 OFFCURVE",
"964 -202 CURVE SMOOTH",
"917.333 -202 OFFCURVE",
"884.5 -195.333 OFFCURVE",
"865.5 -182 CURVE SMOOTH",
"846.5 -168.667 OFFCURVE",
"837 -146 OFFCURVE",
"837 -114 CURVE SMOOTH",
"837 1237 LINE",
"1123 1237 LINE SMOOTH",
"1232 1237 OFFCURVE",
"1292 1282 OFFCURVE",
"1292 1364 CURVE SMOOTH",
"1292 1446 OFFCURVE",
"1232 1490 OFFCURVE",
"1123 1490 CURVE SMOOTH",
"244 1490 LINE SMOOTH",
"135 1490 OFFCURVE",
"75 1446 OFFCURVE",
"75 1364 CURVE SMOOTH",
"75 1282 OFFCURVE",
"135 1237 OFFCURVE",
"244 1237 CURVE SMOOTH",
"531 1237 LINE",
"531 -118 LINE SMOOTH",
"531 -329.333 OFFCURVE",
"652 -435 OFFCURVE",
"894 -435 CURVE SMOOTH"
);
}
);
userData = {
assembly = "NPUSHB[ ]	/* 50 values pushed */\01214 1 4 1 15 1 0 4 2 76 3 1 1 1 2 95 0 2 2 103 77 0 4 4 0 97 5 1 0 0 114 0 78 1 0 13 11 8 7 6 5 4 3 0 16 1 16 6 12 22 \012CALL[ ]	/* CallFunction */";
};
width = 1367;
}
);
leftKerningGroup = "Kabashkir-cy";
note = Trthook;
rightKerningGroup = "Enghe-cy";
unicode = 01AE;
},
{
glyphname = U;
lastChange = "2024-07-06 19:36:07 +0000";
layers = (
{
layerId = "22A22D76-E3A3-44AE-B323-C96AF5899C07";
paths = (
{
closed = 1;
nodes = (
"872.667 -21 OFFCURVE",
"980 1.667 OFFCURVE",
"1072 47 CURVE SMOOTH",
"1164 92.333 OFFCURVE",
"1235.833 155.833 OFFCURVE",
"1287.5 237.5 CURVE SMOOTH",
"1339.167 319.167 OFFCURVE",
"1365 414.333 OFFCURVE",
"1365 523 CURVE SMOOTH",
"1365 1321 LINE SMOOTH",
"1365 1430 OFFCURVE",
"1311 1490 OFFCURVE",
"1212 1490 CURVE SMOOTH",
"1113 1490 OFFCURVE",
"1059 1430 OFFCURVE",
"1059 1321 CURVE SMOOTH",
"1059 548 LINE SMOOTH",
"1059 461.333 OFFCURVE",
"1030.833 389.833 OFFCURVE",
"974.5 333.5 CURVE SMOOTH",
"918.167 277.167 OFFCURVE",
"843.333 249 OFFCURVE",
"750 249 CURVE SMOOTH",
"656 249 OFFCURVE",
"580.833 277.167 OFFCURVE",
"524.5 333.5 CURVE SMOOTH",
"468.167 389.833 OFFCURVE",
"440 461.333 OFFCURVE",
"440 548 CURVE SMOOTH",
"440 1321 LINE SMOOTH",
"440 1430 OFFCURVE",
"386 1490 OFFCURVE",
"288 1490 CURVE SMOOTH",
"189 1490 OFFCURVE",
"135 1430 OFFCURVE",
"135 1321 CURVE SMOOTH",
"135 523 LINE SMOOTH",
"135 414.333 OFFCURVE",
"160.5 319.167 OFFCURVE",
"211.5 237.5 CURVE SMOOTH",
"262.5 155.833 OFFCURVE",
"334 92.333 OFFCURVE",
"426 47 CURVE SMOOTH",
"518 1.667 OFFCURVE",
"626 -21 OFFCURVE",
"750 -21 CURVE SMOOTH"
);
}
);
userData = {
assembly = "NPUSHB[ ]	/* 33 values pushed */\0123 1 1 1 103 77 0 2 2 0 97 4 1 0 0 110 0 78 1 0 15 14 11 9 6 5 0 19 1 19 5 12 22 \012CALL[ ]	/* CallFunction */";
};
width = 1499;
}
);
leftKerningGroup = U;
note = U;
rightKerningGroup = J;
unicode = 0055;
},
{
glyphname = Ubar;
lastChange = "2024-07-06 19:36:07 +0000";
layers = (
{
layerId = "22A22D76-E3A3-44AE-B323-C96AF5899C07";
paths = (
{
closed = 1;
nodes = (
"1562 818 OFFCURVE",
"1504 848 OFFCURVE",
"1398 848 CURVE",
"1398 1321 LINE SMOOTH",
"1398 1430 OFFCURVE",
"1344 1490 OFFCURVE",
"1245 1490 CURVE SMOOTH",
"1146 1490 OFFCURVE",
"1092 1430 OFFCURVE",
"1092 1321 CURVE SMOOTH",
"1092 848 LINE",
"474 848 LINE",
"474 1321 LINE SMOOTH",
"474 1430 OFFCURVE",
"420 1490 OFFCURVE",
"321 1490 CURVE SMOOTH",
"222 1490 OFFCURVE",
"168 1430 OFFCURVE",
"168 1321 CURVE SMOOTH",
"168 848 LINE",
"80 848 LINE SMOOTH",
"23 848 OFFCURVE",
"-9 817 OFFCURVE",
"-9 761 CURVE SMOOTH",
"-9 705 OFFCURVE",
"51 674 OFFCURVE",
"160 674 CURVE SMOOTH",
"168 674 LINE",
"168 523 LINE SMOOTH",
"168 414.333 OFFCURVE",
"193.5 319.167 OFFCURVE",
"244.5 237.5 CURVE SMOOTH",
"295.5 155.833 OFFCURVE",
"367.167 92.333 OFFCURVE",
"459.5 47 CURVE SMOOTH",
"551.833 1.667 OFFCURVE",
"659.667 -21 OFFCURVE",
"783 -21 CURVE SMOOTH",
"905.667 -21 OFFCURVE",
"1013.167 1.667 OFFCURVE",
"1105.5 47 CURVE SMOOTH",
"1197.833 92.333 OFFCURVE",
"1269.667 155.833 OFFCURVE",
"1321 237.5 CURVE SMOOTH",
"1372.333 319.167 OFFCURVE",
"1398 414.333 OFFCURVE",
"1398 523 CURVE SMOOTH",
"1398 674 LINE",
"1480 674 LINE SMOOTH",
"1533 674 OFFCURVE",
"1562 705 OFFCURVE",
"1562 761 CURVE SMOOTH"
);
},
{
closed = 1;
nodes = (
"1092 674 LINE",
"1092 548 LINE SMOOTH",
"1092 461.333 OFFCURVE",
"1064 389.833 OFFCURVE",
"1008 333.5 CURVE SMOOTH",
"952 277.167 OFFCURVE",
"877 249 OFFCURVE",
"783 249 CURVE SMOOTH",
"689.667 249 OFFCURVE",
"614.833 277.167 OFFCURVE",
"558.5 333.5 CURVE SMOOTH",
"502.167 389.833 OFFCURVE",
"474 461.333 OFFCURVE",
"474 548 CURVE SMOOTH",
"474 674 LINE"
);
}
);
userData = {
assembly = "NPUSHB[ ]	/* 50 values pushed */\01210 7 5 3 3 8 2 2 0 9 3 0 103 6 1 4 4 103 77 0 9 9 1 97 0 1 1 110 1 78 0 0 29 27 24 23 0 22 0 22 17 17 17 17 20 36 17 11 12 29 \012CALL[ ]	/* CallFunction */";
};
width = 1553;
}
);
leftKerningGroup = U;
note = uni0244;
rightKerningGroup = J;
unicode = 0244;
},
{
glyphname = Uhorn;
lastChange = "2024-07-06 19:36:07 +0000";
layers = (
{
layerId = "22A22D76-E3A3-44AE-B323-C96AF5899C07";
paths = (
{
closed = 1;
nodes = (
"872.667 -21 OFFCURVE",
"980 1.667 OFFCURVE",
"1072 47 CURVE SMOOTH",
"1164 92.333 OFFCURVE",
"1235.833 155.833 OFFCURVE",
"1287.5 237.5 CURVE SMOOTH",
"1339.167 319.167 OFFCURVE",
"1365 414.333 OFFCURVE",
"1365 523 CURVE SMOOTH",
"1365 1297 LINE",
"1417.667 1303.667 OFFCURVE",
"1459.667 1323.833 OFFCURVE",
"1491 1357.5 CURVE SMOOTH",
"1522.333 1391.167 OFFCURVE",
"1538 1439.333 OFFCURVE",
"1538 1502 CURVE SMOOTH",
"1538 1529 LINE SMOOTH",
"1538 1638 OFFCURVE",
"1491 1698 OFFCURVE",
"1405 1698 CURVE SMOOTH",
"1319 1698 OFFCURVE",
"1272 1638 OFFCURVE",
"1272 1529 CURVE SMOOTH",
"1272 1516 LINE SMOOTH",
"1272 1498.667 OFFCURVE",
"1263.333 1490 OFFCURVE",
"1246 1490 CURVE SMOOTH",
"1228 1490 LINE SMOOTH",
"1119 1490 OFFCURVE",
"1059 1430 OFFCURVE",
"1059 1321 CURVE SMOOTH",
"1059 548 LINE SMOOTH",
"1059 461.333 OFFCURVE",
"1030.833 389.833 OFFCURVE",
"974.5 333.5 CURVE SMOOTH",
"918.167 277.167 OFFCURVE",
"843.333 249 OFFCURVE",
"750 249 CURVE SMOOTH",
"656 249 OFFCURVE",
"580.833 277.167 OFFCURVE",
"524.5 333.5 CURVE SMOOTH",
"468.167 389.833 OFFCURVE",
"440 461.333 OFFCURVE",
"440 548 CURVE SMOOTH",
"440 1321 LINE SMOOTH",
"440 1430 OFFCURVE",
"386 1490 OFFCURVE",
"288 1490 CURVE SMOOTH",
"189 1490 OFFCURVE",
"135 1430 OFFCURVE",
"135 1321 CURVE SMOOTH",
"135 523 LINE SMOOTH",
"135 414.333 OFFCURVE",
"160.5 319.167 OFFCURVE",
"211.5 237.5 CURVE SMOOTH",
"262.5 155.833 OFFCURVE",
"334 92.333 OFFCURVE",
"426 47 CURVE SMOOTH",
"518 1.667 OFFCURVE",
"626 -21 OFFCURVE",
"750 -21 CURVE SMOOTH"
);
}
);
userData = {
assembly = "NPUSHB[ ]	/* 46 values pushed */\01223 1 2 1 1 76 0 4 1 4 133 3 1 1 1 103 77 0 2 2 0 97 5 1 0 0 110 0 78 1 0 19 18 16 14 11 9 6 5 0 27 1 27 6 12 22 \012CALL[ ]	/* CallFunction */";
};
width = 1496;
}
);
leftKerningGroup = U;
note = Uhorn;
rightKerningGroup = Uhorn;
unicode = 01AF;
},
{
glyphname = "Upsilon-latin";
lastChange = "2024-07-06 19:36:07 +0000";
layers = (
{
layerId = "22A22D76-E3A3-44AE-B323-C96AF5899C07";
paths = (
{
closed = 1;
nodes = (
"95 545.667 OFFCURVE",
"125 424.167 OFFCURVE",
"185 318.5 CURVE SMOOTH",
"245 212.833 OFFCURVE",
"327.833 130 OFFCURVE",
"433.5 70 CURVE SMOOTH",
"539.167 10 OFFCURVE",
"660.333 -20 OFFCURVE",
"797 -20 CURVE SMOOTH",
"933.667 -20 OFFCURVE",
"1054.667 10 OFFCURVE",
"1160 70 CURVE SMOOTH",
"1265.333 130 OFFCURVE",
"1348 212.833 OFFCURVE",
"1408 318.5 CURVE SMOOTH",
"1468 424.167 OFFCURVE",
"1498 545.667 OFFCURVE",
"1498 683 CURVE SMOOTH",
"1498 809 OFFCURVE",
"1472.833 917.333 OFFCURVE",
"1422.5 1008 CURVE SMOOTH",
"1372.167 1098.667 OFFCURVE",
"1304 1171 OFFCURVE",
"1218 1225 CURVE",
"1218 1237 LINE",
"1358 1237 LINE SMOOTH",
"1449 1237 OFFCURVE",
"1498 1282 OFFCURVE",
"1498 1364 CURVE SMOOTH",
"1498 1446 OFFCURVE",
"1438 1490 OFFCURVE",
"1329 1490 CURVE SMOOTH",
"1081 1490 LINE SMOOTH",
"972 1490 OFFCURVE",
"912 1430 OFFCURVE",
"912 1321 CURVE SMOOTH",
"912 1306 LINE SMOOTH",
"912 1214 OFFCURVE",
"955 1163 OFFCURVE",
"1024 1101 CURVE SMOOTH",
"1056 1073 OFFCURVE",
"1085 1038 OFFCURVE",
"1111 996.5 CURVE SMOOTH",
"1163.667 912.167 OFFCURVE",
"1190 815 OFFCURVE",
"1190 705 CURVE SMOOTH",
"1190 619 OFFCURVE",
"1173.167 541.833 OFFCURVE",
"1139.5 473.5 CURVE SMOOTH",
"1105.833 405.167 OFFCURVE",
"1059.5 351.167 OFFCURVE",
"1000.5 311.5 CURVE SMOOTH",
"941.5 271.833 OFFCURVE",
"873.667 252 OFFCURVE",
"797 252 CURVE SMOOTH",
"720.333 252 OFFCURVE",
"652.333 271.833 OFFCURVE",
"593 311.5 CURVE SMOOTH",
"533.667 351.167 OFFCURVE",
"487.333 405.167 OFFCURVE",
"454 473.5 CURVE SMOOTH",
"420.667 541.833 OFFCURVE",
"404 619 OFFCURVE",
"404 705 CURVE SMOOTH",
"404 815 OFFCURVE",
"430.5 912.167 OFFCURVE",
"483.5 996.5 CURVE SMOOTH",
"509 1037 OFFCURVE",
"538 1072 OFFCURVE",
"570 1101 CURVE SMOOTH",
"639 1163 OFFCURVE",
"682 1213 OFFCURVE",
"682 1305 CURVE SMOOTH",
"682 1331 LINE SMOOTH",
"682 1434 OFFCURVE",
"622 1490 OFFCURVE",
"513 1490 CURVE SMOOTH",
"264 1490 LINE SMOOTH",
"155 1490 OFFCURVE",
"95 1446 OFFCURVE",
"95 1364 CURVE SMOOTH",
"95 1282 OFFCURVE",
"155 1237 OFFCURVE",
"264 1237 CURVE SMOOTH",
"376 1237 LINE",
"376 1225 LINE",
"290 1170.333 OFFCURVE",
"221.667 1097.833 OFFCURVE",
"171 1007.5 CURVE SMOOTH",
"120.333 917.167 OFFCURVE",
"95 809 OFFCURVE",
"95 683 CURVE SMOOTH"
);
}
);
userData = {
assembly = "NPUSHB[ ]	/* 39 values pushed */\01222 8 2 2 0 1 76 4 1 0 0 1 95 3 1 1 1 103 77 0 2 2 5 97 0 5 5 110 5 78 39 17 23 39 17 35 6 12 28 \012CALL[ ]	/* CallFunction */";
};
width = 1595;
}
);
note = Upsilon2;
unicode = 01B1;
},
{
glyphname = V;
lastChange = "2024-07-06 19:36:07 +0000";
layers = (
{
layerId = "22A22D76-E3A3-44AE-B323-C96AF5899C07";
paths = (
{
closed = 1;
nodes = (
"825 0 LINE SMOOTH",
"923 0 OFFCURVE",
"985 43 OFFCURVE",
"1017 137 CURVE SMOOTH",
"1414 1297 LINE SMOOTH",
"1454 1414 OFFCURVE",
"1405 1490 OFFCURVE",
"1289 1490 CURVE SMOOTH",
"1190 1490 OFFCURVE",
"1128 1445 OFFCURVE",
"1098 1351 CURVE SMOOTH",
"913 771 LINE SMOOTH",
"890.333 695.667 OFFCURVE",
"867.5 614.667 OFFCURVE",
"844.5 528 CURVE SMOOTH",
"821.5 441.333 OFFCURVE",
"797.333 347.333 OFFCURVE",
"772 246 CURVE",
"746.667 346.667 OFFCURVE",
"722 440.667 OFFCURVE",
"698 528 CURVE SMOOTH",
"674 615.333 OFFCURVE",
"650 696.333 OFFCURVE",
"626 771 CURVE SMOOTH",
"434 1352 LINE SMOOTH",
"403 1446 OFFCURVE",
"341 1490 OFFCURVE",
"242 1490 CURVE SMOOTH",
"219 1490 LINE SMOOTH",
"116 1490 OFFCURVE",
"76 1414 OFFCURVE",
"117 1297 CURVE SMOOTH",
"523 137 LINE SMOOTH",
"555 44 OFFCURVE",
"618 0 OFFCURVE",
"716 0 CURVE SMOOTH"
);
}
);
userData = {
assembly = "NPUSHB[ ]	/* 30 values pushed */\0126 1 2 0 1 76 1 1 0 0 103 77 3 1 2 2 104 2 78 0 0 0 12 0 12 24 17 4 12 24 \012CALL[ ]	/* CallFunction */";
};
width = 1529;
}
);
leftKerningGroup = V;
note = V;
rightKerningGroup = V;
unicode = 0056;
},
{
glyphname = "V-middleWelsh";
lastChange = "2024-07-06 19:36:07 +0000";
layers = (
{
layerId = "22A22D76-E3A3-44AE-B323-C96AF5899C07";
paths = (
{
closed = 1;
nodes = (
"786 685 OFFCURVE",
"807 662 OFFCURVE",
"826 636.5 CURVE SMOOTH",
"863.333 586.167 OFFCURVE",
"882 522.667 OFFCURVE",
"882 446 CURVE SMOOTH",
"882 377.333 OFFCURVE",
"862.667 323.667 OFFCURVE",
"824 285 CURVE SMOOTH",
"785.333 246.333 OFFCURVE",
"733 227 OFFCURVE",
"667 227 CURVE SMOOTH",
"597.667 227 OFFCURVE",
"543.5 253 OFFCURVE",
"504.5 305 CURVE SMOOTH",
"465.5 357 OFFCURVE",
"445.667 429.333 OFFCURVE",
"445 522 CURVE",
"445 629 LINE SMOOTH",
"445 758.333 OFFCURVE",
"465.5 864.333 OFFCURVE",
"506.5 947 CURVE SMOOTH",
"547.5 1029.667 OFFCURVE",
"603.833 1093.5 OFFCURVE",
"675.5 1138.5 CURVE SMOOTH",
"712 1162 OFFCURVE",
"752 1181 OFFCURVE",
"794 1196 CURVE SMOOTH",
"877 1227 OFFCURVE",
"917 1271 OFFCURVE",
"906 1352 CURVE SMOOTH",
"896 1431 OFFCURVE",
"826 1470 OFFCURVE",
"718 1438 CURVE SMOOTH",
"636 1413 OFFCURVE",
"560 1379 OFFCURVE",
"491.5 1334.5 CURVE SMOOTH",
"377.833 1260.833 OFFCURVE",
"289.5 1163.833 OFFCURVE",
"226.5 1043.5 CURVE SMOOTH",
"163.5 923.167 OFFCURVE",
"132 783.333 OFFCURVE",
"132 624 CURVE SMOOTH",
"132 562 LINE SMOOTH",
"132 446 OFFCURVE",
"154.5 344.333 OFFCURVE",
"199.5 257 CURVE SMOOTH",
"244.5 169.667 OFFCURVE",
"307.5 101.667 OFFCURVE",
"388.5 53 CURVE SMOOTH",
"469.5 4.333 OFFCURVE",
"564.667 -20 OFFCURVE",
"674 -20 CURVE SMOOTH",
"829.333 -20 OFFCURVE",
"953.833 22.667 OFFCURVE",
"1047.5 108 CURVE SMOOTH",
"1141.167 193.333 OFFCURVE",
"1188 312.667 OFFCURVE",
"1188 466 CURVE SMOOTH",
"1188 544.667 OFFCURVE",
"1171.167 617 OFFCURVE",
"1137.5 683 CURVE SMOOTH",
"1103.833 749 OFFCURVE",
"1058.667 806.667 OFFCURVE",
"1002 856 CURVE SMOOTH",
"974 881 OFFCURVE",
"944 902 OFFCURVE",
"913 922 CURVE SMOOTH",
"851 960 OFFCURVE",
"791 934 OFFCURVE",
"748 864 CURVE SMOOTH",
"704 792 OFFCURVE",
"713 745 OFFCURVE",
"761 705 CURVE SMOOTH"
);
}
);
userData = {
assembly = "NPUSHB[ ]	/* 22 values pushed */\01217 1 2 1 74 0 1 1 0 97 0 0 0 110 0 78 27 25 39 2 12 23 \012CALL[ ]	/* CallFunction */";
};
width = 1319;
}
);
note = uni1EFC;
unicode = 1EFC;
},
{
glyphname = "Gamma-latin";
lastChange = "2024-07-06 19:36:07 +0000";
layers = (
{
layerId = "22A22D76-E3A3-44AE-B323-C96AF5899C07";
paths = (
{
closed = 1;
nodes = (
"147 1490 OFFCURVE",
"102 1408 OFFCURVE",
"159 1290 CURVE SMOOTH",
"602 384 LINE",
"559.333 291.333 OFFCURVE",
"524.167 214.167 OFFCURVE",
"496.5 152.5 CURVE SMOOTH",
"468.833 90.833 OFFCURVE",
"447.167 40.333 OFFCURVE",
"431.5 1 CURVE SMOOTH",
"415.833 -38.333 OFFCURVE",
"404.833 -70.667 OFFCURVE",
"398.5 -96 CURVE SMOOTH",
"392.167 -121.333 OFFCURVE",
"389 -144.333 OFFCURVE",
"389 -165 CURVE SMOOTH",
"389 -252.333 OFFCURVE",
"422.333 -320.333 OFFCURVE",
"489 -369 CURVE SMOOTH",
"555.667 -417.667 OFFCURVE",
"643.667 -442 OFFCURVE",
"753 -442 CURVE SMOOTH",
"861.667 -442 OFFCURVE",
"948.5 -417 OFFCURVE",
"1013.5 -367 CURVE SMOOTH",
"1078.5 -317 OFFCURVE",
"1111 -252 OFFCURVE",
"1111 -172 CURVE SMOOTH",
"1111 -124 OFFCURVE",
"1093.167 -55.5 OFFCURVE",
"1057.5 33.5 CURVE SMOOTH",
"1021.833 122.5 OFFCURVE",
"971.333 238.667 OFFCURVE",
"906 382 CURVE",
"1347 1291 LINE SMOOTH",
"1404 1408 OFFCURVE",
"1358 1490 OFFCURVE",
"1236 1490 CURVE SMOOTH",
"1140 1490 OFFCURVE",
"1078 1449 OFFCURVE",
"1039 1362 CURVE SMOOTH",
"753 721 LINE",
"466 1362 LINE SMOOTH",
"427 1449 OFFCURVE",
"365 1490 OFFCURVE",
"269 1490 CURVE SMOOTH"
);
},
{
closed = 1;
nodes = (
"773.667 20.333 OFFCURVE",
"788.333 -20.167 OFFCURVE",
"799 -56.5 CURVE SMOOTH",
"809.667 -92.833 OFFCURVE",
"815 -124.667 OFFCURVE",
"815 -152 CURVE SMOOTH",
"815 -202 OFFCURVE",
"794.333 -227 OFFCURVE",
"753 -227 CURVE SMOOTH",
"712.333 -227 OFFCURVE",
"692 -202.333 OFFCURVE",
"692 -153 CURVE SMOOTH",
"692 -125.667 OFFCURVE",
"697.5 -93.833 OFFCURVE",
"708.5 -57.5 CURVE SMOOTH",
"719.5 -21.167 OFFCURVE",
"735 19.667 OFFCURVE",
"755 65 CURVE"
);
}
);
userData = {
assembly = "NPUSHB[ ]	/* 32 values pushed */\01219 5 2 3 3 0 1 76 1 1 0 0 103 77 0 3 3 2 97 0 2 2 114 2 78 44 38 18 16 4 12 26 \012CALL[ ]	/* CallFunction */";
};
width = 1507;
}
);
leftKerningGroup = V;
note = Gamma1;
rightKerningGroup = V;
unicode = 0194;
},
{
glyphname = Vhook;
lastChange = "2024-07-06 19:36:07 +0000";
layers = (
{
layerId = "22A22D76-E3A3-44AE-B323-C96AF5899C07";
paths = (
{
closed = 1;
nodes = (
"794.333 -20 OFFCURVE",
"893.333 -0.167 OFFCURVE",
"980 39.5 CURVE SMOOTH",
"1066.667 79.167 OFFCURVE",
"1134.667 137.667 OFFCURVE",
"1184 215 CURVE SMOOTH",
"1233.333 292.333 OFFCURVE",
"1258 387 OFFCURVE",
"1258 499 CURVE SMOOTH",
"1258 1103 LINE SMOOTH",
"1258 1234.333 OFFCURVE",
"1222.833 1335 OFFCURVE",
"1152.5 1405 CURVE SMOOTH",
"1082.167 1475 OFFCURVE",
"986.333 1510 OFFCURVE",
"865 1510 CURVE SMOOTH",
"839 1510 OFFCURVE",
"814.167 1508.5 OFFCURVE",
"790.5 1505.5 CURVE SMOOTH",
"778 1504 OFFCURVE",
"766 1502 OFFCURVE",
"754 1500 CURVE SMOOTH",
"730 1495 OFFCURVE",
"718 1440 OFFCURVE",
"718 1337 CURVE SMOOTH",
"718 1248 LINE",
"733.333 1250.667 OFFCURVE",
"748.833 1252.5 OFFCURVE",
"764.5 1253.5 CURVE SMOOTH",
"780.167 1254.5 OFFCURVE",
"794 1255 OFFCURVE",
"806 1255 CURVE SMOOTH",
"856.667 1255 OFFCURVE",
"892.333 1244.167 OFFCURVE",
"913 1222.5 CURVE SMOOTH",
"933.667 1200.833 OFFCURVE",
"944.333 1161 OFFCURVE",
"945 1103 CURVE SMOOTH",
"945 499 LINE SMOOTH",
"945 317.667 OFFCURVE",
"857.667 227 OFFCURVE",
"683 227 CURVE SMOOTH",
"505.667 227 OFFCURVE",
"417 317.667 OFFCURVE",
"417 499 CURVE SMOOTH",
"417 1321 LINE SMOOTH",
"417 1430 OFFCURVE",
"363 1490 OFFCURVE",
"263 1490 CURVE SMOOTH",
"163 1490 OFFCURVE",
"108 1430 OFFCURVE",
"108 1321 CURVE SMOOTH",
"108 499 LINE SMOOTH",
"108 386.333 OFFCURVE",
"132.833 291.5 OFFCURVE",
"182.5 214.5 CURVE SMOOTH",
"232.167 137.5 OFFCURVE",
"300.167 79.167 OFFCURVE",
"386.5 39.5 CURVE SMOOTH",
"472.833 -0.167 OFFCURVE",
"571.667 -20 OFFCURVE",
"683 -20 CURVE SMOOTH"
);
}
);
userData = {
assembly = "MPPEM[ ]	/* MeasurePixelPerEm */\012PUSHB[ ]	/* 1 value pushed */\01225 \012LT[ ]	/* LessThan */\012IF[ ]	/* If */\012NPUSHB[ ]	/* 10 values pushed */\01218 1 2 3 1 76 19 1 1 74 \012ELSE[ ]	/* Else */\012NPUSHB[ ]	/* 10 values pushed */\01219 1 1 4 18 1 2 3 2 76 \012EIF[ ]	/* EndIf */\012MPPEM[ ]	/* MeasurePixelPerEm */\012PUSHB[ ]	/* 1 value pushed */\01225 \012LT[ ]	/* LessThan */\012IF[ ]	/* If */\012NPUSHB[ ]	/* 23 values pushed */\0120 3 3 1 97 4 1 1 1 103 77 0 2 2 0 97 5 1 0 0 110 0 78 \012ELSE[ ]	/* Else */\012NPUSHB[ ]	/* 27 values pushed */\0120 1 1 103 77 0 3 3 4 97 0 4 4 109 77 0 2 2 0 97 5 1 0 0 110 0 78 \012EIF[ ]	/* EndIf */\012NPUSHB[ ]	/* 17 values pushed */\0121 0 23 21 17 14 10 8 6 5 0 29 1 29 6 12 22 \012CALL[ ]	/* CallFunction */";
};
width = 1364;
}
);
note = Vcursive;
unicode = 01B2;
},
{
glyphname = Vturned;
lastChange = "2024-07-06 19:36:07 +0000";
layers = (
{
layerId = "22A22D76-E3A3-44AE-B323-C96AF5899C07";
paths = (
{
closed = 1;
nodes = (
"1383 0 OFFCURVE",
"1433 76 OFFCURVE",
"1392 193 CURVE SMOOTH",
"987 1353 LINE SMOOTH",
"955 1446 OFFCURVE",
"892 1490 OFFCURVE",
"794 1490 CURVE SMOOTH",
"761 1490 LINE SMOOTH",
"663 1490 OFFCURVE",
"600 1446 OFFCURVE",
"568 1353 CURVE SMOOTH",
"164 193 LINE SMOOTH",
"123 76 OFFCURVE",
"174 0 OFFCURVE",
"293 0 CURVE SMOOTH",
"392 0 OFFCURVE",
"454 46 OFFCURVE",
"483 141 CURVE SMOOTH",
"778 1119 LINE",
"1074 141 LINE SMOOTH",
"1103 45 OFFCURVE",
"1165 0 OFFCURVE",
"1264 0 CURVE SMOOTH"
);
}
);
userData = {
assembly = "NPUSHB[ ]	/* 30 values pushed */\0121 1 0 1 1 76 0 1 1 103 77 3 2 2 0 0 104 0 78 0 0 0 6 0 6 17 18 4 12 24 \012CALL[ ]	/* CallFunction */";
};
width = 1557;
}
);
note = uni0245;
unicode = 0245;
},
{
glyphname = W;
lastChange = "2024-07-06 19:36:07 +0000";
layers = (
{
layerId = "22A22D76-E3A3-44AE-B323-C96AF5899C07";
paths = (
{
closed = 1;
nodes = (
"648 0 LINE SMOOTH",
"749 0 OFFCURVE",
"811 48 OFFCURVE",
"836 145 CURVE SMOOTH",
"995 762 LINE SMOOTH",
"1009.667 818 OFFCURVE",
"1022 875.833 OFFCURVE",
"1032 935.5 CURVE SMOOTH",
"1042 995.167 OFFCURVE",
"1051.667 1056 OFFCURVE",
"1061 1118 CURVE",
"1071.667 1054 OFFCURVE",
"1082.333 992.167 OFFCURVE",
"1093 932.5 CURVE SMOOTH",
"1103.667 872.833 OFFCURVE",
"1115.667 816 OFFCURVE",
"1129 762 CURVE SMOOTH",
"1289 145 LINE SMOOTH",
"1314 47 OFFCURVE",
"1376 0 OFFCURVE",
"1477 0 CURVE SMOOTH",
"1526 0 LINE SMOOTH",
"1626 0 OFFCURVE",
"1688 46 OFFCURVE",
"1714 144 CURVE SMOOTH",
"2025 1301 LINE SMOOTH",
"2056 1418 OFFCURVE",
"2006 1490 OFFCURVE",
"1893 1490 CURVE SMOOTH",
"1792 1490 OFFCURVE",
"1730 1442 OFFCURVE",
"1707 1343 CURVE SMOOTH",
"1569 757 LINE SMOOTH",
"1553.667 689 OFFCURVE",
"1539.5 616.333 OFFCURVE",
"1526.5 539 CURVE SMOOTH",
"1513.5 461.667 OFFCURVE",
"1501 385 OFFCURVE",
"1489 309 CURVE",
"1448 539 LINE SMOOTH",
"1434 616.333 OFFCURVE",
"1418.667 689 OFFCURVE",
"1402 757 CURVE SMOOTH",
"1257 1344 LINE SMOOTH",
"1233 1443 OFFCURVE",
"1171 1490 OFFCURVE",
"1070 1490 CURVE SMOOTH",
"1055 1490 LINE SMOOTH",
"954 1490 OFFCURVE",
"892 1442 OFFCURVE",
"868 1344 CURVE SMOOTH",
"722 757 LINE SMOOTH",
"705.333 688.333 OFFCURVE",
"690 615 OFFCURVE",
"676 537 CURVE SMOOTH",
"635 305 LINE",
"623 381.667 OFFCURVE",
"610.5 459 OFFCURVE",
"597.5 537 CURVE SMOOTH",
"584.5 615 OFFCURVE",
"570.333 688.333 OFFCURVE",
"555 757 CURVE SMOOTH",
"417 1343 LINE SMOOTH",
"394 1442 OFFCURVE",
"332 1490 OFFCURVE",
"231 1490 CURVE SMOOTH",
"216 1490 LINE SMOOTH",
"113 1490 OFFCURVE",
"69 1417 OFFCURVE",
"100 1301 CURVE SMOOTH",
"410 144 LINE SMOOTH",
"436 46 OFFCURVE",
"498 0 OFFCURVE",
"598 0 CURVE SMOOTH"
);
}
);
userData = {
assembly = "NPUSHB[ ]	/* 36 values pushed */\01226 15 6 3 3 0 1 76 2 1 2 0 0 103 77 5 4 2 3 3 104 3 78 0 0 0 30 0 30 17 24 24 17 6 12 26 \012CALL[ ]	/* CallFunction */";
};
width = 2125;
}
);
leftKerningGroup = W;
note = W;
rightKerningGroup = W;
unicode = 0057;
},
{
glyphname = Wynn;
lastChange = "2024-07-06 19:36:07 +0000";
layers = (
{
layerId = "22A22D76-E3A3-44AE-B323-C96AF5899C07";
paths = (
{
closed = 1;
nodes = (
"474 1478 OFFCURVE",
"420 1490 OFFCURVE",
"320 1490 CURVE SMOOTH",
"220 1490 OFFCURVE",
"166 1430 OFFCURVE",
"166 1321 CURVE SMOOTH",
"166 -249 LINE SMOOTH",
"166 -358 OFFCURVE",
"220 -418 OFFCURVE",
"320 -418 CURVE SMOOTH",
"420 -418 OFFCURVE",
"474 -358 OFFCURVE",
"474 -249 CURVE SMOOTH",
"474 -149 LINE",
"658 -92.333 OFFCURVE",
"815.333 -17.167 OFFCURVE",
"946 76.5 CURVE SMOOTH",
"1076.667 170.167 OFFCURVE",
"1176.833 278.333 OFFCURVE",
"1246.5 401 CURVE SMOOTH",
"1316.167 523.667 OFFCURVE",
"1351 656.333 OFFCURVE",
"1351 799 CURVE SMOOTH",
"1351 851 LINE SMOOTH",
"1351 995 OFFCURVE",
"1324.833 1116 OFFCURVE",
"1272.5 1214 CURVE SMOOTH",
"1220.167 1312 OFFCURVE",
"1147.667 1385.833 OFFCURVE",
"1055 1435.5 CURVE SMOOTH",
"962.333 1485.167 OFFCURVE",
"855.667 1510 OFFCURVE",
"735 1510 CURVE SMOOTH",
"681 1510 OFFCURVE",
"632.167 1505.167 OFFCURVE",
"588.5 1495.5 CURVE SMOOTH",
"544.833 1485.833 OFFCURVE",
"506.667 1472.667 OFFCURVE",
"474 1456 CURVE"
);
},
{
closed = 1;
nodes = (
"474 1156 LINE",
"504.667 1188.667 OFFCURVE",
"542.167 1214.333 OFFCURVE",
"586.5 1233 CURVE SMOOTH",
"630.833 1251.667 OFFCURVE",
"681.333 1261 OFFCURVE",
"738 1261 CURVE SMOOTH",
"815.333 1261 OFFCURVE",
"875.667 1242.833 OFFCURVE",
"919 1206.5 CURVE SMOOTH",
"962.333 1170.167 OFFCURVE",
"992.5 1121.333 OFFCURVE",
"1009.5 1060 CURVE SMOOTH",
"1026.5 998.667 OFFCURVE",
"1035 930.333 OFFCURVE",
"1035 855 CURVE SMOOTH",
"1035 799 LINE SMOOTH",
"1035 652.333 OFFCURVE",
"988.5 517.833 OFFCURVE",
"895.5 395.5 CURVE SMOOTH",
"802.5 273.167 OFFCURVE",
"662 177.333 OFFCURVE",
"474 108 CURVE"
);
}
);
userData = {
assembly = "MPPEM[ ]	/* MeasurePixelPerEm */\012PUSHB[ ]	/* 1 value pushed */\01225 \012LT[ ]	/* LessThan */\012IF[ ]	/* If */\012NPUSHB[ ]	/* 12 values pushed */\0121 1 3 0 28 17 13 3 1 3 2 76 \012ELSE[ ]	/* Else */\012NPUSHB[ ]	/* 12 values pushed */\0121 1 3 2 28 17 13 3 1 3 2 76 \012EIF[ ]	/* EndIf */\012MPPEM[ ]	/* MeasurePixelPerEm */\012PUSHB[ ]	/* 1 value pushed */\01225 \012LT[ ]	/* LessThan */\012IF[ ]	/* If */\012NPUSHB[ ]	/* 18 values pushed */\0120 3 3 0 97 4 2 2 0 0 109 77 0 1 1 108 1 78 \012ELSE[ ]	/* Else */\012NPUSHB[ ]	/* 22 values pushed */\0124 1 2 2 103 77 0 3 3 0 97 0 0 0 109 77 0 1 1 108 1 78 \012EIF[ ]	/* EndIf */\012NPUSHB[ ]	/* 13 values pushed */\0120 0 26 24 0 16 0 16 25 35 5 12 24 \012CALL[ ]	/* CallFunction */";
};
width = 1514;
}
);
note = uni01F7;
unicode = 01F7;
},
{
glyphname = X;
lastChange = "2024-07-06 19:36:07 +0000";
layers = (
{
layerId = "22A22D76-E3A3-44AE-B323-C96AF5899C07";
paths = (
{
closed = 1;
nodes = (
"274 0 LINE SMOOTH",
"365 0 OFFCURVE",
"427 33 OFFCURVE",
"478 108 CURVE SMOOTH",
"618 312 LINE SMOOTH",
"653.333 364.667 OFFCURVE",
"680.333 407.833 OFFCURVE",
"699 441.5 CURVE SMOOTH",
"756 546 LINE",
"775.333 509.333 OFFCURVE",
"794.167 474.333 OFFCURVE",
"812.5 441 CURVE SMOOTH",
"830.833 407.667 OFFCURVE",
"857.333 364.667 OFFCURVE",
"892 312 CURVE SMOOTH",
"1026 109 LINE SMOOTH",
"1076 33 OFFCURVE",
"1139 0 OFFCURVE",
"1230 0 CURVE SMOOTH",
"1280 0 LINE SMOOTH",
"1381 0 OFFCURVE",
"1399 90 OFFCURVE",
"1321 205 CURVE SMOOTH",
"934 771 LINE",
"1279 1285 LINE SMOOTH",
"1356 1400 OFFCURVE",
"1323 1490 OFFCURVE",
"1202 1490 CURVE SMOOTH",
"1111 1490 OFFCURVE",
"1048 1457 OFFCURVE",
"998 1381 CURVE SMOOTH",
"905 1240 LINE SMOOTH",
"870.333 1186.667 OFFCURVE",
"842.333 1139 OFFCURVE",
"821 1097 CURVE SMOOTH",
"759 974 LINE",
"739.667 1014.667 OFFCURVE",
"719.667 1055.833 OFFCURVE",
"699 1097.5 CURVE SMOOTH",
"678.333 1139.167 OFFCURVE",
"650.667 1186.667 OFFCURVE",
"616 1240 CURVE SMOOTH",
"525 1380 LINE SMOOTH",
"475 1457 OFFCURVE",
"412 1490 OFFCURVE",
"321 1490 CURVE SMOOTH",
"276 1490 LINE SMOOTH",
"177 1490 OFFCURVE",
"159 1401 OFFCURVE",
"236 1285 CURVE SMOOTH",
"586 762 LINE",
"195 205 LINE SMOOTH",
"115 91 OFFCURVE",
"130 0 OFFCURVE",
"228 0 CURVE SMOOTH"
);
}
);
userData = {
assembly = "NPUSHB[ ]	/* 35 values pushed */\01219 13 7 1 4 2 0 1 76 1 1 0 0 103 77 4 3 2 2 2 104 2 78 0 0 0 23 0 23 18 24 18 5 12 25 \012CALL[ ]	/* CallFunction */";
};
width = 1512;
}
);
leftKerningGroup = X;
note = X;
rightKerningGroup = X;
unicode = 0058;
},
{
glyphname = Y;
lastChange = "2024-07-06 19:36:07 +0000";
layers = (
{
layerId = "22A22D76-E3A3-44AE-B323-C96AF5899C07";
paths = (
{
closed = 1;
nodes = (
"601 169 LINE SMOOTH",
"601 60 OFFCURVE",
"655 0 OFFCURVE",
"753 0 CURVE SMOOTH",
"851 0 OFFCURVE",
"905 60 OFFCURVE",
"905 169 CURVE SMOOTH",
"905 560 LINE",
"1330 1287 LINE SMOOTH",
"1398 1403 OFFCURVE",
"1354 1490 OFFCURVE",
"1228 1490 CURVE SMOOTH",
"1134 1490 OFFCURVE",
"1073 1453 OFFCURVE",
"1029 1369 CURVE SMOOTH",
"848 1026 LINE SMOOTH",
"830 992.667 OFFCURVE",
"813.5 959.5 OFFCURVE",
"798.5 926.5 CURVE SMOOTH",
"783.5 893.5 OFFCURVE",
"769 857.333 OFFCURVE",
"755 818 CURVE",
"740.333 856.667 OFFCURVE",
"725.167 892.5 OFFCURVE",
"709.5 925.5 CURVE SMOOTH",
"693.833 958.5 OFFCURVE",
"676.667 992 OFFCURVE",
"658 1026 CURVE SMOOTH",
"471 1371 LINE SMOOTH",
"426 1453 OFFCURVE",
"364 1490 OFFCURVE",
"270 1490 CURVE SMOOTH",
"228 1490 LINE SMOOTH",
"126 1490 OFFCURVE",
"100 1404 OFFCURVE",
"169 1287 CURVE SMOOTH",
"601 560 LINE"
);
}
);
userData = {
assembly = "NPUSHB[ ]	/* 32 values pushed */\01213 7 1 3 2 0 1 76 1 1 0 0 103 77 3 1 2 2 104 2 78 0 0 0 14 0 14 24 18 4 12 24 \012CALL[ ]	/* CallFunction */";
};
width = 1497;
}
);
leftKerningGroup = Y;
note = Y;
rightKerningGroup = Y;
unicode = 0059;
},
{
glyphname = Yhook;
lastChange = "2024-07-06 19:36:07 +0000";
layers = (
{
layerId = "22A22D76-E3A3-44AE-B323-C96AF5899C07";
paths = (
{
closed = 1;
nodes = (
"140 1490 OFFCURVE",
"110 1402 OFFCURVE",
"183 1286 CURVE SMOOTH",
"630 578 LINE",
"630 169 LINE SMOOTH",
"630 60 OFFCURVE",
"684 0 OFFCURVE",
"782 0 CURVE SMOOTH",
"880 0 OFFCURVE",
"933 60 OFFCURVE",
"933 169 CURVE SMOOTH",
"933 578 LINE",
"1303 1162 LINE SMOOTH",
"1331.667 1206.667 OFFCURVE",
"1361 1235.167 OFFCURVE",
"1391 1247.5 CURVE SMOOTH",
"1408 1254 OFFCURVE",
"1427 1257 OFFCURVE",
"1449 1255 CURVE SMOOTH",
"1490 1252 OFFCURVE",
"1519 1280 OFFCURVE",
"1542 1358 CURVE SMOOTH",
"1564 1433 OFFCURVE",
"1517 1506 OFFCURVE",
"1404 1507 CURVE SMOOTH",
"1400 1507 OFFCURVE",
"1396 1507 OFFCURVE",
"1391 1507 CURVE SMOOTH",
"1328.333 1505.667 OFFCURVE",
"1269 1489 OFFCURVE",
"1213 1457 CURVE SMOOTH",
"1157 1425 OFFCURVE",
"1108.333 1375 OFFCURVE",
"1067 1307 CURVE SMOOTH",
"790 844 LINE",
"773 844 LINE",
"456 1375 LINE SMOOTH",
"409 1454 OFFCURVE",
"346 1490 OFFCURVE",
"254 1490 CURVE SMOOTH"
);
}
);
userData = {
assembly = "NPUSHB[ ]	/* 10 values pushed */\01216 13 9 8 2 5 2 0 1 76 \012MPPEM[ ]	/* MeasurePixelPerEm */\012PUSHB[ ]	/* 1 value pushed */\01230 \012LT[ ]	/* LessThan */\012IF[ ]	/* If */\012NPUSHB[ ]	/* 12 values pushed */\0121 1 0 0 103 77 0 2 2 104 2 78 \012ELSE[ ]	/* Else */\012NPUSHB[ ]	/* 16 values pushed */\0120 1 1 109 77 0 0 0 103 77 0 2 2 104 2 78 \012EIF[ ]	/* EndIf */\012PUSHB[ ]	/* 6 values pushed */\01223 21 16 3 12 25 \012CALL[ ]	/* CallFunction */";
};
width = 1606;
}
);
leftKerningGroup = Y;
note = uni01B3;
rightKerningGroup = Y;
unicode = 01B3;
},
{
glyphname = Yloop;
lastChange = "2024-07-06 19:36:07 +0000";
layers = (
{
layerId = "22A22D76-E3A3-44AE-B323-C96AF5899C07";
paths = (
{
closed = 1;
nodes = (
"264 1490 OFFCURVE",
"227 1407 OFFCURVE",
"289 1289 CURVE SMOOTH",
"557 784 LINE",
"531 788.667 OFFCURVE",
"504.667 791 OFFCURVE",
"478 791 CURVE SMOOTH",
"402 791 OFFCURVE",
"332.833 772.5 OFFCURVE",
"270.5 735.5 CURVE SMOOTH",
"208.167 698.5 OFFCURVE",
"158.5 649.167 OFFCURVE",
"121.5 587.5 CURVE SMOOTH",
"84.5 525.833 OFFCURVE",
"66 458 OFFCURVE",
"66 384 CURVE SMOOTH",
"66 309.333 OFFCURVE",
"84.5 241.5 OFFCURVE",
"121.5 180.5 CURVE SMOOTH",
"158.5 119.5 OFFCURVE",
"208.167 70.833 OFFCURVE",
"270.5 34.5 CURVE SMOOTH",
"332.833 -1.833 OFFCURVE",
"402 -20 OFFCURVE",
"478 -20 CURVE SMOOTH",
"562.667 -20 OFFCURVE",
"639 3 OFFCURVE",
"707 49 CURVE SMOOTH",
"775 95 OFFCURVE",
"824.667 154 OFFCURVE",
"856 226 CURVE",
"1403 1290 LINE SMOOTH",
"1463 1407 OFFCURVE",
"1425 1490 OFFCURVE",
"1312 1490 CURVE SMOOTH",
"1217 1490 OFFCURVE",
"1155 1452 OFFCURVE",
"1114 1365 CURVE SMOOTH",
"848 802 LINE",
"576 1366 LINE SMOOTH",
"535 1452 OFFCURVE",
"473 1490 OFFCURVE",
"378 1490 CURVE SMOOTH"
);
},
{
closed = 1;
nodes = (
"434.667 233 OFFCURVE",
"398.833 246.167 OFFCURVE",
"370.5 272.5 CURVE SMOOTH",
"342.167 298.833 OFFCURVE",
"328 337 OFFCURVE",
"328 387 CURVE SMOOTH",
"328 437 OFFCURVE",
"342.167 474.833 OFFCURVE",
"370.5 500.5 CURVE SMOOTH",
"398.833 526.167 OFFCURVE",
"434.667 539 OFFCURVE",
"478 539 CURVE SMOOTH",
"518.667 539 OFFCURVE",
"553.333 526.167 OFFCURVE",
"582 500.5 CURVE SMOOTH",
"610.667 474.833 OFFCURVE",
"625 437 OFFCURVE",
"625 387 CURVE SMOOTH",
"625 337 OFFCURVE",
"610.667 298.833 OFFCURVE",
"582 272.5 CURVE SMOOTH",
"553.333 246.167 OFFCURVE",
"518.667 233 OFFCURVE",
"478 233 CURVE SMOOTH"
);
}
);
userData = {
assembly = "NPUSHB[ ]	/* 57 values pushed */\0121 1 2 0 17 1 5 2 2 76 0 2 0 5 4 2 5 106 6 3 2 0 0 103 77 7 1 4 4 1 97 0 1 1 110 1 78 20 19 0 0 26 24 19 30 20 30 0 18 0 18 38 35 18 8 12 25 \012CALL[ ]	/* CallFunction */";
};
width = 1553;
}
);
note = uni1EFE;
unicode = 1EFE;
},
{
glyphname = Yr;
lastChange = "2024-07-06 19:36:07 +0000";
layers = (
{
layerId = "22A22D76-E3A3-44AE-B323-C96AF5899C07";
paths = (
{
closed = 1;
nodes = (
"1456 -351 LINE",
"1456 -345 LINE SMOOTH",
"1456 -341 OFFCURVE",
"1441 -311 OFFCURVE",
"1403 -240 CURVE SMOOTH",
"932 635 LINE",
"1018 670.333 OFFCURVE",
"1086.333 720.667 OFFCURVE",
"1137 786 CURVE SMOOTH",
"1187.667 851.333 OFFCURVE",
"1213 939.333 OFFCURVE",
"1213 1050 CURVE SMOOTH",
"1213 1192.667 OFFCURVE",
"1163.833 1301.667 OFFCURVE",
"1065.5 1377 CURVE SMOOTH",
"967.167 1452.333 OFFCURVE",
"832 1490 OFFCURVE",
"660 1490 CURVE SMOOTH",
"411 1490 LINE",
"411 1541 LINE SMOOTH",
"411 1574 OFFCURVE",
"356 1592 OFFCURVE",
"256 1592 CURVE SMOOTH",
"156 1592 OFFCURVE",
"101 1532 OFFCURVE",
"101 1423 CURVE SMOOTH",
"101 169 LINE SMOOTH",
"101 60 OFFCURVE",
"156 0 OFFCURVE",
"257 0 CURVE SMOOTH",
"358 0 OFFCURVE",
"413 60 OFFCURVE",
"413 169 CURVE SMOOTH",
"413 564 LINE",
"641 564 LINE",
"1060 -231 LINE SMOOTH",
"1104 -315 OFFCURVE",
"1166 -351 OFFCURVE",
"1260 -351 CURVE SMOOTH"
);
},
{
closed = 1;
nodes = (
"413 811 LINE",
"413 1240 LINE",
"660 1240 LINE SMOOTH",
"742.667 1240 OFFCURVE",
"804 1220.5 OFFCURVE",
"844 1181.5 CURVE SMOOTH",
"884 1142.5 OFFCURVE",
"904 1089.667 OFFCURVE",
"904 1023 CURVE SMOOTH",
"904 959 OFFCURVE",
"883.333 907.5 OFFCURVE",
"842 868.5 CURVE SMOOTH",
"800.667 829.5 OFFCURVE",
"740 810.333 OFFCURVE",
"660 811 CURVE SMOOTH"
);
}
);
userData = {
assembly = "NPUSHB[ ]	/* 58 values pushed */\01214 1 0 5 1 76 7 1 4 1 4 134 0 5 0 0 1 5 0 103 0 6 6 3 95 0 3 3 103 77 0 2 2 1 95 0 1 1 104 1 78 0 0 25 23 19 17 0 16 0 15 33 17 17 17 8 12 26 \012CALL[ ]	/* CallFunction */";
};
width = 1557;
}
);
note = YR;
unicode = 01A6;
},
{
glyphname = Ystroke;
lastChange = "2024-07-06 19:36:07 +0000";
layers = (
{
layerId = "22A22D76-E3A3-44AE-B323-C96AF5899C07";
paths = (
{
closed = 1;
nodes = (
"1457 1152 OFFCURVE",
"1397 1180 OFFCURVE",
"1288 1180 CURVE SMOOTH",
"1267 1180 LINE",
"1358 1335 LINE SMOOTH",
"1410 1425 OFFCURVE",
"1354 1490 OFFCURVE",
"1228 1490 CURVE SMOOTH",
"1134 1490 OFFCURVE",
"1073 1453 OFFCURVE",
"1029 1369 CURVE SMOOTH",
"929 1180 LINE",
"575 1180 LINE",
"471 1371 LINE SMOOTH",
"426 1454 OFFCURVE",
"363 1490 OFFCURVE",
"270 1490 CURVE SMOOTH",
"228 1490 LINE SMOOTH",
"126 1490 OFFCURVE",
"100 1404 OFFCURVE",
"169 1287 CURVE SMOOTH",
"233 1180 LINE",
"125 1180 LINE SMOOTH",
"55 1180 OFFCURVE",
"17 1152 OFFCURVE",
"17 1101 CURVE SMOOTH",
"17 1050 OFFCURVE",
"77 1022 OFFCURVE",
"186 1022 CURVE SMOOTH",
"327 1022 LINE",
"601 560 LINE",
"601 169 LINE SMOOTH",
"601 60 OFFCURVE",
"655 0 OFFCURVE",
"753 0 CURVE SMOOTH",
"851 0 OFFCURVE",
"905 60 OFFCURVE",
"905 169 CURVE SMOOTH",
"905 560 LINE",
"1175 1022 LINE",
"1316 1022 LINE SMOOTH",
"1407 1022 OFFCURVE",
"1457 1050 OFFCURVE",
"1457 1101 CURVE SMOOTH"
);
},
{
closed = 1;
nodes = (
"828.667 989.333 OFFCURVE",
"812.667 956.833 OFFCURVE",
"798 924.5 CURVE SMOOTH",
"783.333 892.167 OFFCURVE",
"769 856.667 OFFCURVE",
"755 818 CURVE",
"740.333 856 OFFCURVE",
"725.5 891.167 OFFCURVE",
"710.5 923.5 CURVE SMOOTH",
"695.5 955.833 OFFCURVE",
"678.667 988.667 OFFCURVE",
"660 1022 CURVE",
"846 1022 LINE"
);
}
);
userData = {
assembly = "NPUSHB[ ]	/* 51 values pushed */\01222 6 3 3 1 0 1 76 9 7 5 3 3 8 2 2 0 1 3 0 104 6 1 4 4 103 77 0 1 1 104 1 78 0 0 19 18 0 17 0 17 17 17 17 17 18 18 17 10 12 29 \012CALL[ ]	/* CallFunction */";
};
width = 1475;
}
);
leftKerningGroup = Y;
note = uni024E;
rightKerningGroup = Y;
unicode = 024E;
},
{
glyphname = Z;
lastChange = "2024-07-06 19:36:07 +0000";
layers = (
{
layerId = "22A22D76-E3A3-44AE-B323-C96AF5899C07";
paths = (
{
closed = 1;
nodes = (
"115 32 OFFCURVE",
"175 0 OFFCURVE",
"284 0 CURVE SMOOTH",
"1079 0 LINE SMOOTH",
"1188 0 OFFCURVE",
"1248 45 OFFCURVE",
"1248 127 CURVE SMOOTH",
"1248 209 OFFCURVE",
"1188 253 OFFCURVE",
"1079 253 CURVE SMOOTH",
"778 253 LINE",
"627 252.5 LINE SMOOTH",
"577 252.167 OFFCURVE",
"526.667 250.667 OFFCURVE",
"476 248 CURVE",
"507.333 284.667 OFFCURVE",
"538 321.333 OFFCURVE",
"568 358 CURVE SMOOTH",
"598 394.667 OFFCURVE",
"626 431.333 OFFCURVE",
"652 468 CURVE SMOOTH",
"1178 1212 LINE SMOOTH",
"1226 1280 OFFCURVE",
"1245 1332 OFFCURVE",
"1245 1398 CURVE SMOOTH",
"1245 1457 OFFCURVE",
"1185 1490 OFFCURVE",
"1076 1490 CURVE SMOOTH",
"281 1490 LINE SMOOTH",
"172 1490 OFFCURVE",
"112 1446 OFFCURVE",
"112 1364 CURVE SMOOTH",
"112 1282 OFFCURVE",
"172 1237 OFFCURVE",
"281 1237 CURVE SMOOTH",
"599 1237 LINE",
"741.5 1237.5 LINE SMOOTH",
"789.167 1237.833 OFFCURVE",
"836.667 1239 OFFCURVE",
"884 1241 CURVE",
"854.667 1207 OFFCURVE",
"826 1172.833 OFFCURVE",
"798 1138.5 CURVE SMOOTH",
"770 1104.167 OFFCURVE",
"743.667 1070 OFFCURVE",
"719 1036 CURVE SMOOTH",
"182 277 LINE SMOOTH",
"134 209 OFFCURVE",
"115 157 OFFCURVE",
"115 92 CURVE SMOOTH"
);
}
);
userData = {
assembly = "NPUSHB[ ]	/* 44 values pushed */\01212 1 0 1 1 1 3 2 2 76 0 0 0 1 95 0 1 1 103 77 0 2 2 3 95 4 1 3 3 104 3 78 0 0 0 21 0 21 69 17 69 5 12 25 \012CALL[ ]	/* CallFunction */";
};
width = 1360;
}
);
leftKerningGroup = Z;
note = Z;
rightKerningGroup = Z;
unicode = 005A;
},
{
glyphname = Zhook;
lastChange = "2024-07-06 19:36:07 +0000";
layers = (
{
layerId = "22A22D76-E3A3-44AE-B323-C96AF5899C07";
paths = (
{
closed = 1;
nodes = (
"831 -434 OFFCURVE",
"857 -435 OFFCURVE",
"885 -435 CURVE SMOOTH",
"1127 -435 OFFCURVE",
"1248 -329.333 OFFCURVE",
"1248 -118 CURVE SMOOTH",
"1248 84 LINE SMOOTH",
"1248 193 OFFCURVE",
"1188 253 OFFCURVE",
"1079 253 CURVE SMOOTH",
"778 253 LINE",
"627 252.5 LINE SMOOTH",
"577 252.167 OFFCURVE",
"526.667 250.667 OFFCURVE",
"476 248 CURVE",
"507.333 284.667 OFFCURVE",
"538 321.333 OFFCURVE",
"568 358 CURVE SMOOTH",
"598 394.667 OFFCURVE",
"626 431.333 OFFCURVE",
"652 468 CURVE SMOOTH",
"1178 1212 LINE SMOOTH",
"1226 1280 OFFCURVE",
"1245 1332 OFFCURVE",
"1245 1398 CURVE SMOOTH",
"1245 1457 OFFCURVE",
"1185 1490 OFFCURVE",
"1076 1490 CURVE SMOOTH",
"281 1490 LINE SMOOTH",
"172 1490 OFFCURVE",
"112 1446 OFFCURVE",
"112 1364 CURVE SMOOTH",
"112 1282 OFFCURVE",
"172 1237 OFFCURVE",
"281 1237 CURVE SMOOTH",
"599 1237 LINE",
"741.5 1237.5 LINE SMOOTH",
"789.167 1237.833 OFFCURVE",
"836.667 1239 OFFCURVE",
"884 1241 CURVE",
"854.667 1207 OFFCURVE",
"826 1172.833 OFFCURVE",
"798 1138.5 CURVE SMOOTH",
"770 1104.167 OFFCURVE",
"743.667 1070 OFFCURVE",
"719 1036 CURVE SMOOTH",
"182 277 LINE SMOOTH",
"134 209 OFFCURVE",
"115 157 OFFCURVE",
"115 92 CURVE SMOOTH",
"115 33 OFFCURVE",
"175 0 OFFCURVE",
"284 0 CURVE SMOOTH",
"943 0 LINE",
"943 -101 LINE SMOOTH",
"943 -133.667 OFFCURVE",
"934.167 -156.833 OFFCURVE",
"916.5 -170.5 CURVE SMOOTH",
"898.833 -184.167 OFFCURVE",
"866.667 -191 OFFCURVE",
"820 -191 CURVE SMOOTH",
"806 -191 OFFCURVE",
"791 -190 OFFCURVE",
"776 -189 CURVE SMOOTH",
"747 -187 OFFCURVE",
"731 -226 OFFCURVE",
"731 -301 CURVE SMOOTH",
"731 -378 OFFCURVE",
"756 -426 OFFCURVE",
"807 -431 CURVE SMOOTH"
);
}
);
userData = {
assembly = "NPUSHB[ ]	/* 58 values pushed */\01220 1 2 3 9 1 1 4 1 1 0 1 0 1 5 0 4 76 0 2 2 3 95 0 3 3 103 77 0 4 4 1 95 0 1 1 104 77 0 0 0 5 97 0 5 5 114 5 78 34 69 17 69 19 34 6 12 28 \012CALL[ ]	/* CallFunction */";
};
width = 1360;
}
);
leftKerningGroup = Z;
note = uni0224;
rightKerningGroup = Z;
unicode = 0224;
},
{
glyphname = Zswashtail;
lastChange = "2024-07-06 19:36:07 +0000";
layers = (
{
layerId = "22A22D76-E3A3-44AE-B323-C96AF5899C07";
paths = (
{
closed = 1;
nodes = (
"1134 -436 OFFCURVE",
"1163.833 -433.167 OFFCURVE",
"1189.5 -427.5 CURVE SMOOTH",
"1202 -425 OFFCURVE",
"1214 -422 OFFCURVE",
"1225 -418 CURVE SMOOTH",
"1248 -411 OFFCURVE",
"1259 -367 OFFCURVE",
"1259 -286 CURVE SMOOTH",
"1259 -210 OFFCURVE",
"1114 -186 OFFCURVE",
"1114 -186 CURVE SMOOTH",
"1072.667 -186 OFFCURVE",
"1034.167 -175.333 OFFCURVE",
"998.5 -154 CURVE SMOOTH",
"962.833 -132.667 OFFCURVE",
"927.167 -105.333 OFFCURVE",
"891.5 -72 CURVE SMOOTH",
"778.5 34 LINE SMOOTH",
"738.833 71.333 OFFCURVE",
"694.833 106.333 OFFCURVE",
"646.5 139 CURVE SMOOTH",
"598.167 171.667 OFFCURVE",
"543.333 197.667 OFFCURVE",
"482 217 CURVE",
"1174 1224 LINE SMOOTH",
"1221 1293 OFFCURVE",
"1239 1343 OFFCURVE",
"1239 1405 CURVE SMOOTH",
"1239 1460 OFFCURVE",
"1179 1490 OFFCURVE",
"1070 1490 CURVE SMOOTH",
"282 1490 LINE SMOOTH",
"173 1490 OFFCURVE",
"113 1446 OFFCURVE",
"113 1366 CURVE SMOOTH",
"113 1285 OFFCURVE",
"173 1241 OFFCURVE",
"282 1241 CURVE SMOOTH",
"855 1241 LINE",
"180 266 LINE SMOOTH",
"133 197 OFFCURVE",
"114 147 OFFCURVE",
"114 86 CURVE SMOOTH",
"114 31 OFFCURVE",
"154 0 OFFCURVE",
"227 0 CURVE SMOOTH",
"295 0 OFFCURVE",
"355.5 -10.5 OFFCURVE",
"408.5 -31.5 CURVE SMOOTH",
"461.5 -52.5 OFFCURVE",
"510 -79.5 OFFCURVE",
"554 -112.5 CURVE SMOOTH",
"598 -145.5 OFFCURVE",
"639.833 -180.667 OFFCURVE",
"679.5 -218 CURVE SMOOTH",
"719.167 -255.333 OFFCURVE",
"759.667 -290.5 OFFCURVE",
"801 -323.5 CURVE SMOOTH",
"842.333 -356.5 OFFCURVE",
"887.167 -383.5 OFFCURVE",
"935.5 -404.5 CURVE SMOOTH",
"983.833 -425.5 OFFCURVE",
"1038.667 -436 OFFCURVE",
"1100 -436 CURVE SMOOTH"
);
}
);
userData = {
assembly = "NPUSHB[ ]	/* 63 values pushed */\01214 1 2 3 15 9 2 1 2 23 1 4 1 24 1 0 4 4 76 0 2 2 3 95 0 3 3 103 77 0 1 1 104 77 0 4 4 0 97 5 1 0 0 114 0 78 1 0 22 20 13 12 11 10 8 6 0 26 1 26 6 12 22 \012CALL[ ]	/* CallFunction */";
};
width = 1370;
}
);
leftKerningGroup = Z;
note = uni2C7F;
rightKerningGroup = Z;
unicode = 2C7F;
},
{
glyphname = G.1;
lastChange = "2024-07-06 19:36:07 +0000";
layers = (
{
layerId = "22A22D76-E3A3-44AE-B323-C96AF5899C07";
paths = (
{
closed = 1;
nodes = (
"851.667 -20 OFFCURVE",
"927.167 -4.667 OFFCURVE",
"987.5 26 CURVE SMOOTH",
"1047.833 56.667 OFFCURVE",
"1095 98.167 OFFCURVE",
"1129 150.5 CURVE SMOOTH",
"1163 202.833 OFFCURVE",
"1186 262 OFFCURVE",
"1198 328 CURVE",
"1217 159 LINE SMOOTH",
"1229 54 OFFCURVE",
"1270 0 OFFCURVE",
"1337 0 CURVE SMOOTH",
"1403 0 OFFCURVE",
"1438 60 OFFCURVE",
"1438 169 CURVE SMOOTH",
"1438 625 LINE SMOOTH",
"1438 734 OFFCURVE",
"1378 794 OFFCURVE",
"1269 794 CURVE SMOOTH",
"987 794 LINE SMOOTH",
"878 794 OFFCURVE",
"818 753 OFFCURVE",
"818 678 CURVE SMOOTH",
"818 603 OFFCURVE",
"878 562 OFFCURVE",
"987 562 CURVE SMOOTH",
"1142 562 LINE",
"1137.333 466 OFFCURVE",
"1105 390.167 OFFCURVE",
"1045 334.5 CURVE SMOOTH",
"985 278.833 OFFCURVE",
"903.667 251 OFFCURVE",
"801 251 CURVE SMOOTH",
"679.667 251 OFFCURVE",
"583.167 294 OFFCURVE",
"511.5 380 CURVE SMOOTH",
"439.833 466 OFFCURVE",
"404 588 OFFCURVE",
"404 746 CURVE SMOOTH",
"404 904 OFFCURVE",
"440.167 1025.667 OFFCURVE",
"512.5 1111 CURVE SMOOTH",
"584.833 1196.333 OFFCURVE",
"678.333 1239 OFFCURVE",
"793 1239 CURVE SMOOTH",
"875.667 1239 OFFCURVE",
"944.333 1218.667 OFFCURVE",
"999 1178 CURVE SMOOTH",
"1027 1157 OFFCURVE",
"1051 1132 OFFCURVE",
"1070 1104 CURVE SMOOTH",
"1109 1042 OFFCURVE",
"1156 1010 OFFCURVE",
"1250 1010 CURVE SMOOTH",
"1268 1010 LINE SMOOTH",
"1362 1010 OFFCURVE",
"1420 1090 OFFCURVE",
"1360 1201 CURVE SMOOTH",
"1347 1225 OFFCURVE",
"1332 1248 OFFCURVE",
"1315 1269.5 CURVE SMOOTH",
"1257 1344.5 OFFCURVE",
"1182.667 1403.333 OFFCURVE",
"1092 1446 CURVE SMOOTH",
"1001.333 1488.667 OFFCURVE",
"900 1510 OFFCURVE",
"788 1510 CURVE SMOOTH",
"657.333 1510 OFFCURVE",
"539.5 1479.667 OFFCURVE",
"434.5 1419 CURVE SMOOTH",
"329.5 1358.333 OFFCURVE",
"246.5 1270.667 OFFCURVE",
"185.5 1156 CURVE SMOOTH",
"124.5 1041.333 OFFCURVE",
"94 903.667 OFFCURVE",
"94 743 CURVE SMOOTH",
"94 585.667 OFFCURVE",
"123.5 450 OFFCURVE",
"182.5 336 CURVE SMOOTH",
"241.5 222 OFFCURVE",
"321.333 134.167 OFFCURVE",
"422 72.5 CURVE SMOOTH",
"522.667 10.833 OFFCURVE",
"635.667 -20 OFFCURVE",
"761 -20 CURVE SMOOTH"
);
}
);
userData = {
assembly = "PUSHB[ ]	/* 6 values pushed */\01231 1 4 5 1 76 \012MPPEM[ ]	/* MeasurePixelPerEm */\012PUSHB[ ]	/* 1 value pushed */\01225 \012LT[ ]	/* LessThan */\012IF[ ]	/* If */\012NPUSHB[ ]	/* 39 values pushed */\0120 2 3 6 3 2 6 128 0 6 0 5 4 6 5 103 0 3 3 1 97 0 1 1 109 77 0 4 4 0 97 7 8 2 0 0 110 0 78 \012ELSE[ ]	/* Else */\012NPUSHB[ ]	/* 43 values pushed */\0120 2 3 6 3 2 6 128 0 6 0 5 4 6 5 103 0 3 3 1 97 0 1 1 109 77 0 7 7 104 77 0 4 4 0 97 8 1 0 0 110 0 78 \012EIF[ ]	/* EndIf */\012NPUSHB[ ]	/* 23 values pushed */\0121 0 30 29 28 27 26 25 23 21 17 15 13 12 9 7 0 34 1 34 9 12 22 \012CALL[ ]	/* CallFunction */";
};
width = 1556;
}
);
leftKerningGroup = C;
note = G.1;
rightKerningGroup = G.1;
},
{
glyphname = Ghook.1;
lastChange = "2024-07-06 19:36:07 +0000";
layers = (
{
layerId = "22A22D76-E3A3-44AE-B323-C96AF5899C07";
paths = (
{
closed = 1;
nodes = (
"851.667 -20 OFFCURVE",
"927.167 -4.667 OFFCURVE",
"987.5 26 CURVE SMOOTH",
"1047.833 56.667 OFFCURVE",
"1095 98.167 OFFCURVE",
"1129 150.5 CURVE SMOOTH",
"1163 202.833 OFFCURVE",
"1186 262 OFFCURVE",
"1198 328 CURVE",
"1217 159 LINE SMOOTH",
"1229 54 OFFCURVE",
"1270 0 OFFCURVE",
"1337 0 CURVE SMOOTH",
"1403 0 OFFCURVE",
"1438 60 OFFCURVE",
"1438 169 CURVE SMOOTH",
"1438 625 LINE SMOOTH",
"1438 734 OFFCURVE",
"1378 794 OFFCURVE",
"1269 794 CURVE SMOOTH",
"987 794 LINE SMOOTH",
"878 794 OFFCURVE",
"818 753 OFFCURVE",
"818 678 CURVE SMOOTH",
"818 603 OFFCURVE",
"878 562 OFFCURVE",
"987 562 CURVE SMOOTH",
"1142 562 LINE",
"1137.333 466 OFFCURVE",
"1105 390.167 OFFCURVE",
"1045 334.5 CURVE SMOOTH",
"985 278.833 OFFCURVE",
"903.667 251 OFFCURVE",
"801 251 CURVE SMOOTH",
"679.667 251 OFFCURVE",
"583.167 294 OFFCURVE",
"511.5 380 CURVE SMOOTH",
"439.833 466 OFFCURVE",
"404 588 OFFCURVE",
"404 746 CURVE SMOOTH",
"404 904 OFFCURVE",
"440.167 1025.667 OFFCURVE",
"512.5 1111 CURVE SMOOTH",
"584.833 1196.333 OFFCURVE",
"678.333 1239 OFFCURVE",
"793 1239 CURVE SMOOTH",
"875.667 1239 OFFCURVE",
"944.333 1218.667 OFFCURVE",
"999 1178 CURVE SMOOTH",
"1027 1157 OFFCURVE",
"1051 1132 OFFCURVE",
"1070 1104 CURVE SMOOTH",
"1109 1042 OFFCURVE",
"1156 1010 OFFCURVE",
"1250 1010 CURVE SMOOTH",
"1268 1010 LINE SMOOTH",
"1368 1010 OFFCURVE",
"1423 1070 OFFCURVE",
"1423 1179 CURVE SMOOTH",
"1423 1368 LINE SMOOTH",
"1423 1400 OFFCURVE",
"1433.333 1423 OFFCURVE",
"1454 1437 CURVE SMOOTH",
"1474.667 1451 OFFCURVE",
"1508.333 1458 OFFCURVE",
"1555 1458 CURVE SMOOTH",
"1569.667 1458 OFFCURVE",
"1584.333 1457.333 OFFCURVE",
"1599 1456 CURVE SMOOTH",
"1628 1453 OFFCURVE",
"1645 1490 OFFCURVE",
"1645 1559 CURVE SMOOTH",
"1645 1630 OFFCURVE",
"1489 1684 OFFCURVE",
"1489 1684 CURVE SMOOTH",
"1272.333 1684 OFFCURVE",
"1153.333 1598 OFFCURVE",
"1132 1426 CURVE",
"1082.667 1452.667 OFFCURVE",
"1029 1473.333 OFFCURVE",
"971 1488 CURVE SMOOTH",
"913 1502.667 OFFCURVE",
"852 1510 OFFCURVE",
"788 1510 CURVE SMOOTH",
"657.333 1510 OFFCURVE",
"539.5 1479.667 OFFCURVE",
"434.5 1419 CURVE SMOOTH",
"329.5 1358.333 OFFCURVE",
"246.5 1270.667 OFFCURVE",
"185.5 1156 CURVE SMOOTH",
"124.5 1041.333 OFFCURVE",
"94 903.667 OFFCURVE",
"94 743 CURVE SMOOTH",
"94 585.667 OFFCURVE",
"123.5 450 OFFCURVE",
"182.5 336 CURVE SMOOTH",
"241.5 222 OFFCURVE",
"321.333 134.167 OFFCURVE",
"422 72.5 CURVE SMOOTH",
"522.667 10.833 OFFCURVE",
"635.667 -20 OFFCURVE",
"761 -20 CURVE SMOOTH"
);
}
);
userData = {
assembly = "NPUSHB[ ]	/* 15 values pushed */\01215 1 1 2 16 11 2 5 3 42 1 6 7 3 76 \012MPPEM[ ]	/* MeasurePixelPerEm */\012PUSHB[ ]	/* 1 value pushed */\01225 \012LT[ ]	/* LessThan */\012IF[ ]	/* If */\012NPUSHB[ ]	/* 47 values pushed */\0120 4 5 8 5 4 8 128 0 2 0 3 5 2 3 105 0 8 0 7 6 8 7 103 0 5 5 1 97 0 1 1 109 77 0 6 6 0 97 9 10 2 0 0 110 0 78 \012ELSE[ ]	/* Else */\012NPUSHB[ ]	/* 51 values pushed */\0120 4 5 8 5 4 8 128 0 2 0 3 5 2 3 105 0 8 0 7 6 8 7 103 0 5 5 1 97 0 1 1 109 77 0 9 9 104 77 0 6 6 0 97 10 1 0 0 110 0 78 \012EIF[ ]	/* EndIf */\012NPUSHB[ ]	/* 27 values pushed */\0121 0 41 40 39 38 37 36 34 32 28 26 24 23 20 18 14 12 9 7 0 45 1 45 11 12 22 \012CALL[ ]	/* CallFunction */";
};
width = 1556;
}
);
note = uni0193.1;
},
{
glyphname = I.1;
lastChange = "2024-07-06 19:36:07 +0000";
layers = (
{
layerId = "22A22D76-E3A3-44AE-B323-C96AF5899C07";
paths = (
{
closed = 1;
nodes = (
"74 44 OFFCURVE",
"134 0 OFFCURVE",
"243 0 CURVE SMOOTH",
"733 0 LINE SMOOTH",
"842 0 OFFCURVE",
"902 45 OFFCURVE",
"902 127 CURVE SMOOTH",
"902 209 OFFCURVE",
"842 253 OFFCURVE",
"733 253 CURVE SMOOTH",
"641 253 LINE",
"641 1237 LINE",
"772 1237 LINE SMOOTH",
"856 1237 OFFCURVE",
"902 1282 OFFCURVE",
"902 1364 CURVE SMOOTH",
"902 1446 OFFCURVE",
"842 1490 OFFCURVE",
"733 1490 CURVE SMOOTH",
"243 1490 LINE SMOOTH",
"134 1490 OFFCURVE",
"74 1446 OFFCURVE",
"74 1364 CURVE SMOOTH",
"74 1282 OFFCURVE",
"134 1237 OFFCURVE",
"243 1237 CURVE SMOOTH",
"335 1237 LINE",
"335 253 LINE",
"205 253 LINE SMOOTH",
"121 253 OFFCURVE",
"74 209 OFFCURVE",
"74 127 CURVE SMOOTH"
);
}
);
userData = {
assembly = "NPUSHB[ ]	/* 38 values pushed */\0123 1 1 1 2 95 0 2 2 103 77 4 1 0 0 5 95 6 1 5 5 104 5 78 0 0 0 11 0 11 17 17 17 17 17 7 12 27 \012CALL[ ]	/* CallFunction */";
};
width = 976;
}
);
leftKerningGroup = B;
note = I.1;
rightKerningGroup = Ereversed;
},
{
glyphname = Thook.base;
lastChange = "2024-07-06 19:36:07 +0000";
layers = (
{
layerId = "22A22D76-E3A3-44AE-B323-C96AF5899C07";
paths = (
{
closed = 1;
nodes = (
"463 1281 OFFCURVE",
"487 1237 OFFCURVE",
"530 1237 CURVE",
"530 169 LINE SMOOTH",
"530 60 OFFCURVE",
"584 0 OFFCURVE",
"683 0 CURVE SMOOTH",
"782 0 OFFCURVE",
"836 60 OFFCURVE",
"836 169 CURVE SMOOTH",
"836 1237 LINE",
"1122 1237 LINE SMOOTH",
"1231 1237 OFFCURVE",
"1291 1282 OFFCURVE",
"1291 1364 CURVE SMOOTH",
"1291 1446 OFFCURVE",
"1231 1490 OFFCURVE",
"1122 1490 CURVE SMOOTH",
"632 1490 LINE SMOOTH",
"523 1490 OFFCURVE",
"463 1446 OFFCURVE",
"463 1364 CURVE SMOOTH"
);
}
);
userData = {
assembly = "NPUSHB[ ]	/* 35 values pushed */\0120 2 1 2 134 0 0 1 1 0 87 0 0 0 1 95 4 3 2 1 0 1 79 0 0 0 7 0 7 17 17 17 5 6 25 \012CALL[ ]	/* CallFunction */";
};
width = 1366;
}
);
note = uni01AC.base;
rightKerningGroup = "Enghe-cy";
},
{
glyphname = a;
lastChange = "2024-07-06 19:36:07 +0000";
layers = (
{
layerId = "22A22D76-E3A3-44AE-B323-C96AF5899C07";
paths = (
{
closed = 1;
nodes = (
"522.667 -22 OFFCURVE",
"591 -5.5 OFFCURVE",
"645 27.5 CURVE SMOOTH",
"699 60.5 OFFCURVE",
"739.667 103 OFFCURVE",
"767 155 CURVE",
"777 155 LINE",
"777 78 LINE SMOOTH",
"777 28 OFFCURVE",
"827 0 OFFCURVE",
"919 0 CURVE SMOOTH",
"1011 0 OFFCURVE",
"1061 60 OFFCURVE",
"1061 169 CURVE SMOOTH",
"1061 753 LINE SMOOTH",
"1061 843.667 OFFCURVE",
"1038.167 916.833 OFFCURVE",
"992.5 972.5 CURVE SMOOTH",
"946.833 1028.167 OFFCURVE",
"887.833 1068.667 OFFCURVE",
"815.5 1094 CURVE SMOOTH",
"743.167 1119.333 OFFCURVE",
"667 1132 OFFCURVE",
"587 1132 CURVE SMOOTH",
"462.333 1132 OFFCURVE",
"357.167 1105.333 OFFCURVE",
"271.5 1052 CURVE SMOOTH",
"229 1025 OFFCURVE",
"193 993 OFFCURVE",
"164 956 CURVE SMOOTH",
"111 884 OFFCURVE",
"156 818 OFFCURVE",
"241 803 CURVE SMOOTH",
"333 788 OFFCURVE",
"446 873 OFFCURVE",
"446 872.5 CURVE SMOOTH",
"481.333 897.5 OFFCURVE",
"528 910 OFFCURVE",
"586 910 CURVE SMOOTH",
"642 910 OFFCURVE",
"685.167 897 OFFCURVE",
"715.5 871 CURVE SMOOTH",
"745.833 845 OFFCURVE",
"761 808.333 OFFCURVE",
"761 761 CURVE SMOOTH",
"761 756 LINE SMOOTH",
"761 719.333 OFFCURVE",
"739.833 695.833 OFFCURVE",
"697.5 685.5 CURVE SMOOTH",
"655.167 675.167 OFFCURVE",
"586 665.333 OFFCURVE",
"490 656 CURVE SMOOTH",
"416.667 649.333 OFFCURVE",
"348 635 OFFCURVE",
"284 613 CURVE SMOOTH",
"220 591 OFFCURVE",
"168 556.333 OFFCURVE",
"128 509 CURVE SMOOTH",
"88 461.667 OFFCURVE",
"68 396.333 OFFCURVE",
"68 313 CURVE SMOOTH",
"68 202.333 OFFCURVE",
"103.333 118.833 OFFCURVE",
"174 62.5 CURVE SMOOTH",
"244.667 6.167 OFFCURVE",
"333.333 -22 OFFCURVE",
"440 -22 CURVE SMOOTH"
);
},
{
closed = 1;
nodes = (
"475.667 189 OFFCURVE",
"435.167 200.167 OFFCURVE",
"403.5 222.5 CURVE SMOOTH",
"371.833 244.833 OFFCURVE",
"356 277.667 OFFCURVE",
"356 321 CURVE SMOOTH",
"356 365.667 OFFCURVE",
"373 399.667 OFFCURVE",
"407 423 CURVE SMOOTH",
"441 446.333 OFFCURVE",
"485.667 462 OFFCURVE",
"541 470 CURVE SMOOTH",
"563 472.667 OFFCURVE",
"589 476.5 OFFCURVE",
"619 481.5 CURVE SMOOTH",
"649 486.5 OFFCURVE",
"677.5 492.167 OFFCURVE",
"704.5 498.5 CURVE SMOOTH",
"731.5 504.833 OFFCURVE",
"751 512.333 OFFCURVE",
"763 521 CURVE",
"763 400 LINE SMOOTH",
"763 340.667 OFFCURVE",
"740.833 290.667 OFFCURVE",
"696.5 250 CURVE SMOOTH",
"652.167 209.333 OFFCURVE",
"595 189 OFFCURVE",
"525 189 CURVE SMOOTH"
);
}
);
userData = {
assembly = "MPPEM[ ]	/* MeasurePixelPerEm */\012PUSHB[ ]	/* 1 value pushed */\01223 \012LT[ ]	/* LessThan */\012IF[ ]	/* If */\012NPUSHB[ ]	/* 12 values pushed */\01236 18 17 3 4 1 28 1 0 4 2 76 \012ELSE[ ]	/* Else */\012NPUSHB[ ]	/* 12 values pushed */\01236 18 17 3 4 1 28 1 3 4 2 76 \012EIF[ ]	/* EndIf */\012MPPEM[ ]	/* MeasurePixelPerEm */\012PUSHB[ ]	/* 1 value pushed */\01223 \012LT[ ]	/* LessThan */\012IF[ ]	/* If */\012NPUSHB[ ]	/* 24 values pushed */\0120 1 1 2 97 0 2 2 112 77 6 1 4 4 0 97 3 5 2 0 0 110 0 78 \012ELSE[ ]	/* Else */\012NPUSHB[ ]	/* 28 values pushed */\0120 1 1 2 97 0 2 2 112 77 0 3 3 104 77 6 1 4 4 0 97 5 1 0 0 110 0 78 \012EIF[ ]	/* EndIf */\012NPUSHB[ ]	/* 21 values pushed */\01233 32 1 0 32 45 33 45 27 26 22 20 15 13 0 31 1 31 7 12 22 \012CALL[ ]	/* CallFunction */";
};
width = 1189;
}
);
leftKerningGroup = a;
note = a;
rightKerningGroup = a;
unicode = 0061;
},
{
glyphname = "alphaturned-latin";
lastChange = "2024-07-06 19:36:07 +0000";
layers = (
{
layerId = "22A22D76-E3A3-44AE-B323-C96AF5899C07";
paths = (
{
closed = 1;
nodes = (
"839.667 -19 OFFCURVE",
"916.333 3.167 OFFCURVE",
"985 47.5 CURVE SMOOTH",
"1053.667 91.833 OFFCURVE",
"1108.167 156.833 OFFCURVE",
"1148.5 242.5 CURVE SMOOTH",
"1188.833 328.167 OFFCURVE",
"1209 433 OFFCURVE",
"1209 557 CURVE SMOOTH",
"1209 684.333 OFFCURVE",
"1188.333 790.667 OFFCURVE",
"1147 876 CURVE SMOOTH",
"1105.667 961.333 OFFCURVE",
"1050.5 1025.333 OFFCURVE",
"981.5 1068 CURVE SMOOTH",
"912.5 1110.667 OFFCURVE",
"836.667 1132 OFFCURVE",
"754 1132 CURVE SMOOTH",
"691.333 1132 OFFCURVE",
"639 1121.333 OFFCURVE",
"597 1100 CURVE SMOOTH",
"555 1078.667 OFFCURVE",
"521.167 1052.333 OFFCURVE",
"495.5 1021 CURVE SMOOTH",
"469.833 989.667 OFFCURVE",
"450 959.333 OFFCURVE",
"436 930 CURVE",
"426 930 LINE",
"426 1024 LINE SMOOTH",
"426 1085 OFFCURVE",
"373 1118 OFFCURVE",
"277 1118 CURVE SMOOTH",
"181 1118 OFFCURVE",
"128 1058 OFFCURVE",
"128 949 CURVE SMOOTH",
"128 169 LINE SMOOTH",
"128 60 OFFCURVE",
"181 0 OFFCURVE",
"277 0 CURVE SMOOTH",
"373 0 OFFCURVE",
"425 60 OFFCURVE",
"425 169 CURVE SMOOTH",
"425 179 LINE",
"436 179 LINE",
"450 149 OFFCURVE",
"470.333 118.667 OFFCURVE",
"497 88 CURVE SMOOTH",
"523.667 57.333 OFFCURVE",
"558 31.833 OFFCURVE",
"600 11.5 CURVE SMOOTH",
"642 -8.833 OFFCURVE",
"693.667 -19 OFFCURVE",
"755 -19 CURVE SMOOTH"
);
},
{
closed = 1;
nodes = (
"584.333 222 OFFCURVE",
"525 252.667 OFFCURVE",
"483 314 CURVE SMOOTH",
"441 375.333 OFFCURVE",
"420 456.667 OFFCURVE",
"420 558 CURVE SMOOTH",
"420 659.333 OFFCURVE",
"440.833 740.333 OFFCURVE",
"482.5 801 CURVE SMOOTH",
"524.167 861.667 OFFCURVE",
"583.667 892 OFFCURVE",
"661 892 CURVE SMOOTH",
"739.667 892 OFFCURVE",
"799.5 861 OFFCURVE",
"840.5 799 CURVE SMOOTH",
"881.5 737 OFFCURVE",
"902 656.667 OFFCURVE",
"902 558 CURVE SMOOTH",
"902 459.333 OFFCURVE",
"881.333 378.667 OFFCURVE",
"840 316 CURVE SMOOTH",
"798.667 253.333 OFFCURVE",
"739 222 OFFCURVE",
"661 222 CURVE SMOOTH"
);
}
);
userData = {
assembly = "MPPEM[ ]	/* MeasurePixelPerEm */\012PUSHB[ ]	/* 1 value pushed */\01226 \012LT[ ]	/* LessThan */\012IF[ ]	/* If */\012NPUSHB[ ]	/* 10 values pushed */\01210 1 5 2 4 1 0 4 2 76 \012ELSE[ ]	/* Else */\012NPUSHB[ ]	/* 10 values pushed */\01210 1 5 2 4 1 1 4 2 76 \012EIF[ ]	/* EndIf */\012MPPEM[ ]	/* MeasurePixelPerEm */\012PUSHB[ ]	/* 1 value pushed */\01226 \012LT[ ]	/* LessThan */\012IF[ ]	/* If */\012NPUSHB[ ]	/* 25 values pushed */\0120 5 5 2 97 3 1 2 2 106 77 7 1 4 4 0 97 1 6 2 0 0 110 0 78 \012ELSE[ ]	/* Else */\012MPPEM[ ]	/* MeasurePixelPerEm */\012PUSHB[ ]	/* 1 value pushed */\01236 \012LT[ ]	/* LessThan */\012IF[ ]	/* If */\012NPUSHB[ ]	/* 29 values pushed */\0120 5 5 2 97 3 1 2 2 106 77 0 1 1 104 77 7 1 4 4 0 97 6 1 0 0 110 0 78 \012ELSE[ ]	/* Else */\012NPUSHB[ ]	/* 33 values pushed */\0120 2 2 106 77 0 5 5 3 97 0 3 3 112 77 0 1 1 104 77 7 1 4 4 0 97 6 1 0 0 110 0 78 \012EIF[ ]	/* EndIf */\012EIF[ ]	/* EndIf */\012NPUSHB[ ]	/* 23 values pushed */\01224 23 1 0 30 28 23 34 24 34 16 14 9 8 7 6 0 22 1 22 8 12 22 \012CALL[ ]	/* CallFunction */";
};
width = 1291;
}
);
note = ascriptturn;
unicode = 0252;
},
{
glyphname = aturned;
lastChange = "2024-07-06 19:36:07 +0000";
layers = (
{
layerId = "22A22D76-E3A3-44AE-B323-C96AF5899C07";
paths = (
{
closed = 1;
nodes = (
"666.333 1140 OFFCURVE",
"598 1123.5 OFFCURVE",
"544 1090.5 CURVE SMOOTH",
"490 1057.5 OFFCURVE",
"449.333 1015 OFFCURVE",
"422 963 CURVE",
"412 963 LINE",
"412 1041 LINE SMOOTH",
"412 1091 OFFCURVE",
"362 1118 OFFCURVE",
"270 1118 CURVE SMOOTH",
"178 1118 OFFCURVE",
"128 1058 OFFCURVE",
"128 949 CURVE SMOOTH",
"128 365 LINE SMOOTH",
"128 274.333 OFFCURVE",
"150.833 201.167 OFFCURVE",
"196.5 145.5 CURVE SMOOTH",
"242.167 89.833 OFFCURVE",
"301.167 49.333 OFFCURVE",
"373.5 24 CURVE SMOOTH",
"445.833 -1.333 OFFCURVE",
"522 -14 OFFCURVE",
"602 -14 CURVE SMOOTH",
"726.667 -14 OFFCURVE",
"831.833 12.667 OFFCURVE",
"917.5 66 CURVE SMOOTH",
"960 93 OFFCURVE",
"996 125 OFFCURVE",
"1024 163 CURVE SMOOTH",
"1077 234 OFFCURVE",
"1032 301 OFFCURVE",
"947 315 CURVE SMOOTH",
"855 330 OFFCURVE",
"743 246 OFFCURVE",
"743 245.5 CURVE SMOOTH",
"707.667 220.5 OFFCURVE",
"661 208 OFFCURVE",
"603 208 CURVE SMOOTH",
"547 208 OFFCURVE",
"503.833 221 OFFCURVE",
"473.5 247 CURVE SMOOTH",
"443.167 273 OFFCURVE",
"428 309.667 OFFCURVE",
"428 357 CURVE SMOOTH",
"428 362 LINE SMOOTH",
"428 398.667 OFFCURVE",
"449.167 422.167 OFFCURVE",
"491.5 432.5 CURVE SMOOTH",
"533.833 442.833 OFFCURVE",
"603 452.667 OFFCURVE",
"699 462 CURVE SMOOTH",
"772.333 468.667 OFFCURVE",
"841 483 OFFCURVE",
"905 505 CURVE SMOOTH",
"969 527 OFFCURVE",
"1020.833 561.667 OFFCURVE",
"1060.5 609 CURVE SMOOTH",
"1100.167 656.333 OFFCURVE",
"1120 721.667 OFFCURVE",
"1120 805 CURVE SMOOTH",
"1120 915.667 OFFCURVE",
"1084.833 999.167 OFFCURVE",
"1014.5 1055.5 CURVE SMOOTH",
"944.167 1111.833 OFFCURVE",
"855.667 1140 OFFCURVE",
"749 1140 CURVE SMOOTH"
);
},
{
closed = 1;
nodes = (
"713.333 929 OFFCURVE",
"753.833 917.833 OFFCURVE",
"785.5 895.5 CURVE SMOOTH",
"817.167 873.167 OFFCURVE",
"833 840.333 OFFCURVE",
"833 797 CURVE SMOOTH",
"833 752.333 OFFCURVE",
"816 718.333 OFFCURVE",
"782 695 CURVE SMOOTH",
"748 671.667 OFFCURVE",
"703.333 656 OFFCURVE",
"648 648 CURVE SMOOTH",
"626 645.333 OFFCURVE",
"600 641.5 OFFCURVE",
"570 636.5 CURVE SMOOTH",
"540 631.5 OFFCURVE",
"511.5 625.833 OFFCURVE",
"484.5 619.5 CURVE SMOOTH",
"457.5 613.167 OFFCURVE",
"437.667 605.667 OFFCURVE",
"425 597 CURVE",
"425 718 LINE SMOOTH",
"425 777.333 OFFCURVE",
"447.333 827.333 OFFCURVE",
"492 868 CURVE SMOOTH",
"536.667 908.667 OFFCURVE",
"594 929 OFFCURVE",
"664 929 CURVE SMOOTH"
);
}
);
userData = {
assembly = "MPPEM[ ]	/* MeasurePixelPerEm */\012PUSHB[ ]	/* 1 value pushed */\01223 \012LT[ ]	/* LessThan */\012IF[ ]	/* If */\012NPUSHB[ ]	/* 12 values pushed */\01228 1 4 0 36 18 17 3 1 4 2 76 \012ELSE[ ]	/* Else */\012NPUSHB[ ]	/* 12 values pushed */\01228 1 4 3 36 18 17 3 1 4 2 76 \012EIF[ ]	/* EndIf */\012MPPEM[ ]	/* MeasurePixelPerEm */\012PUSHB[ ]	/* 1 value pushed */\01223 \012LT[ ]	/* LessThan */\012IF[ ]	/* If */\012NPUSHB[ ]	/* 24 values pushed */\0126 1 4 4 0 97 3 5 2 0 0 112 77 0 1 1 2 97 0 2 2 110 2 78 \012ELSE[ ]	/* Else */\012NPUSHB[ ]	/* 28 values pushed */\0120 3 3 106 77 6 1 4 4 0 97 5 1 0 0 112 77 0 1 1 2 97 0 2 2 110 2 78 \012EIF[ ]	/* EndIf */\012NPUSHB[ ]	/* 21 values pushed */\01233 32 1 0 32 45 33 45 27 26 22 20 15 13 0 31 1 31 7 12 22 \012CALL[ ]	/* CallFunction */";
};
width = 1189;
}
);
leftKerningGroup = aturned;
note = aturn;
rightKerningGroup = aturned;
unicode = 0250;
},
{
glyphname = ae;
lastChange = "2024-07-06 19:36:07 +0000";
layers = (
{
layerId = "22A22D76-E3A3-44AE-B323-C96AF5899C07";
paths = (
{
closed = 1;
nodes = (
"541.333 -22 OFFCURVE",
"621.5 -6.5 OFFCURVE",
"696.5 24.5 CURVE SMOOTH",
"771.5 55.5 OFFCURVE",
"827.333 99.333 OFFCURVE",
"864 156 CURVE",
"906.667 100 OFFCURVE",
"963.167 56.333 OFFCURVE",
"1033.5 25 CURVE SMOOTH",
"1103.833 -6.333 OFFCURVE",
"1185 -22 OFFCURVE",
"1277 -22 CURVE SMOOTH",
"1413.667 -22 OFFCURVE",
"1525.5 8.833 OFFCURVE",
"1612.5 70.5 CURVE SMOOTH",
"1656 101 OFFCURVE",
"1691 137 OFFCURVE",
"1718 177 CURVE SMOOTH",
"1769 254 OFFCURVE",
"1717 319 OFFCURVE",
"1629 326 CURVE SMOOTH",
"1539 333 OFFCURVE",
"1431 245 OFFCURVE",
"1417 238 CURVE SMOOTH",
"1417 238 OFFCURVE",
"1417 238 OFFCURVE",
"1417 237.5 CURVE SMOOTH",
"1379 215.167 OFFCURVE",
"1333.667 204 OFFCURVE",
"1281 204 CURVE SMOOTH",
"1206.333 204 OFFCURVE",
"1145.333 226.833 OFFCURVE",
"1098 272.5 CURVE SMOOTH",
"1050.667 318.167 OFFCURVE",
"1025.333 387.667 OFFCURVE",
"1022 481 CURVE",
"1618 481 LINE SMOOTH",
"1727 481 OFFCURVE",
"1787 511 OFFCURVE",
"1787 565 CURVE SMOOTH",
"1787 692.333 OFFCURVE",
"1763.667 798 OFFCURVE",
"1717 882 CURVE SMOOTH",
"1670.333 966 OFFCURVE",
"1607.5 1028.667 OFFCURVE",
"1528.5 1070 CURVE SMOOTH",
"1449.5 1111.333 OFFCURVE",
"1361.333 1132 OFFCURVE",
"1264 1132 CURVE SMOOTH",
"1191.333 1132 OFFCURVE",
"1125.833 1120.833 OFFCURVE",
"1067.5 1098.5 CURVE SMOOTH",
"1009.167 1076.167 OFFCURVE",
"958.333 1044.667 OFFCURVE",
"915 1004 CURVE",
"846.333 1089.333 OFFCURVE",
"737 1132 OFFCURVE",
"587 1132 CURVE SMOOTH",
"462.333 1132 OFFCURVE",
"357.167 1105.333 OFFCURVE",
"271.5 1052 CURVE SMOOTH",
"229 1025 OFFCURVE",
"193 993 OFFCURVE",
"164 956 CURVE SMOOTH",
"111 884 OFFCURVE",
"156 818 OFFCURVE",
"241 803 CURVE SMOOTH",
"334 787 OFFCURVE",
"447 873 OFFCURVE",
"446.5 872.5 CURVE SMOOTH",
"482.167 897.5 OFFCURVE",
"528.667 910 OFFCURVE",
"586 910 CURVE SMOOTH",
"642 910 OFFCURVE",
"685.333 897 OFFCURVE",
"716 871 CURVE SMOOTH",
"746.667 845 OFFCURVE",
"762 808.333 OFFCURVE",
"762 761 CURVE SMOOTH",
"762 669 LINE",
"567 669 LINE SMOOTH",
"480.333 669 OFFCURVE",
"399 657 OFFCURVE",
"323 633 CURVE SMOOTH",
"247 609 OFFCURVE",
"185.5 570.833 OFFCURVE",
"138.5 518.5 CURVE SMOOTH",
"91.5 466.167 OFFCURVE",
"68 397.667 OFFCURVE",
"68 313 CURVE SMOOTH",
"68 202.333 OFFCURVE",
"104 118.833 OFFCURVE",
"176 62.5 CURVE SMOOTH",
"248 6.167 OFFCURVE",
"341.333 -22 OFFCURVE",
"456 -22 CURVE SMOOTH"
);
},
{
closed = 1;
nodes = (
"762 481 LINE",
"762 400 LINE SMOOTH",
"762 340.667 OFFCURVE",
"740 290.667 OFFCURVE",
"696 250 CURVE SMOOTH",
"652 209.333 OFFCURVE",
"595 189 OFFCURVE",
"525 189 CURVE SMOOTH",
"475.667 189 OFFCURVE",
"435.167 200.333 OFFCURVE",
"403.5 223 CURVE SMOOTH",
"371.833 245.667 OFFCURVE",
"356 280 OFFCURVE",
"356 326 CURVE SMOOTH",
"356 370.667 OFFCURVE",
"376.333 407.667 OFFCURVE",
"417 437 CURVE SMOOTH",
"457.667 466.333 OFFCURVE",
"515.333 481 OFFCURVE",
"590 481 CURVE SMOOTH"
);
},
{
closed = 1;
nodes = (
"1030 737.667 OFFCURVE",
"1054 794.333 OFFCURVE",
"1096 839 CURVE SMOOTH",
"1138 883.667 OFFCURVE",
"1194.667 906 OFFCURVE",
"1266 906 CURVE SMOOTH",
"1335.333 906 OFFCURVE",
"1390.333 884.5 OFFCURVE",
"1431 841.5 CURVE SMOOTH",
"1471.667 798.5 OFFCURVE",
"1494 741 OFFCURVE",
"1498 669 CURVE",
"1024 669 LINE"
);
}
);
userData = {
assembly = "MPPEM[ ]	/* MeasurePixelPerEm */\012PUSHB[ ]	/* 1 value pushed */\01234 \012LT[ ]	/* LessThan */\012IF[ ]	/* If */\012NPUSHB[ ]	/* 20 values pushed */\01221 1 2 3 16 15 2 1 2 37 36 2 6 5 43 1 0 6 4 76 \012ELSE[ ]	/* Else */\012NPUSHB[ ]	/* 20 values pushed */\01221 1 2 3 16 15 2 1 2 37 36 2 6 5 43 1 0 9 4 76 \012EIF[ ]	/* EndIf */\012MPPEM[ ]	/* MeasurePixelPerEm */\012PUSHB[ ]	/* 1 value pushed */\01234 \012LT[ ]	/* LessThan */\012IF[ ]	/* If */\012NPUSHB[ ]	/* 36 values pushed */\01210 1 1 8 1 5 6 1 5 103 11 1 2 2 3 97 4 1 3 3 112 77 9 1 6 6 0 97 7 12 2 0 0 110 0 78 \012ELSE[ ]	/* Else */\012NPUSHB[ ]	/* 47 values pushed */\01210 1 1 8 1 5 6 1 5 103 11 1 2 2 3 97 4 1 3 3 112 77 0 6 6 0 97 7 12 2 0 0 110 77 0 9 9 0 97 7 12 2 0 0 110 0 78 \012EIF[ ]	/* EndIf */\012NPUSHB[ ]	/* 31 values pushed */\0121 0 62 60 58 57 54 52 48 46 41 39 34 32 30 29 25 23 20 18 13 11 8 6 0 45 1 45 13 12 22 \012CALL[ ]	/* CallFunction */";
};
width = 1864;
}
);
leftKerningGroup = a;
note = ae;
rightKerningGroup = aturned;
unicode = 00E6;
},
{
glyphname = b;
lastChange = "2024-07-06 19:36:07 +0000";
layers = (
{
layerId = "22A22D76-E3A3-44AE-B323-C96AF5899C07";
paths = (
{
closed = 1;
nodes = (
"840 -19 OFFCURVE",
"917.333 3.167 OFFCURVE",
"986 47.5 CURVE SMOOTH",
"1054.667 91.833 OFFCURVE",
"1109 156.833 OFFCURVE",
"1149 242.5 CURVE SMOOTH",
"1189 328.167 OFFCURVE",
"1209 433 OFFCURVE",
"1209 557 CURVE SMOOTH",
"1209 684.333 OFFCURVE",
"1188.5 790.667 OFFCURVE",
"1147.5 876 CURVE SMOOTH",
"1106.5 961.333 OFFCURVE",
"1051.667 1025.333 OFFCURVE",
"983 1068 CURVE SMOOTH",
"914.333 1110.667 OFFCURVE",
"838.667 1132 OFFCURVE",
"756 1132 CURVE SMOOTH",
"692.667 1132 OFFCURVE",
"639.833 1121.333 OFFCURVE",
"597.5 1100 CURVE SMOOTH",
"555.167 1078.667 OFFCURVE",
"521.167 1052.333 OFFCURVE",
"495.5 1021 CURVE SMOOTH",
"469.833 989.667 OFFCURVE",
"450.333 959.333 OFFCURVE",
"437 930 CURVE",
"428 930 LINE",
"428 1321 LINE SMOOTH",
"428 1430 OFFCURVE",
"375 1490 OFFCURVE",
"278 1490 CURVE SMOOTH",
"181 1490 OFFCURVE",
"128 1430 OFFCURVE",
"128 1321 CURVE SMOOTH",
"128 169 LINE SMOOTH",
"128 60 OFFCURVE",
"180 0 OFFCURVE",
"276 0 CURVE SMOOTH",
"371 0 OFFCURVE",
"423 60 OFFCURVE",
"423 169 CURVE SMOOTH",
"423 179 LINE",
"437 179 LINE",
"451 149 OFFCURVE",
"471.167 118.833 OFFCURVE",
"497.5 88.5 CURVE SMOOTH",
"523.833 58.167 OFFCURVE",
"558 32.667 OFFCURVE",
"600 12 CURVE SMOOTH",
"642 -8.667 OFFCURVE",
"693.333 -19 OFFCURVE",
"754 -19 CURVE SMOOTH"
);
},
{
closed = 1;
nodes = (
"585.333 222 OFFCURVE",
"526 252.667 OFFCURVE",
"484 314 CURVE SMOOTH",
"442 375.333 OFFCURVE",
"421 456.667 OFFCURVE",
"421 558 CURVE SMOOTH",
"421 659.333 OFFCURVE",
"441.833 740.333 OFFCURVE",
"483.5 801 CURVE SMOOTH",
"525.167 861.667 OFFCURVE",
"584.667 892 OFFCURVE",
"662 892 CURVE SMOOTH",
"740.667 892 OFFCURVE",
"800.333 860.833 OFFCURVE",
"841 798.5 CURVE SMOOTH",
"881.667 736.167 OFFCURVE",
"902 656 OFFCURVE",
"902 558 CURVE SMOOTH",
"902 459.333 OFFCURVE",
"881.5 378.667 OFFCURVE",
"840.5 316 CURVE SMOOTH",
"799.5 253.333 OFFCURVE",
"740 222 OFFCURVE",
"662 222 CURVE SMOOTH"
);
}
);
userData = {
assembly = "MPPEM[ ]	/* MeasurePixelPerEm */\012PUSHB[ ]	/* 1 value pushed */\01226 \012LT[ ]	/* LessThan */\012IF[ ]	/* If */\012NPUSHB[ ]	/* 10 values pushed */\01210 1 5 3 4 1 0 4 2 76 \012ELSE[ ]	/* Else */\012NPUSHB[ ]	/* 10 values pushed */\01210 1 5 3 4 1 1 4 2 76 \012EIF[ ]	/* EndIf */\012MPPEM[ ]	/* MeasurePixelPerEm */\012PUSHB[ ]	/* 1 value pushed */\01226 \012LT[ ]	/* LessThan */\012IF[ ]	/* If */\012NPUSHB[ ]	/* 29 values pushed */\0120 2 2 103 77 0 5 5 3 97 0 3 3 112 77 7 1 4 4 0 97 1 6 2 0 0 110 0 78 \012ELSE[ ]	/* Else */\012NPUSHB[ ]	/* 33 values pushed */\0120 2 2 103 77 0 5 5 3 97 0 3 3 112 77 0 1 1 104 77 7 1 4 4 0 97 6 1 0 0 110 0 78 \012EIF[ ]	/* EndIf */\012NPUSHB[ ]	/* 23 values pushed */\01224 23 1 0 30 28 23 34 24 34 16 14 9 8 7 6 0 22 1 22 8 12 22 \012CALL[ ]	/* CallFunction */";
};
width = 1291;
}
);
leftKerningGroup = B;
note = b;
rightKerningGroup = b;
unicode = 0062;
},
{
glyphname = bhook;
lastChange = "2024-07-06 19:36:07 +0000";
layers = (
{
layerId = "22A22D76-E3A3-44AE-B323-C96AF5899C07";
paths = (
{
closed = 1;
nodes = (
"836 -19 OFFCURVE",
"913.333 3.167 OFFCURVE",
"982 47.5 CURVE SMOOTH",
"1050.667 91.833 OFFCURVE",
"1105.167 156.5 OFFCURVE",
"1145.5 241.5 CURVE SMOOTH",
"1185.833 326.5 OFFCURVE",
"1206 430.333 OFFCURVE",
"1206 553 CURVE SMOOTH",
"1206 677.667 OFFCURVE",
"1185.333 782 OFFCURVE",
"1144 866 CURVE SMOOTH",
"1102.667 950 OFFCURVE",
"1047.667 1013.167 OFFCURVE",
"979 1055.5 CURVE SMOOTH",
"910.333 1097.833 OFFCURVE",
"834.333 1119 OFFCURVE",
"751 1119 CURVE SMOOTH",
"687.667 1119 OFFCURVE",
"635 1108.5 OFFCURVE",
"593 1087.5 CURVE SMOOTH",
"551 1066.5 OFFCURVE",
"517.167 1040.667 OFFCURVE",
"491.5 1010 CURVE SMOOTH",
"465.833 979.333 OFFCURVE",
"446.333 949.667 OFFCURVE",
"433 921 CURVE",
"428 921 LINE",
"428 1188 LINE SMOOTH",
"428 1220 OFFCURVE",
"438.333 1243 OFFCURVE",
"459 1257 CURVE SMOOTH",
"479.667 1271 OFFCURVE",
"513.333 1278 OFFCURVE",
"560 1278 CURVE SMOOTH",
"574 1278 OFFCURVE",
"588.5 1277.333 OFFCURVE",
"603.5 1276 CURVE SMOOTH",
"611 1275 OFFCURVE",
"619 1275 OFFCURVE",
"626 1274 CURVE SMOOTH",
"641 1272 OFFCURVE",
"649 1311 OFFCURVE",
"649 1379 CURVE SMOOTH",
"649 1450 OFFCURVE",
"494 1504 OFFCURVE",
"494 1504 CURVE SMOOTH",
"374.667 1504 OFFCURVE",
"283.833 1477.333 OFFCURVE",
"221.5 1424 CURVE SMOOTH",
"159.167 1370.667 OFFCURVE",
"128 1292 OFFCURVE",
"128 1188 CURVE SMOOTH",
"128 169 LINE SMOOTH",
"128 60 OFFCURVE",
"179 0 OFFCURVE",
"273 0 CURVE SMOOTH",
"367 0 OFFCURVE",
"418 60 OFFCURVE",
"418 169 CURVE SMOOTH",
"418 178 LINE",
"433 178 LINE",
"447 148.667 OFFCURVE",
"467.167 118.833 OFFCURVE",
"493.5 88.5 CURVE SMOOTH",
"519.833 58.167 OFFCURVE",
"553.833 32.667 OFFCURVE",
"595.5 12 CURVE SMOOTH",
"637.167 -8.667 OFFCURVE",
"688.667 -19 OFFCURVE",
"750 -19 CURVE SMOOTH"
);
},
{
closed = 1;
nodes = (
"582.667 219 OFFCURVE",
"522.833 249.667 OFFCURVE",
"480.5 311 CURVE SMOOTH",
"438.167 372.333 OFFCURVE",
"417 453.333 OFFCURVE",
"417 554 CURVE SMOOTH",
"417 654.667 OFFCURVE",
"438 735.333 OFFCURVE",
"480 796 CURVE SMOOTH",
"522 856.667 OFFCURVE",
"582 887 OFFCURVE",
"660 887 CURVE SMOOTH",
"740 887 OFFCURVE",
"800.5 855.833 OFFCURVE",
"841.5 793.5 CURVE SMOOTH",
"882.5 731.167 OFFCURVE",
"903 651.333 OFFCURVE",
"903 554 CURVE SMOOTH",
"903 456 OFFCURVE",
"882.333 375.667 OFFCURVE",
"841 313 CURVE SMOOTH",
"799.667 250.333 OFFCURVE",
"739.333 219 OFFCURVE",
"660 219 CURVE SMOOTH"
);
}
);
userData = {
assembly = "MPPEM[ ]	/* MeasurePixelPerEm */\012PUSHB[ ]	/* 1 value pushed */\01226 \012LT[ ]	/* LessThan */\012IF[ ]	/* If */\012NPUSHB[ ]	/* 18 values pushed */\01213 1 3 2 14 1 4 3 21 1 6 4 4 1 0 5 4 76 \012ELSE[ ]	/* Else */\012NPUSHB[ ]	/* 18 values pushed */\01213 1 3 2 14 1 4 3 21 1 6 4 4 1 1 5 4 76 \012EIF[ ]	/* EndIf */\012MPPEM[ ]	/* MeasurePixelPerEm */\012PUSHB[ ]	/* 1 value pushed */\01226 \012LT[ ]	/* LessThan */\012IF[ ]	/* If */\012NPUSHB[ ]	/* 34 values pushed */\0120 3 3 2 97 0 2 2 109 77 0 6 6 4 97 0 4 4 106 77 8 1 5 5 0 97 1 7 2 0 0 110 0 78 \012ELSE[ ]	/* Else */\012NPUSHB[ ]	/* 38 values pushed */\0120 3 3 2 97 0 2 2 109 77 0 6 6 4 97 0 4 4 106 77 0 1 1 104 77 8 1 5 5 0 97 7 1 0 0 110 0 78 \012EIF[ ]	/* EndIf */\012NPUSHB[ ]	/* 25 values pushed */\01235 34 1 0 41 39 34 45 35 45 27 25 18 16 12 10 7 6 0 33 1 33 9 12 22 \012CALL[ ]	/* CallFunction */";
};
width = 1287;
}
);
leftKerningGroup = B;
note = uni0253;
rightKerningGroup = b;
unicode = 0253;
},
{
glyphname = bilabialpercussive;
lastChange = "2024-07-06 19:36:07 +0000";
layers = (
{
layerId = "22A22D76-E3A3-44AE-B323-C96AF5899C07";
paths = (
{
closed = 1;
nodes = (
"154 1458 OFFCURVE",
"135 1385 OFFCURVE",
"168 1268 CURVE SMOOTH",
"239 1015 LINE SMOOTH",
"266 919 OFFCURVE",
"307 872 OFFCURVE",
"363 872 CURVE SMOOTH",
"420 872 OFFCURVE",
"462 915 OFFCURVE",
"495 1007 CURVE SMOOTH",
"566 1202 LINE",
"635 1008 LINE SMOOTH",
"668 916 OFFCURVE",
"710 872 OFFCURVE",
"767 872 CURVE SMOOTH",
"823 872 OFFCURVE",
"864 919 OFFCURVE",
"891 1015 CURVE SMOOTH",
"961 1269 LINE SMOOTH",
"993 1386 OFFCURVE",
"974 1458 OFFCURVE",
"911 1458 CURVE SMOOTH",
"843 1458 OFFCURVE",
"798 1409 OFFCURVE",
"777 1308 CURVE SMOOTH",
"745 1157 LINE",
"688 1321 LINE SMOOTH",
"656 1415 OFFCURVE",
"616 1458 OFFCURVE",
"564 1458 CURVE SMOOTH",
"512 1458 OFFCURVE",
"471 1414 OFFCURVE",
"440 1320 CURVE SMOOTH",
"384 1154 LINE",
"352 1308 LINE SMOOTH",
"331 1409 OFFCURVE",
"286 1458 OFFCURVE",
"218 1458 CURVE SMOOTH"
);
},
{
closed = 1;
nodes = (
"154 584 OFFCURVE",
"135 511 OFFCURVE",
"168 394 CURVE SMOOTH",
"239 143 LINE SMOOTH",
"266 47 OFFCURVE",
"307 0 OFFCURVE",
"363 0 CURVE SMOOTH",
"420 0 OFFCURVE",
"462 43 OFFCURVE",
"495 135 CURVE SMOOTH",
"566 330 LINE",
"635 136 LINE SMOOTH",
"668 44 OFFCURVE",
"710 0 OFFCURVE",
"767 0 CURVE SMOOTH",
"823 0 OFFCURVE",
"864 47 OFFCURVE",
"891 144 CURVE SMOOTH",
"960 395 LINE SMOOTH",
"992 512 OFFCURVE",
"974 584 OFFCURVE",
"911 584 CURVE SMOOTH",
"843 584 OFFCURVE",
"798 535 OFFCURVE",
"777 434 CURVE SMOOTH",
"745 284 LINE",
"688 447 LINE SMOOTH",
"656 540 OFFCURVE",
"616 584 OFFCURVE",
"564 584 CURVE SMOOTH",
"512 584 OFFCURVE",
"470 539 OFFCURVE",
"439 446 CURVE SMOOTH",
"384 282 LINE",
"352 434 LINE SMOOTH",
"331 535 OFFCURVE",
"286 584 OFFCURVE",
"218 584 CURVE SMOOTH"
);
}
);
userData = {
assembly = "NPUSHB[ ]	/* 14 values pushed */\0129 4 1 3 2 0 22 17 14 3 7 5 2 76 \012MPPEM[ ]	/* MeasurePixelPerEm */\012PUSHB[ ]	/* 1 value pushed */\01232 \012LT[ ]	/* LessThan */\012IF[ ]	/* If */\012NPUSHB[ ]	/* 29 values pushed */\0123 1 2 2 0 95 10 4 1 3 0 0 103 77 11 9 6 3 5 5 7 95 8 1 7 7 104 7 78 \012ELSE[ ]	/* Else */\012NPUSHB[ ]	/* 27 values pushed */\01210 4 1 3 0 3 1 2 5 0 2 103 11 9 6 3 5 5 7 95 8 1 7 7 104 7 78 \012EIF[ ]	/* EndIf */\012NPUSHB[ ]	/* 27 values pushed */\01213 13 0 0 13 25 13 25 24 23 21 20 19 18 16 15 0 12 0 12 18 17 18 18 12 12 26 \012CALL[ ]	/* CallFunction */";
};
width = 1129;
}
);
note = uni02AC;
unicode = 02AC;
},
